<?xml version="1.0" encoding="UTF-8" standalone="no"?>
<svg
   xmlns:dc="http://purl.org/dc/elements/1.1/"
   xmlns:cc="http://creativecommons.org/ns#"
   xmlns:rdf="http://www.w3.org/1999/02/22-rdf-syntax-ns#"
   xmlns:svg="http://www.w3.org/2000/svg"
   xmlns="http://www.w3.org/2000/svg"
   xmlns:sodipodi="http://sodipodi.sourceforge.net/DTD/sodipodi-0.dtd"
   xmlns:inkscape="http://www.inkscape.org/namespaces/inkscape"
   width="822"
   height="490"
   viewBox="0 0 822 490"
   fill="none"
   version="1.1"
   id="svg814"
   sodipodi:docname="home.svg"
   inkscape:version="1.0.1 (c497b03c, 2020-09-10)">
  <metadata
     id="metadata820">
    <rdf:RDF>
      <cc:Work
         rdf:about="">
        <dc:format>image/svg+xml</dc:format>
        <dc:type
           rdf:resource="http://purl.org/dc/dcmitype/StillImage" />
      </cc:Work>
    </rdf:RDF>
  </metadata>
  <defs
     id="defs818" />
  <sodipodi:namedview
     pagecolor="#ffffff"
     bordercolor="#666666"
     borderopacity="1"
     objecttolerance="10"
     gridtolerance="10"
     guidetolerance="10"
     inkscape:pageopacity="0"
     inkscape:pageshadow="2"
     inkscape:window-width="964"
     inkscape:window-height="794"
     id="namedview816"
     showgrid="false"
     inkscape:zoom="0.71570905"
     inkscape:cx="522.65088"
     inkscape:cy="400.85398"
     inkscape:window-x="0"
     inkscape:window-y="23"
     inkscape:window-maximized="0"
     inkscape:current-layer="svg814" />
  <path
     d="M816.576 6H113V456.601H816.576V6Z"
     fill="#E6E6E6"
     id="path628" />
  <path
     d="M454 66H209V397H454V66Z"
     fill="#3F3D56"
     id="path630" />
  <path
     d="M326.463 111.234H221.006C220.838 111.235 220.671 111.202 220.515 111.139C220.36 111.076 220.218 110.983 220.099 110.865C219.98 110.748 219.885 110.609 219.821 110.455C219.757 110.302 219.723 110.137 219.723 109.971C219.723 109.805 219.757 109.641 219.821 109.487C219.885 109.334 219.98 109.194 220.099 109.077C220.218 108.96 220.36 108.867 220.515 108.804C220.671 108.74 220.838 108.708 221.006 108.708H326.463C326.801 108.709 327.126 108.842 327.366 109.079C327.605 109.316 327.74 109.637 327.74 109.971C327.74 110.306 327.605 110.627 327.366 110.863C327.126 111.1 326.801 111.234 326.463 111.234Z"
     fill="#F2F2F2"
     id="path632" />
  <path
     d="M441.902 125.128H276.038C275.698 125.128 275.373 124.995 275.133 124.758C274.893 124.521 274.758 124.2 274.758 123.865C274.758 123.53 274.893 123.209 275.133 122.972C275.373 122.735 275.698 122.602 276.038 122.602H441.902C442.07 122.602 442.236 122.635 442.392 122.698C442.547 122.762 442.688 122.855 442.807 122.972C442.926 123.089 443.02 123.229 443.084 123.382C443.148 123.535 443.182 123.699 443.182 123.865C443.182 124.031 443.148 124.195 443.084 124.349C443.02 124.502 442.926 124.641 442.807 124.758C442.688 124.876 442.547 124.969 442.392 125.032C442.236 125.096 442.07 125.128 441.902 125.128Z"
     fill="#F2F2F2"
     id="path634" />
  <path
     d="M326.974 139.022H221.518C221.178 139.022 220.853 138.889 220.613 138.652C220.373 138.415 220.238 138.094 220.238 137.759C220.238 137.424 220.373 137.103 220.613 136.866C220.853 136.629 221.178 136.496 221.518 136.496H326.974C327.314 136.496 327.639 136.629 327.879 136.866C328.119 137.103 328.254 137.424 328.254 137.759C328.254 138.094 328.119 138.415 327.879 138.652C327.639 138.889 327.314 139.022 326.974 139.022Z"
     fill="#F2F2F2"
     id="path636" />
  <path
     d="M441.902 139.275H336.445C336.106 139.275 335.78 139.142 335.54 138.905C335.3 138.668 335.165 138.347 335.165 138.012C335.165 137.677 335.3 137.356 335.54 137.119C335.78 136.882 336.106 136.749 336.445 136.749H441.902C442.241 136.749 442.567 136.882 442.807 137.119C443.047 137.356 443.182 137.677 443.182 138.012C443.182 138.347 443.047 138.668 442.807 138.905C442.567 139.142 442.241 139.275 441.902 139.275Z"
     fill="#F2F2F2"
     id="path638" />
  <path
     d="M327.23 152.916H221.774C221.434 152.916 221.109 152.783 220.869 152.546C220.629 152.309 220.494 151.988 220.494 151.653C220.494 151.318 220.629 150.997 220.869 150.76C221.109 150.523 221.434 150.39 221.774 150.39H327.23C327.57 150.39 327.895 150.523 328.135 150.76C328.375 150.997 328.51 151.318 328.51 151.653C328.51 151.988 328.375 152.309 328.135 152.546C327.895 152.783 327.57 152.916 327.23 152.916Z"
     fill="#F2F2F2"
     id="path640" />
  <path
     d="M327.486 166.81H222.03C221.69 166.81 221.365 166.677 221.125 166.44C220.885 166.203 220.75 165.882 220.75 165.547C220.75 165.212 220.885 164.891 221.125 164.654C221.365 164.417 221.69 164.284 222.03 164.284H327.486C327.826 164.284 328.151 164.417 328.391 164.654C328.631 164.891 328.766 165.212 328.766 165.547C328.766 165.882 328.631 166.203 328.391 166.44C328.151 166.677 327.826 166.81 327.486 166.81Z"
     fill="#F2F2F2"
     id="path642" />
  <path
     d="M375.351 111.487H345.148C344.808 111.487 344.483 111.354 344.243 111.117C344.003 110.88 343.868 110.559 343.868 110.224C343.868 109.889 344.003 109.568 344.243 109.331C344.483 109.094 344.808 108.961 345.148 108.961H375.351C375.691 108.961 376.016 109.094 376.256 109.331C376.496 109.568 376.631 109.889 376.631 110.224C376.631 110.559 376.496 110.88 376.256 111.117C376.016 111.354 375.691 111.487 375.351 111.487Z"
     fill="#F2F2F2"
     id="path644" />
  <path
     d="M375.351 152.916H345.148C344.808 152.916 344.483 152.783 344.243 152.546C344.003 152.309 343.868 151.988 343.868 151.653C343.868 151.318 344.003 150.997 344.243 150.76C344.483 150.523 344.808 150.39 345.148 150.39H375.351C375.691 150.39 376.016 150.523 376.256 150.76C376.496 150.997 376.631 151.318 376.631 151.653C376.631 151.988 376.496 152.309 376.256 152.546C376.016 152.783 375.691 152.916 375.351 152.916Z"
     fill="#F2F2F2"
     id="path646" />
  <path
     d="M375.351 166.558H345.148C344.979 166.558 344.813 166.526 344.657 166.462C344.502 166.399 344.36 166.306 344.241 166.189C344.122 166.071 344.027 165.932 343.963 165.779C343.898 165.625 343.865 165.461 343.865 165.295C343.865 165.128 343.898 164.964 343.963 164.811C344.027 164.657 344.122 164.518 344.241 164.4C344.36 164.283 344.502 164.19 344.657 164.127C344.813 164.063 344.979 164.031 345.148 164.031H375.351C375.52 164.031 375.686 164.063 375.842 164.127C375.998 164.19 376.139 164.283 376.258 164.4C376.377 164.518 376.472 164.657 376.536 164.811C376.601 164.964 376.634 165.128 376.634 165.295C376.634 165.461 376.601 165.625 376.536 165.779C376.472 165.932 376.377 166.071 376.258 166.189C376.139 166.306 375.998 166.399 375.842 166.462C375.686 166.526 375.52 166.558 375.351 166.558Z"
     fill="#F2F2F2"
     id="path648" />
  <path
     d="M426.032 166.558H395.828C395.489 166.557 395.165 166.424 394.925 166.187C394.686 165.95 394.551 165.629 394.551 165.295C394.551 164.96 394.686 164.639 394.925 164.402C395.165 164.166 395.489 164.032 395.828 164.031H426.032C426.2 164.031 426.367 164.063 426.523 164.127C426.678 164.19 426.82 164.283 426.939 164.4C427.058 164.518 427.152 164.657 427.217 164.811C427.281 164.964 427.315 165.128 427.315 165.295C427.315 165.461 427.281 165.625 427.217 165.779C427.152 165.932 427.058 166.071 426.939 166.189C426.82 166.306 426.678 166.399 426.523 166.462C426.367 166.526 426.2 166.558 426.032 166.558Z"
     fill="#F2F2F2"
     id="path650" />
  <path
     d="M250.953 125.128H220.75C220.41 125.128 220.085 124.995 219.845 124.758C219.605 124.521 219.47 124.2 219.47 123.865C219.47 123.53 219.605 123.209 219.845 122.972C220.085 122.735 220.41 122.602 220.75 122.602H250.953C251.293 122.602 251.618 122.735 251.858 122.972C252.098 123.209 252.233 123.53 252.233 123.865C252.233 124.2 252.098 124.521 251.858 124.758C251.618 124.995 251.293 125.128 250.953 125.128Z"
     fill="#F2F2F2"
     id="path652" />
  <path
     d="M326.59 315.855H221.134C220.794 315.855 220.469 315.722 220.229 315.485C219.989 315.248 219.854 314.927 219.854 314.592C219.854 314.257 219.989 313.935 220.229 313.699C220.469 313.462 220.794 313.329 221.134 313.329H326.59C326.93 313.329 327.255 313.462 327.495 313.699C327.735 313.935 327.87 314.257 327.87 314.592C327.87 314.927 327.735 315.248 327.495 315.485C327.255 315.722 326.93 315.855 326.59 315.855Z"
     fill="#F2F2F2"
     id="path654" />
  <path
     d="M326.079 343.643H220.622C220.282 343.643 219.957 343.51 219.717 343.273C219.477 343.036 219.342 342.715 219.342 342.38C219.342 342.045 219.477 341.723 219.717 341.487C219.957 341.25 220.282 341.117 220.622 341.117H326.079C326.418 341.117 326.744 341.25 326.984 341.487C327.224 341.723 327.358 342.045 327.358 342.38C327.358 342.715 327.224 343.036 326.984 343.273C326.744 343.51 326.418 343.643 326.079 343.643Z"
     fill="#F2F2F2"
     id="path656" />
  <path
     d="M326.335 357.537H220.878C220.71 357.537 220.543 357.505 220.387 357.441C220.232 357.378 220.09 357.285 219.971 357.168C219.852 357.05 219.757 356.911 219.693 356.758C219.628 356.604 219.595 356.44 219.595 356.274C219.595 356.108 219.628 355.943 219.693 355.79C219.757 355.636 219.852 355.497 219.971 355.38C220.09 355.262 220.232 355.169 220.387 355.106C220.543 355.043 220.71 355.01 220.878 355.011H326.335C326.503 355.01 326.67 355.043 326.825 355.106C326.981 355.169 327.122 355.262 327.241 355.38C327.36 355.497 327.455 355.636 327.519 355.79C327.584 355.943 327.617 356.108 327.617 356.274C327.617 356.44 327.584 356.604 327.519 356.758C327.455 356.911 327.36 357.05 327.241 357.168C327.122 357.285 326.981 357.378 326.825 357.441C326.67 357.505 326.503 357.537 326.335 357.537Z"
     fill="#F2F2F2"
     id="path658" />
  <path
     d="M371.384 343.895H341.18C340.841 343.895 340.515 343.762 340.275 343.525C340.035 343.289 339.901 342.967 339.901 342.632C339.901 342.297 340.035 341.976 340.275 341.739C340.515 341.502 340.841 341.369 341.18 341.369H371.384C371.723 341.369 372.049 341.502 372.289 341.739C372.529 341.976 372.664 342.297 372.664 342.632C372.664 342.967 372.529 343.289 372.289 343.525C372.049 343.762 371.723 343.895 371.384 343.895Z"
     fill="#F2F2F2"
     id="path660" />
  <path
     d="M371.384 357.537H341.18C340.841 357.537 340.515 357.404 340.275 357.167C340.035 356.93 339.901 356.609 339.901 356.274C339.901 355.939 340.035 355.617 340.275 355.381C340.515 355.144 340.841 355.011 341.18 355.011H371.384C371.723 355.011 372.049 355.144 372.289 355.381C372.529 355.617 372.664 355.939 372.664 356.274C372.664 356.609 372.529 356.93 372.289 357.167C372.049 357.404 371.723 357.537 371.384 357.537Z"
     fill="#F2F2F2"
     id="path662" />
  <path
     d="M422.065 343.895H391.861C391.522 343.895 391.196 343.762 390.956 343.525C390.716 343.289 390.581 342.967 390.581 342.632C390.581 342.297 390.716 341.976 390.956 341.739C391.196 341.502 391.522 341.369 391.861 341.369H422.065C422.404 341.369 422.73 341.502 422.97 341.739C423.21 341.976 423.344 342.297 423.344 342.632C423.344 342.967 423.21 343.289 422.97 343.525C422.73 343.762 422.404 343.895 422.065 343.895Z"
     fill="#F2F2F2"
     id="path664" />
  <path
     d="M442.03 329.749H276.166C275.826 329.749 275.501 329.616 275.261 329.379C275.021 329.142 274.886 328.821 274.886 328.486C274.886 328.151 275.021 327.829 275.261 327.593C275.501 327.356 275.826 327.223 276.166 327.223H442.03C442.369 327.223 442.695 327.356 442.935 327.593C443.175 327.829 443.31 328.151 443.31 328.486C443.31 328.821 443.175 329.142 442.935 329.379C442.695 329.616 442.369 329.749 442.03 329.749Z"
     fill="#F2F2F2"
     id="path666" />
  <path
     d="M251.081 329.749H220.878C220.538 329.749 220.213 329.616 219.973 329.379C219.733 329.142 219.598 328.821 219.598 328.486C219.598 328.151 219.733 327.829 219.973 327.593C220.213 327.356 220.538 327.223 220.878 327.223H251.081C251.421 327.223 251.746 327.356 251.986 327.593C252.226 327.829 252.361 328.151 252.361 328.486C252.361 328.821 252.226 329.142 251.986 329.379C251.746 329.616 251.421 329.749 251.081 329.749Z"
     fill="#F2F2F2"
     id="path668" />
  <path
     d="M442.03 371.683H276.166C275.997 371.684 275.831 371.651 275.675 371.588C275.52 371.525 275.378 371.432 275.259 371.314C275.14 371.197 275.045 371.058 274.981 370.904C274.916 370.751 274.883 370.586 274.883 370.42C274.883 370.254 274.916 370.09 274.981 369.936C275.045 369.783 275.14 369.643 275.259 369.526C275.378 369.409 275.52 369.316 275.675 369.253C275.831 369.189 275.997 369.157 276.166 369.157H442.03C442.369 369.157 442.695 369.29 442.935 369.527C443.175 369.764 443.31 370.085 443.31 370.42C443.31 370.755 443.175 371.076 442.935 371.313C442.695 371.55 442.369 371.683 442.03 371.683Z"
     fill="#F2F2F2"
     id="path670" />
  <path
     d="M251.081 371.683H220.878C220.71 371.684 220.543 371.651 220.387 371.588C220.232 371.525 220.09 371.432 219.971 371.314C219.852 371.197 219.757 371.058 219.693 370.904C219.628 370.751 219.595 370.586 219.595 370.42C219.595 370.254 219.628 370.09 219.693 369.936C219.757 369.783 219.852 369.643 219.971 369.526C220.09 369.409 220.232 369.316 220.387 369.253C220.543 369.189 220.71 369.157 220.878 369.157H251.081C251.25 369.157 251.416 369.189 251.572 369.253C251.728 369.316 251.869 369.409 251.988 369.526C252.107 369.643 252.202 369.783 252.266 369.936C252.331 370.09 252.364 370.254 252.364 370.42C252.364 370.586 252.331 370.751 252.266 370.904C252.202 371.058 252.107 371.197 251.988 371.314C251.869 371.432 251.728 371.525 251.572 371.588C251.416 371.651 251.25 371.684 251.081 371.683Z"
     fill="#F2F2F2"
     id="path672" />
  <path
     d="M301.122 200.156L260.168 240.07L301.122 279.983L310.337 270.889L279.366 240.322L310.593 209.503L301.122 200.156Z"
     fill="#2B4696"
     id="path674" />
  <path
     d="M361.529 200.156L402.483 240.07L361.529 279.983L352.315 270.889L383.287 240.322L352.059 209.503L361.529 200.156Z"
     fill="#2B4696"
     id="path676" />
  <path
     d="M216.674 79.4644C219.029 79.4644 220.937 77.2038 220.937 74.4152C220.937 71.6267 219.029 69.3661 216.674 69.3661C214.319 69.3661 212.411 71.6267 212.411 74.4152C212.411 77.2038 214.319 79.4644 216.674 79.4644Z"
     fill="white"
     id="path678" />
  <path
     d="M228.327 79.4644C230.839 79.4644 232.875 77.2038 232.875 74.4152C232.875 71.6267 230.839 69.3661 228.327 69.3661C225.816 69.3661 223.78 71.6267 223.78 74.4152C223.78 77.2038 225.816 79.4644 228.327 79.4644Z"
     fill="white"
     id="path680" />
  <path
     d="M239.98 79.4644C242.335 79.4644 244.244 77.2038 244.244 74.4152C244.244 71.6267 242.335 69.3661 239.98 69.3661C237.626 69.3661 235.717 71.6267 235.717 74.4152C235.717 77.2038 237.626 79.4644 239.98 79.4644Z"
     fill="white"
     id="path682" />
  <path
     opacity="0.1"
     d="M454 79.4644H209V84.5135H454V79.4644Z"
     fill="black"
     id="path684" />
  <path
     d="M779.188 65.9688H525.188V382.969H779.188V65.9688Z"
     fill="white"
     id="path686" />
  <path
     d="M775.802 483.762C800.931 483.762 821.302 480.851 821.302 477.262C821.302 473.672 800.931 470.762 775.802 470.762C750.673 470.762 730.302 473.672 730.302 477.262C730.302 480.851 750.673 483.762 775.802 483.762Z"
     fill="#E6E6E6"
     id="path688" />
  <path
     d="M320.9 483.907C346.029 483.907 366.4 480.997 366.4 477.407C366.4 473.817 346.029 470.907 320.9 470.907C295.771 470.907 275.4 473.817 275.4 477.407C275.4 480.997 295.771 483.907 320.9 483.907Z"
     fill="#E6E6E6"
     id="path690" />
  <path
     d="M104.425 485.508C162.097 485.508 208.85 483.27 208.85 480.508C208.85 477.747 162.097 475.508 104.425 475.508C46.7527 475.508 0 477.747 0 480.508C0 483.27 46.7527 485.508 104.425 485.508Z"
     fill="#E6E6E6"
     id="path692" />
  <path
     d="M817.248 0H113.672V29.8905H817.248V0Z"
     fill="#2B4696"
     id="path694" />
  <path
     d="M135.884 20.8216C138.944 20.8216 141.424 18.3412 141.424 15.2816C141.424 12.222 138.944 9.74158 135.884 9.74158C132.825 9.74158 130.344 12.222 130.344 15.2816C130.344 18.3412 132.825 20.8216 135.884 20.8216Z"
     fill="#E6E6E6"
     id="path696" />
  <path
     d="M156.913 20.8216C159.972 20.8216 162.453 18.3412 162.453 15.2816C162.453 12.222 159.972 9.74158 156.913 9.74158C153.853 9.74158 151.373 12.222 151.373 15.2816C151.373 18.3412 153.853 20.8216 156.913 20.8216Z"
     fill="#E6E6E6"
     id="path698" />
  <path
     d="M177.941 20.8216C181.001 20.8216 183.481 18.3412 183.481 15.2816C183.481 12.222 181.001 9.74158 177.941 9.74158C174.881 9.74158 172.401 12.222 172.401 15.2816C172.401 18.3412 174.881 20.8216 177.941 20.8216Z"
     fill="#E6E6E6"
     id="path700" />
  <path
     d="M723.187 150.999H721.648V108.848C721.648 105.644 721.017 102.472 719.791 99.5123C718.565 96.5525 716.768 93.8632 714.503 91.5978C712.238 89.3325 709.548 87.5355 706.589 86.3095C703.629 85.0835 700.456 84.4525 697.253 84.4525H607.951C604.747 84.4525 601.575 85.0835 598.615 86.3095C595.655 87.5355 592.966 89.3325 590.701 91.5978C588.435 93.8632 586.638 96.5525 585.412 99.5123C584.186 102.472 583.555 105.644 583.555 108.848V340.089C583.555 343.293 584.186 346.465 585.412 349.425C586.638 352.385 588.435 355.074 590.701 357.34C592.966 359.605 595.655 361.402 598.615 362.628C601.575 363.854 604.747 364.485 607.951 364.485H697.253C700.456 364.485 703.629 363.854 706.589 362.628C709.548 361.402 712.238 359.605 714.503 357.34C716.768 355.074 718.565 352.385 719.791 349.425C721.017 346.465 721.648 343.293 721.648 340.089V181.002H723.187V150.999Z"
     fill="#3F3D56"
     id="path702" />
  <path
     d="M697.237 90.7994H685.58C686.116 92.1136 686.321 93.5396 686.176 94.9515C686.031 96.3635 685.541 97.7182 684.75 98.8963C683.958 100.074 682.889 101.04 681.636 101.707C680.383 102.375 678.986 102.724 677.566 102.724H626.407C624.987 102.724 623.59 102.375 622.337 101.707C621.084 101.04 620.015 100.074 619.223 98.8962C618.432 97.7182 617.942 96.3635 617.797 94.9515C617.652 93.5396 617.857 92.1136 618.393 90.7994H607.505C605.113 90.7994 602.744 91.2706 600.534 92.1862C598.323 93.1017 596.315 94.4437 594.623 96.1354C592.931 97.8271 591.589 99.8355 590.674 102.046C589.758 104.256 589.287 106.625 589.287 109.018V339.92C589.287 342.312 589.758 344.681 590.674 346.892C591.589 349.102 592.931 351.11 594.623 352.802C596.315 354.494 598.323 355.836 600.534 356.751C602.744 357.667 605.113 358.138 607.505 358.138H697.237C699.63 358.138 701.999 357.667 704.209 356.751C706.419 355.836 708.428 354.494 710.119 352.802C711.811 351.11 713.153 349.102 714.069 346.892C714.984 344.681 715.456 342.312 715.456 339.92V109.018C715.455 104.186 713.536 99.552 710.119 96.1354C706.703 92.7188 702.069 90.7994 697.237 90.7994Z"
     fill="#EE4266"
     id="path704" />
  <path
     d="M704.903 243.346H601.839V251.398H704.903V243.346Z"
     fill="white"
     id="path706" />
  <path
     d="M704.903 268.346H601.839V276.398H704.903V268.346Z"
     fill="white"
     id="path708" />
  <path
     d="M704.903 293.346H601.839V301.398H704.903V293.346Z"
     fill="white"
     id="path710" />
  <path
     d="M715.679 418.391V401.213H698.502V418.391H715.679Z"
     fill="white"
     id="path712" />
  <path
     d="M688.004 418.391V401.213H670.827V418.391H688.004Z"
     fill="#2B4696"
     id="path714" />
  <path
     d="M660.33 418.391V401.213H643.153V418.391H660.33Z"
     fill="white"
     id="path716" />
  <path
     d="M632.656 418.391V401.213H615.479V418.391H632.656Z"
     fill="#2B4696"
     id="path718" />
  <path
     d="M604.981 418.391V401.213H587.803V418.391H604.981Z"
     fill="#3F3D56"
     id="path720" />
  <path
     d="M280.605 275.593L279.864 277.075L277.641 265.958C277.641 265.958 274.676 254.1 280.605 254.1C286.534 254.1 285.052 265.958 285.052 265.958V274.111L280.605 275.593Z"
     fill="#A0616A"
     id="path722" />
  <path
     d="M377.846 274.075L378.588 275.557L380.811 264.44C380.811 264.44 383.776 252.582 377.846 252.582C371.917 252.582 373.4 264.44 373.4 264.44V272.593L377.846 274.075Z"
     fill="#A0616A"
     id="path724" />
  <path
     d="M313.215 358.94L304.322 413.784L308.768 467.145L319.144 462.699L317.662 422.677L328.038 390.808L330.261 428.606L325.815 467.886L339.155 469.369L348.79 388.585L348.049 361.163L313.215 358.94Z"
     fill="#2B4696"
     id="path726" />
  <path
     d="M313.215 460.475L308.027 468.628V486.844C308.027 487.369 308.214 487.876 308.554 488.276C308.894 488.675 309.366 488.941 309.884 489.024C312.426 489.442 316.854 489.738 318.403 487.156C320.627 483.45 319.144 475.298 319.144 475.298C319.144 475.298 322.109 469.369 320.627 464.922C319.144 460.475 317.662 459.734 317.662 459.734L313.215 460.475Z"
     fill="#2F2E41"
     id="path728" />
  <path
     d="M335.449 467.887L336.932 470.11C336.932 470.11 339.155 472.333 337.673 473.816C336.585 474.968 335.593 476.207 334.708 477.521C334.708 477.521 326.556 479.745 326.556 476.78V467.145L335.449 467.887Z"
     fill="#2F2E41"
     id="path730" />
  <path
     d="M332.778 298.619C338.204 298.619 342.603 294.221 342.603 288.795C342.603 283.369 338.204 278.971 332.778 278.971C327.352 278.971 322.954 283.369 322.954 288.795C322.954 294.221 327.352 298.619 332.778 298.619Z"
     fill="#A0616A"
     id="path732" />
  <path
     d="M326.185 291.867L325.444 305.949L338.784 306.69L338.043 292.608L326.185 291.867Z"
     fill="#A0616A"
     id="path734" />
  <path
     d="M340.637 307.06L338.533 301.921C338.533 301.921 328.779 298.167 325.815 301.872L324.332 306.319L312.474 303.355L305.804 318.177L311.733 360.422C311.733 360.422 327.297 380.433 348.049 361.163L353.978 321.142L349.531 305.578L340.637 307.06Z"
     fill="#FF9900"
     id="path736" />
  <path
     d="M348.049 308.543L349.531 305.578L364.354 296.684L373.4 269.907L380.4 272.907L372.506 304.837L351.013 324.847L348.049 308.543Z"
     fill="#FF9900"
     id="path738" />
  <path
     d="M313.956 304.837L312.474 303.355L296.91 293.72L285.793 271.486L276.9 274.45L286.534 301.872L310.251 321.142L313.956 304.837Z"
     fill="#FF9900"
     id="path740" />
  <path
     d="M340.07 273.75L341.676 272.947L339.267 272.144V271.341C339.267 271.341 327.22 266.522 325.613 274.553C323.54 277.339 322.421 280.719 322.421 284.191C322.421 287.664 323.54 291.043 325.613 293.829V296.238L338.464 297.845L340.07 293.026C340.07 293.026 348.101 278.569 340.07 273.75Z"
     fill="#2F2E41"
     id="path742" />
  <path
     d="M115.09 369.411L112.234 370.839C112.234 370.839 100.813 376.073 104.144 378.929C107.475 381.784 116.517 376.073 116.517 376.073L118.421 373.694L115.09 369.411Z"
     fill="#FFB8B8"
     id="path744" />
  <path
     d="M198.633 368.7L189.807 427.947L176.481 469.35L169.343 466.019L176.005 409.387L156.969 393.206L158.397 369.411L198.633 368.7Z"
     fill="#2F2E41"
     id="path746" />
  <path
     d="M168.391 467.447C168.391 467.447 176.481 463.164 176.957 469.35L176.005 475.537C176.005 475.537 178.861 486.483 169.343 484.103C159.825 481.724 166.487 474.585 166.487 474.585L168.391 467.447Z"
     fill="#2F2E41"
     id="path748" />
  <path
     d="M163.156 387.971L156.969 393.206C156.969 393.206 156.969 425.567 161.252 430.326C165.535 435.085 192.662 459.356 193.614 460.308C194.566 461.26 198.849 450.79 198.849 450.79L173.15 420.808L175.054 402.248L163.156 387.971Z"
     fill="#2F2E41"
     id="path750" />
  <path
     d="M195.993 449.363C195.993 449.363 203.608 447.935 203.608 453.17C203.703 457.308 204.02 461.439 204.56 465.543C204.56 465.543 206.463 482.2 200.276 479.82C194.09 477.441 191.71 460.784 191.71 460.784C192.286 459.4 193.285 458.233 194.566 457.453C196.469 456.501 195.993 449.363 195.993 449.363Z"
     fill="#2F2E41"
     id="path752" />
  <path
     d="M172.198 298.025L173.626 315.634L169.819 322.296L159.349 312.302L158.397 298.977L172.198 298.025Z"
     fill="#FFB8B8"
     id="path754" />
  <path
     d="M163.632 303.736C169.94 303.736 175.054 298.623 175.054 292.315C175.054 286.006 169.94 280.893 163.632 280.893C157.324 280.893 152.21 286.006 152.21 292.315C152.21 298.623 157.324 303.736 163.632 303.736Z"
     fill="#FFB8B8"
     id="path756" />
  <path
     d="M168.391 315.158L173.15 301.357L181.716 310.875L197.421 371.314L185.523 378.453L180.289 370.838L179.337 380.832L156.017 376.073L154.114 312.302L158.87 305.603L168.391 315.158Z"
     fill="white"
     id="path758" />
  <path
     d="M161.728 382.736L158.873 305.64L152.686 310.399L141.264 318.013L148.879 345.14L151.258 373.694L161.728 382.736Z"
     fill="#2F2E41"
     id="path760" />
  <path
     d="M144.596 318.489L141.264 318.013L131.746 346.091L112.71 369.887L119.849 377.501L141.74 356.085L149.831 338.477L144.596 318.489Z"
     fill="#2F2E41"
     id="path762" />
  <path
     d="M196.568 369.846L195.919 372.972C195.919 372.972 192.948 385.18 197.254 384.336C201.559 383.491 202.682 372.855 202.682 372.855L201.994 369.887L196.568 369.846Z"
     fill="#FFB8B8"
     id="path764" />
  <path
     d="M172.406 300.584L195.993 309.923L193.138 338.477L198.849 369.887L193.138 376.073L172.022 304.629L172.406 300.584Z"
     fill="#2F2E41"
     id="path766" />
  <path
     d="M164.23 273.132L167.582 271.455V273.132L169.818 272.014V274.808C169.818 274.808 178.199 280.954 176.523 288.218C174.846 295.482 174.846 296.041 174.846 296.041C174.846 296.041 172.727 282.227 164.346 284.462C155.964 286.697 155.29 287.101 153.055 293.247L152.448 295.884C152.448 295.884 142.997 274.249 164.23 273.132Z"
     fill="#2F2E41"
     id="path768" />
  <path
     d="M192.662 309.923H196.469L202.656 343.236V372.266L195.042 370.838L188.855 327.055L192.662 309.923Z"
     fill="#2F2E41"
     id="path770" />
  <path
     d="M141 381H15V486H141V381Z"
     fill="#2B4696"
     id="path772" />
  <path
     d="M739.202 291.234L740.018 285.974C740.018 285.974 744.771 275.169 741.014 274.586C737.257 274.004 734.123 284.29 734.123 284.29L735.498 295.276L739.202 291.234Z"
     fill="#FFB8B8"
     id="path774" />
  <path
     d="M780.368 319.967L746.787 313.222L742.885 288.763L733 288L733.483 319.623L762.66 334.92L780.368 319.967Z"
     fill="#FF9900"
     id="path776" />
  <path
     opacity="0.2"
     d="M780.368 319.967L746.787 313.222L742.885 288.763L733 288L733.483 319.623L762.66 334.92L780.368 319.967Z"
     fill="black"
     id="path778" />
  <path
     d="M686.312 284.764H789.377V276.712H686.312V284.764Z"
     fill="#2B4696"
     id="path780" />
  <path
     d="M732.641 289.43L732.648 284.108C732.648 284.108 735.704 272.706 731.902 272.701C728.1 272.696 726.566 283.34 726.566 283.34L729.594 293.989L732.641 289.43Z"
     fill="#FFB8B8"
     id="path782" />
  <path
     d="M776.353 304.675L780.961 303.552C782.719 303.554 784.455 303.165 786.045 302.414C787.635 301.662 789.037 300.567 790.151 299.207C791.266 297.847 792.063 296.256 792.487 294.55C792.911 292.843 792.95 291.064 792.602 289.341C792.605 287.305 792.206 285.288 791.43 283.406C790.653 281.524 789.513 279.814 788.075 278.372C786.637 276.931 784.929 275.786 783.049 275.005C781.169 274.223 779.154 273.82 777.118 273.817C775.082 273.815 773.065 274.213 771.183 274.99C769.301 275.767 767.59 276.907 766.149 278.344C764.707 279.782 763.563 281.49 762.782 283.37C762 285.25 761.596 287.266 761.594 289.302C760.998 291.376 760.957 293.57 761.475 295.664C761.994 297.759 763.053 299.681 764.548 301.237C766.042 302.794 767.919 303.931 769.991 304.534C772.063 305.137 774.257 305.186 776.353 304.675Z"
     fill="#2F2E41"
     id="path784" />
  <path
     d="M749.254 381.458L753.005 422.524L759.797 462.833L771.203 462.847L769.732 423.305L763.709 375.393L749.254 381.458Z"
     fill="#2B4696"
     id="path786" />
  <path
     d="M761.321 460.554L753.711 465.106C753.711 465.106 741.543 466.612 743.82 470.417C746.096 474.222 772.713 471.974 772.714 470.453C772.716 468.932 771.966 460.567 770.446 460.565L761.321 460.554Z"
     fill="#2F2E41"
     id="path788" />
  <path
     d="M782.922 377.91C782.922 377.91 782.708 383.781 777.374 392.899L778.099 421.035L805.429 456.047L795.534 464.399L762.124 426.337L753.817 380.703L764.476 370.071L782.922 377.91Z"
     fill="#2B4696"
     id="path790" />
  <path
     d="M803.148 456.044C803.148 456.044 812.271 457.576 810.745 461.376C809.22 465.176 805.396 482.66 795.514 480.367C795.514 480.367 790.951 480.361 792.476 477.321C793.392 475.493 794.41 473.717 795.524 472.003L795.537 462.117L803.148 456.044Z"
     fill="#2F2E41"
     id="path792" />
  <path
     d="M771.415 305.447C777.714 305.447 782.821 300.341 782.821 294.041C782.821 287.742 777.714 282.636 771.415 282.636C765.116 282.636 760.009 287.742 760.009 294.041C760.009 300.341 765.116 305.447 771.415 305.447Z"
     fill="#FFB8B8"
     id="path794" />
  <path
     d="M776.728 301.652L776.712 314.578L764.546 314.563L766.083 301.639L776.728 301.652Z"
     fill="#FFB8B8"
     id="path796" />
  <path
     d="M761.51 309.997L765.197 309.091L776.718 310.016C776.718 310.016 782.793 316.107 782.031 317.627C781.269 319.147 777.42 356.401 777.42 356.401L784.23 383.023L759.896 384.513L747.732 382.977L750.073 335.076C750.073 335.076 744.766 322.142 751.615 318.349C755.483 316.32 758.86 313.469 761.51 309.997Z"
     fill="#FF9900"
     id="path798" />
  <path
     d="M775.193 313.056L740.978 311.492L733.404 287.911L723.518 288.658L728.801 319.841L759.964 330.526L775.193 313.056Z"
     fill="#FF9900"
     id="path800" />
  <path
     d="M793.432 285.638C797.497 285.638 800.791 282.344 800.791 278.279C800.791 274.215 797.497 270.921 793.432 270.921C789.368 270.921 786.074 274.215 786.074 278.279C786.074 282.344 789.368 285.638 793.432 285.638Z"
     fill="#2F2E41"
     id="path802" />
  <path
     d="M786.643 274.323C786.643 273.235 786.886 272.16 787.352 271.177C787.819 270.193 788.498 269.325 789.34 268.636C790.183 267.947 791.168 267.453 792.224 267.191C793.281 266.928 794.382 266.904 795.45 267.119C794.508 266.674 793.483 266.434 792.442 266.415C791.4 266.396 790.367 266.598 789.41 267.008C788.453 267.418 787.593 268.027 786.889 268.794C786.185 269.561 785.651 270.469 785.324 271.458C784.997 272.447 784.883 273.493 784.991 274.529C785.099 275.565 785.425 276.566 785.949 277.466C786.472 278.367 787.181 279.145 788.028 279.751C788.875 280.357 789.841 280.776 790.862 280.981C789.599 280.386 788.532 279.444 787.785 278.265C787.038 277.086 786.641 275.719 786.643 274.323Z"
     fill="#2F2E41"
     id="path804" />
  <path
     d="M780.33 278.497L770.409 276.67L762.779 281.452C760.903 282.628 759.404 284.317 758.459 286.318C757.514 288.32 757.163 290.551 757.448 292.747L765.089 290.81L766.8 286.519L768.838 289.86L777.105 304.314L785.475 299.762L790.808 291.404L780.33 278.497Z"
     fill="#2F2E41"
     id="path806" />
  <path
     d="M102.867 423.336C103.927 416.191 98.5257 412.35 91.141 409.788L93.5366 400.109L87.686 398.642L85.3538 408.065C83.8178 407.679 82.2387 407.315 80.6694 406.954L83.0183 397.469L77.1728 396L74.7757 405.676C73.503 405.383 72.2535 405.095 71.0408 404.791L71.0475 404.76L62.9813 402.732L61.4255 409.025C61.4255 409.025 65.765 410.027 65.6734 410.089C66.4827 410.186 67.2217 410.6 67.7313 411.24C68.2411 411.882 68.4807 412.698 68.3987 413.515L65.6701 424.541C65.8768 424.592 66.0799 424.658 66.2781 424.737L65.6617 424.583L61.8352 440.028C61.7511 440.298 61.615 440.548 61.4345 440.765C61.2541 440.981 61.033 441.159 60.7838 441.29C60.5348 441.42 60.2627 441.499 59.9831 441.522C59.7035 441.546 59.4221 441.514 59.1548 441.428C59.2131 441.514 54.9036 440.359 54.9036 440.359L52 447.105L59.613 449.016C61.0289 449.374 62.4166 449.747 63.781 450.1L61.3605 459.891L67.2026 461.358L69.6015 451.674C71.1957 452.11 72.745 452.512 74.2609 452.892L71.872 462.532L77.7209 464L80.1414 454.229C90.1148 456.131 97.6162 455.364 100.77 446.279C103.314 438.963 100.645 434.743 95.3973 431.99C99.2187 431.098 102.098 428.567 102.865 423.336H102.867ZM89.5018 442.212C87.6927 449.527 75.4652 445.574 71.4988 444.581L74.7106 431.612C78.6753 432.608 91.3875 434.582 89.5035 442.212H89.5018ZM91.3092 423.23C89.66 429.885 79.4816 426.504 76.1782 425.675L79.0902 413.912C82.3935 414.742 93.0284 416.288 91.3092 423.23Z"
     fill="white"
     id="path808" />
  <path
     d="M653.369 203.738C676.217 203.738 694.738 185.217 694.738 162.369C694.738 139.522 676.217 121 653.369 121C630.522 121 612 139.522 612 162.369C612 185.217 630.522 203.738 653.369 203.738Z"
     fill="#2B4696"
     id="path810" />
  <path
     d="M629 165.831L666.288 134L655.163 156.881H677L639.403 189L650.734 165.831H629Z"
     fill="white"
     stroke="white"
     id="path812" />
  <path
     style="fill:#cd2332;fill-opacity:1;stroke-width:0.987981"
     d="m 600.67394,356.25299 c -3.68066,-1.60376 -9.08036,-7.61538 -10.09416,-11.23806 -0.97756,-3.49319 -0.9917,-237.98324 -0.0146,-241.46703 0.98855,-3.52447 5.21708,-8.430242 8.91451,-10.342256 1.64888,-0.852669 6.37528,-1.780382 10.50311,-2.061585 l 7.50514,-0.511276 0.0741,3.578315 c 0.048,2.320878 0.88973,4.446523 2.39517,6.048992 l 2.32108,2.47068 h 29.78898 29.78897 l 2.14818,-2.28663 c 1.43042,-1.522608 2.14818,-3.545698 2.14818,-6.05483 v -3.768192 l 7.65686,0.449607 c 9.45049,0.554928 14.3901,2.776285 17.87182,8.036984 l 2.62878,3.971971 0.26283,86.76785 0.26284,86.76785 h -4.95575 -4.95574 v -4.44591 -4.44591 H 653.05529 601.1863 v 4.44591 4.44591 h 42.48317 42.48317 v 4.44592 4.44591 h 14.32573 14.32572 v 29.1848 c 0,26.68893 -0.16,29.49826 -1.87083,32.85036 -2.31082,4.52765 -4.55518,6.60684 -9.24838,8.56778 -3.10895,1.299 -10.63499,1.51405 -51.83283,1.48099 -37.59351,-0.0301 -48.85186,-0.32453 -51.17811,-1.33815 z m 104.25034,-58.89001 v -4.9399 H 653.05529 601.1863 v 4.9399 4.9399 h 51.86899 51.86899 z m 0,-49.89303 v -4.44591 H 653.05529 601.1863 v 4.44591 4.44592 h 51.86899 51.86899 z m -44.41927,-43.9727 c 25.10589,-4.76124 40.06181,-29.3281 32.58714,-53.52824 -9.10365,-29.4742 -45.67421,-39.06212 -68.29308,-17.90481 -8.81926,8.24938 -12.84378,17.79081 -12.84378,30.45034 0,20.18335 13.01605,36.3557 32.70216,40.63221 6.97021,1.51417 9.4252,1.56847 15.84756,0.3505 z"
     id="path822" />
  <path
     style="fill:#cd2332;fill-opacity:1;stroke-width:0.987981"
     d="m 293.7573,271.91541 c -6.00331,-6.10982 -7.65586,-8.44534 -8.20905,-11.60171 -0.38094,-2.17356 -1.15186,-4.50766 -1.71316,-5.1869 -1.21856,-1.4746 -4.93037,-1.62791 -6.29814,-0.26014 -0.64113,0.64112 -3.66811,-1.74483 -8.84243,-6.96982 l -7.8676,-7.94465 20.25361,-19.63248 20.2536,-19.63247 4.44592,4.44787 4.44591,4.44788 -15.73732,15.29743 -15.73732,15.29743 15.50548,15.52823 15.50549,15.52824 -4.24428,4.16544 -4.24428,4.16544 z"
     id="path824" />
  <path
     style="fill:#cd2332;fill-opacity:1;stroke-width:0.987981"
     d="m 357.35072,275.33279 -4.18011,-4.25923 15.34355,-15.23488 15.34356,-15.23489 -15.562,-15.58484 -15.56201,-15.58484 4.43363,-4.37049 4.43362,-4.37049 20.24632,19.80366 20.24631,19.80367 -9.85623,9.16154 -9.85624,9.16153 -1.00426,-3.10684 c -0.65276,-2.0194 -1.74894,-3.21296 -3.13182,-3.41004 -3.34354,-0.47651 -5.2823,3.26234 -5.2823,10.18678 0,5.98109 -0.005,5.99058 -5.71595,11.64228 l -5.71595,5.65631 z"
     id="path826" />
  <path
     style="fill:#3f3d56;fill-opacity:1;stroke-width:0.987981"
     d="M 114.11178,15.294471 V 0.96875 H 465.33894 816.56611 V 15.294471 29.620192 H 465.33894 114.11178 Z m 26.42848,3.663329 c 2.42159,-3.080555 1.20708,-7.793125 -2.3577,-9.1484531 -5.01259,-1.9057839 -9.19307,2.1392811 -7.82875,7.5751611 1.06308,4.235641 7.33245,5.203942 10.18645,1.573292 z m 20.7476,0.540693 c 0.67924,-0.543419 1.23498,-2.435229 1.23498,-4.204022 0,-3.404624 -1.08652,-4.768053 -4.67646,-5.8683237 -1.62346,-0.4975679 -2.86352,-0.019255 -4.69291,1.8101357 -3.13384,3.133838 -3.13384,4.982538 0,8.116376 2.50891,2.508911 5.12215,2.555762 8.13439,0.145834 z m 21.69236,-1.41242 c 1.94239,-2.964461 0.55079,-6.710995 -3.1127,-8.3801929 -1.96992,-0.8975548 -2.9419,-0.7873559 -5.01054,0.5680699 -2.11761,1.387506 -2.5135,2.315292 -2.26343,5.304328 0.50898,6.083654 7.0145,7.654372 10.38667,2.507795 z"
     id="path832" />
  <path
     style="fill:#3f3d56;fill-opacity:1;stroke-width:0.987981"
     d="m 15.313702,433.21034 v -51.86899 h 62.736779 62.736779 v 51.86899 51.86899 H 78.050481 15.313702 Z m 63.236279,29.88641 c 0.0031,-0.67923 0.437213,-2.79104 0.96485,-4.6929 l 0.95934,-3.45794 5.292717,0.32891 c 7.654625,0.47568 12.119242,-1.6641 14.523112,-6.96059 2.66902,-5.88066 2.49487,-9.87785 -0.590054,-13.54408 -2.205805,-2.62145 -2.336181,-3.12209 -0.95144,-3.65346 2.283854,-0.8764 4.495484,-5.61761 4.495484,-9.63726 0,-4.08745 -3.467146,-8.66092 -7.984293,-10.53198 -3.171979,-1.31388 -3.306855,-2.14738 -1.626078,-10.04879 0.239256,-1.12476 -5.029373,-2.98948 -6.273699,-2.22045 -0.406818,0.25143 -1.039729,2.23318 -1.406467,4.40389 -0.520606,3.08144 -1.104464,3.94675 -2.663025,3.94675 -1.679794,0 -1.891115,-0.43068 -1.333137,-2.71695 0.364698,-1.49432 0.899745,-3.69362 1.188993,-4.88732 0.436777,-1.80255 -0.03418,-2.3194 -2.778939,-3.0497 -3.287993,-0.87485 -3.31171,-0.85623 -4.651282,3.65234 -0.74054,2.49242 -1.428101,4.62645 -1.527914,4.74228 -0.09981,0.11583 -2.597108,-0.42662 -5.549545,-1.20546 -2.952435,-0.77884 -5.651665,-1.09591 -5.998288,-0.7046 -0.346623,0.39131 -0.889935,2.1051 -1.207362,3.80841 -0.526086,2.823 -0.317096,3.14895 2.362624,3.6849 1.616869,0.32337 3.166287,1.17826 3.443151,1.89976 0.276863,0.72149 -0.956256,7.28823 -2.740267,14.59275 l -3.243654,13.28094 -3.37667,0.0532 c -2.817056,0.0444 -3.629244,0.58651 -4.900696,3.27121 -1.792786,3.78551 -1.077381,4.57118 5.11501,5.61737 4.491447,0.75883 5.13702,1.95999 3.751109,6.97934 -1.142965,4.13948 -0.371159,5.27818 3.59594,5.30536 1.800904,0.0123 2.417649,-0.81456 3.340199,-4.47834 0.829591,-3.2946 1.558268,-4.40478 2.731172,-4.16106 1.696096,0.35243 1.76522,1.09084 0.639852,6.83521 -0.593722,3.03061 -0.413772,3.69046 1.113846,4.08431 3.433949,0.88533 5.279905,0.69812 5.285411,-0.53603 z"
     id="path834" />
  <path
     style="fill:#3f3d56;fill-opacity:1;stroke-width:0.987981"
     d="m 74.345553,444.87906 c -2.049204,-0.53552 -2.061631,-0.69098 -0.571302,-7.14744 1.335267,-5.78469 2.582856,-6.18899 9.462088,-3.06638 8.89876,4.03931 7.5247,11.00002 -2.128046,10.78025 -2.768575,-0.063 -5.811809,-0.31793 -6.76274,-0.56643 z"
     id="path836" />
  <path
     style="fill:#3f3d56;fill-opacity:1;stroke-width:0.987981"
     d="m 78.71593,426.08131 c -1.426584,-0.27188 -2.104424,-0.94379 -1.786897,-1.77125 0.281378,-0.73326 0.810361,-2.92575 1.175518,-4.87221 0.365156,-1.94645 1.06896,-3.78933 1.564007,-4.09529 1.620102,-1.00127 6.570478,0.65156 9.171646,3.06224 3.066173,2.84164 3.154029,3.82573 0.572056,6.4077 -1.919872,1.91987 -5.223825,2.31179 -10.69633,1.26881 z"
     id="path838" />
  <path
     style="fill:#2b4696;fill-opacity:1;stroke-width:0.987981"
     d="m 643.77284,201.94131 c -7.82046,-2.10304 -14.29798,-5.98246 -19.92714,-11.93447 -25.46021,-26.92042 -3.98668,-71.27731 33.0073,-68.18168 8.57745,0.71776 17.64124,4.85025 24.30097,11.07966 9.32365,8.72118 13.44506,19.17855 12.69116,32.20167 -1.05795,18.2755 -15.01053,33.95965 -33.26784,37.39652 -6.90966,1.30072 -10.30022,1.18738 -16.80445,-0.5617 z m 15.74034,-28.59934 c 10.2471,-8.67805 18.6546,-16.11171 18.68335,-16.51925 0.0287,-0.40755 -4.84195,-0.74099 -10.82377,-0.74099 h -10.87605 l 5.44215,-10.85133 c 2.99318,-5.96823 5.44215,-11.08103 5.44215,-11.36178 0,-1.78612 -4.11846,1.30005 -21.4028,16.03823 l -19.40761,16.54868 11.01939,0.27935 c 6.06066,0.15365 11.01938,0.49517 11.01938,0.75894 0,0.26377 -2.22295,4.90934 -4.9399,10.32349 -5.02651,10.01649 -5.78361,12.30167 -3.86364,11.66168 0.59195,-0.19732 9.46026,-7.45898 19.70735,-16.13702 z"
     id="path840" />
  <path
     style="fill:#2b4696;fill-opacity:1;stroke-width:0.987981"
     d="m 167.76737,482.91124 c -2.91025,-1.40636 -3.60237,-3.5972 -1.93858,-6.13645 0.75615,-1.15404 1.69734,-3.56668 2.09154,-5.36145 0.39419,-1.79476 1.31361,-3.49225 2.04314,-3.7722 0.72954,-0.27994 1.06979,-1.17779 0.75611,-1.99521 -0.31367,-0.81741 0.01,-6.84451 0.7193,-13.39354 l 1.2896,-11.90732 -5.96108,-5.54333 c -7.70923,-7.16897 -8.39383,-9.98343 -8.77054,-36.05659 l -0.28384,-19.64547 -2.96912,-3.07809 c -2.83841,-2.94258 -3.01622,-3.64348 -4.03916,-15.92183 -0.58852,-7.06406 -1.33891,-14.39982 -1.66753,-16.30168 l -0.59749,-3.45794 -3.71847,7.90385 c -3.16345,6.72411 -5.27957,9.44623 -14.17726,18.2373 l -10.45879,10.33346 -2.98671,-2.86145 c -1.64269,-1.5738 -2.98671,-3.33781 -2.98671,-3.92004 0,-0.58223 4.01299,-6.05658 8.91777,-12.16522 8.55938,-10.66026 9.09995,-11.6327 13.45111,-24.19707 2.49335,-7.19974 4.82594,-13.63275 5.18354,-14.29558 0.3576,-0.66283 4.19676,-3.64484 8.53145,-6.6267 l 7.88127,-5.42156 0.63457,10.57862 c 0.34902,5.81825 0.96508,21.58893 1.36904,35.04597 0.71484,23.81389 0.79025,24.47969 2.82336,24.92937 1.14889,0.25412 5.11748,1.13663 8.81908,1.96114 3.70159,0.82451 7.14718,1.49912 7.65685,1.49912 0.50967,0 0.93416,-2.11181 0.94331,-4.69291 l 0.0166,-4.69291 2.05634,3.21094 c 2.40376,3.75342 3.2179,3.88294 7.60286,1.20951 2.28206,-1.39133 3.10689,-2.51003 2.72897,-3.70123 -3.5828,-11.29287 -20.32531,-69.06899 -20.32531,-70.13986 0,-0.78727 0.55574,-1.21023 1.23498,-0.93993 13.67695,5.44282 22.0304,8.83355 22.22043,9.01946 0.13082,0.12798 1.57398,7.31322 3.20702,15.96719 2.45921,13.03206 2.96984,18.25718 2.97308,30.42239 l 0.004,14.68789 -2.46368,-0.47096 c -1.35502,-0.25903 -2.86083,0.0226 -3.34623,0.62581 -1.43234,1.78002 -2.31817,9.19718 -1.3316,11.14961 1.06096,2.09963 -4.79574,42.64898 -7.16616,49.61551 l -1.4772,4.34142 5.17549,6.12517 c 3.07878,3.64372 6.37624,6.48781 8.13943,7.02034 2.70286,0.81635 3.0206,1.37385 3.60721,6.32909 0.8536,7.21048 0.98908,19.20611 0.23901,21.16078 -0.87064,2.26886 -3.98012,1.91464 -5.79532,-0.66017 -2.11588,-3.00134 -5.61339,-14.50406 -5.00461,-16.45933 0.31717,-1.01866 -1.38671,-3.21918 -4.84446,-6.25649 l -5.33372,-4.68515 -3.03773,9.13107 c -1.67075,5.02209 -3.26356,12.19915 -3.53958,15.94903 -0.67671,9.19361 -2.46279,11.0256 -8.09555,8.30362 z m 7.6078,-62.29766 c 0.005,-1.22262 0.29606,-4.61712 0.64742,-7.54333 0.51897,-4.32212 0.37833,-5.23413 -0.74957,-4.86078 -1.34524,0.44531 -3.20949,12.18845 -2.20446,13.88608 0.91332,1.54272 2.29837,0.65284 2.30661,-1.48197 z"
     id="path842" />
  <path
     style="fill:#cd2332;fill-opacity:1;stroke-width:0.987981"
     d="m 616.00601,409.99279 v -7.90385 h 7.90385 7.90384 v 7.90385 7.90384 h -7.90384 -7.90385 z"
     id="path848" />
  <path
     style="fill:#cd2332;fill-opacity:1;stroke-width:0.174652"
     d="m 615.49686,409.76446 v -8.47062 h 8.55795 8.55794 v 8.47062 8.47062 h -8.55794 -8.55795 z m 16.41729,0.26198 v -8.03399 h -8.034 -8.03399 V 409.91 c 0,4.35466 0.0524,7.96995 0.11644,8.03399 0.064,0.064 3.67933,0.11644 8.03399,0.11644 h 7.91756 z"
     id="path850" />
  <path
     style="fill:#ff9900;fill-opacity:1;stroke-width:0.698608"
     d="m 643.5285,409.67713 v -8.38329 h 8.3833 8.38329 v 8.38329 8.3833 h -8.38329 -8.3833 z"
     id="path852" />
  <path
     style="fill:#ff9900;fill-opacity:1;stroke-width:0.087326"
     d="m 643.22286,409.80812 c 0,-7.51003 0.0154,-8.51428 0.13099,-8.51428 0.11552,0 0.13099,0.98969 0.13099,8.38329 v 8.3833 h 8.38329 c 7.3936,0 8.3833,0.0155 8.3833,0.13099 0,0.11554 -1.00425,0.13099 -8.51429,0.13099 h -8.51428 z"
     id="path854" />
  <path
     style="fill:#ff9900;fill-opacity:1;stroke-width:0.0218315"
     d="m 643.16828,411.14354 c 0,-4.81021 0.007,-7.23715 0.0218,-7.23715 0.0145,0 0.0218,2.41966 0.0218,7.21531 v 7.21531 l 6.45667,-9.1e-4 c 8.28425,-10e-4 10.39094,-0.0231 10.55282,-0.10971 0.11848,-0.0634 -0.0351,-0.10621 -0.46025,-0.12827 l -0.31752,-0.0165 0.43114,-0.003 0.43114,-0.003 0.006,-7.08978 0.006,-7.08978 0.005,7.2426 0.005,7.2426 h -8.57978 -8.57978 z"
     id="path856" />
  <path
     style="fill:#ff9900;fill-opacity:1;stroke-width:0.0218315"
     d="m 643.50654,410.9798 c 0,-3.89638 0.003,-5.49035 0.006,-3.54216 0.003,1.94819 0.003,5.13613 0,7.08432 -0.003,1.94819 -0.006,0.35422 -0.006,-3.54216 z"
     id="path858" />
  <path
     style="fill:#ff9900;fill-opacity:1;stroke-width:0.0154372"
     d=""
     id="path860" />
  <path
     style="fill:#ff9900;fill-opacity:1;stroke-width:0.0154372"
     d="m 643.48961,412.52389 c 6.7e-4,-3.0417 0.004,-5.52343 0.006,-5.51494 0.0127,0.0375 0.0189,11.04532 0.006,11.04532 -0.008,0 -0.0134,-2.26205 -0.0127,-5.53038 z"
     id="path862" />
  <path
     style="fill:#cd2332;fill-opacity:1;stroke-width:0.0154372"
     d="m 643.50902,417.94621 c 0,-0.0637 0.003,-0.0897 0.006,-0.0579 0.003,0.0318 0.003,0.0839 0,0.11578 -0.003,0.0318 -0.006,0.006 -0.006,-0.0579 z"
     id="path864" />
  <path
     style="fill:#cd2332;fill-opacity:1;stroke-width:0.0218315"
     d="m 619.53811,418.02963 c -1.64458,-0.0161 -3.27881,-0.0549 -3.47121,-0.0824 l -0.0982,-0.0141 -0.0151,-0.15282 c -0.0572,-0.5778 -0.10385,-5.25599 -0.10451,-10.48458 l -4.3e-4,-3.38934 h 0.0764 0.0764 v 6.997 6.99699 h 7.91392 7.91392 v -6.99699 c 0,-6.205 0.004,-6.997 0.0327,-6.997 0.029,0 0.0327,0.80049 0.0327,7.07341 v 7.0734 l -5.34326,-0.004 c -2.93879,-0.002 -6.0948,-0.011 -7.01336,-0.0199 z"
     id="path866" />
  <path
     style="fill:#cd2332;fill-opacity:1;stroke-width:0.0218315"
     d="m 615.49928,418.31518 v -0.0655 h 8.55791 8.55792 l 0.006,-7.17711 0.006,-7.1771 0.005,7.2426 0.005,7.2426 h -8.56886 -8.56886 z"
     id="path868" />
  <path
     style="fill:#cd2332;fill-opacity:1;stroke-width:0.0218315"
     d="m 631.83142,403.04259 -0.002,-0.96604 h -7.91392 -7.91392 v 0.906 0.90601 h -0.0764 -0.0764 v -0.93875 -0.93876 h 8.02308 8.02307 l -0.003,0.99879 c -0.002,0.54934 -0.008,0.97423 -0.0142,0.94422 l -0.0113,-0.0546 -0.0163,0.0546 c -0.009,0.03 -0.0173,-0.38015 -0.0185,-0.91147 z"
     id="path870" />
  <path
     style="fill:#cd2332;fill-opacity:1;stroke-width:0.0218315"
     d="m 632.61517,402.75332 v -1.46271 h -8.55794 c -7.59251,0 -8.55795,-0.004 -8.55795,-0.0327 0,-0.0291 0.96665,-0.0328 8.56886,-0.0328 h 8.56886 v 1.49546 c 0,0.8225 -0.005,1.49545 -0.0109,1.49545 -0.006,0 -0.0109,-0.65822 -0.0109,-1.46271 z"
     id="path872" />
</svg>
