<?xml version="1.0" encoding="utf-8"?>
<svg width="891" height="659" viewBox="0 0 891 659" fill="none" xmlns="http://www.w3.org/2000/svg">
  <path d="M538.18 587.89L343.18 585.39L343.75 580.39L353.18 497.89H524.43L537.03 580.39L537.99 586.64L538.18 587.89Z" fill="#D0D2D5"/>
  <path opacity="0.1" d="M537.99 586.64H440.68L343.18 585.39L343.75 580.39H537.03L537.99 586.64Z" fill="black"/>
  <path d="M569.43 581.64H310.68V587.89H569.43V581.64Z" fill="#D0D2D5"/>
  <path d="M817.3 16.37C817.311 14.2334 816.9 12.1156 816.092 10.1376C815.284 8.15963 814.095 6.36015 812.591 4.8419C811.088 3.32366 809.3 2.1164 807.33 1.28906C805.36 0.461721 803.247 0.0304995 801.11 0.0200195H78.5C76.3625 0.0291899 74.2478 0.459438 72.2767 1.28619C70.3056 2.11295 68.5167 3.32001 67.0123 4.83838C65.5078 6.35675 64.3173 8.15668 63.5088 10.1353C62.7002 12.114 62.2895 14.2326 62.3 16.37V454.37H817.3V16.37Z" fill="black"/>
  <path d="M61.3 431.02V482.32C61.3 486.617 63.0068 490.737 66.0449 493.775C69.083 496.813 73.2035 498.52 77.5 498.52H800.11C804.405 498.517 808.523 496.809 811.559 493.772C814.595 490.734 816.3 486.615 816.3 482.32V431.02H61.3Z" fill="#D0D2D5"/>
  <path opacity="0.1" d="M788.8 41.52H92.55V435.27H788.8V41.52Z" fill="#6C63FF"/>
  <path opacity="0.1" d="M459.43 503.52L537.22 581.64L525.29 503.52H459.43Z" fill="black"/>
  <path d="M561.4 112.56H109.6C108.164 112.56 107 113.724 107 115.16V383.96C107 385.396 108.164 386.56 109.6 386.56H561.4C562.836 386.56 564 385.396 564 383.96V115.16C564 113.724 562.836 112.56 561.4 112.56Z" fill="white"/>
  <path d="M789 41.5601H93V64.5601H789V41.5601Z" fill="white"/>
  <path d="M115.22 45.5601H96.78C96.3492 45.5601 96 45.9093 96 46.3401V58.7801C96 59.2108 96.3492 59.5601 96.78 59.5601H115.22C115.651 59.5601 116 59.2108 116 58.7801V46.3401C116 45.9093 115.651 45.5601 115.22 45.5601Z" fill="#012369"/>
  <path opacity="0.3" d="M543.42 45.5601H334.58C334.26 45.5601 334 45.8197 334 46.1401V58.9801C334 59.3004 334.26 59.5601 334.58 59.5601H543.42C543.74 59.5601 544 59.3004 544 58.9801V46.1401C544 45.8197 543.74 45.5601 543.42 45.5601Z" fill="#6C63FF"/>
  <path d="M537.77 54H537.26L537.07 53.84C537.712 53.0785 538.066 52.1158 538.07 51.12C538.064 50.3021 537.816 49.5042 537.357 48.8271C536.898 48.1501 536.249 47.6241 535.491 47.3157C534.734 47.0072 533.902 46.9301 533.1 47.094C532.299 47.2579 531.564 47.6556 530.989 48.2367C530.413 48.8179 530.022 49.5565 529.866 50.3594C529.71 51.1624 529.795 51.9935 530.111 52.7481C530.427 53.5026 530.959 54.1468 531.64 54.5992C532.322 55.0516 533.122 55.2919 533.94 55.29C534.935 55.2839 535.898 54.9302 536.66 54.29L536.85 54.45V54.97L540.05 58.17L541.05 57.17L537.77 54ZM533.93 54C533.358 54.002 532.797 53.8339 532.321 53.5171C531.844 53.2003 531.472 52.7491 531.252 52.2206C531.032 51.6921 530.974 51.1102 531.085 50.5487C531.196 49.9871 531.472 49.4713 531.876 49.0665C532.281 48.6617 532.797 48.3862 533.359 48.2751C533.92 48.1639 534.502 48.2219 535.031 48.4419C535.559 48.6619 536.01 49.0339 536.327 49.5106C536.644 49.9874 536.812 50.5476 536.81 51.12C536.813 51.4989 536.74 51.8746 536.596 52.2253C536.452 52.5759 536.24 52.8944 535.972 53.1624C535.704 53.4304 535.386 53.6424 535.035 53.7862C534.685 53.93 534.309 54.0027 533.93 54V54Z" fill="#444053"/>
  <path d="M779 59.5601C782.866 59.5601 786 56.4261 786 52.5601C786 48.6941 782.866 45.5601 779 45.5601C775.134 45.5601 772 48.6941 772 52.5601C772 56.4261 775.134 59.5601 779 59.5601Z" fill="#012369"/>
  <path d="M665.57 89.5601H605.43C604.088 89.5601 603 90.648 603 91.9901V131.13C603 132.472 604.088 133.56 605.43 133.56H665.57C666.912 133.56 668 132.472 668 131.13V91.9901C668 90.648 666.912 89.5601 665.57 89.5601Z" style="fill: rgb(238, 66, 102);"/>
  <path d="M768.39 89.5601H685.61C685.273 89.5601 685 89.8332 685 90.1701V95.9501C685 96.287 685.273 96.5601 685.61 96.5601H768.39C768.727 96.5601 769 96.287 769 95.9501V90.1701C769 89.8332 768.727 89.5601 768.39 89.5601Z" fill="white"/>
  <path d="M768.39 104.56H685.61C685.273 104.56 685 104.833 685 105.17V110.95C685 111.287 685.273 111.56 685.61 111.56H768.39C768.727 111.56 769 111.287 769 110.95V105.17C769 104.833 768.727 104.56 768.39 104.56Z" fill="white"/>
  <path d="M768.39 119.56H685.61C685.273 119.56 685 119.833 685 120.17V125.95C685 126.287 685.273 126.56 685.61 126.56H768.39C768.727 126.56 769 126.287 769 125.95V120.17C769 119.833 768.727 119.56 768.39 119.56Z" fill="white"/>
  <path d="M665.57 158.56H605.43C604.088 158.56 603 159.648 603 160.99V200.13C603 201.472 604.088 202.56 605.43 202.56H665.57C666.912 202.56 668 201.472 668 200.13V160.99C668 159.648 666.912 158.56 665.57 158.56Z" style="fill: rgb(238, 66, 102);"/>
  <path d="M768.39 158.56H685.61C685.273 158.56 685 158.833 685 159.17V164.95C685 165.287 685.273 165.56 685.61 165.56H768.39C768.727 165.56 769 165.287 769 164.95V159.17C769 158.833 768.727 158.56 768.39 158.56Z" fill="white"/>
  <path d="M768.39 173.56H685.61C685.273 173.56 685 173.833 685 174.17V179.95C685 180.287 685.273 180.56 685.61 180.56H768.39C768.727 180.56 769 180.287 769 179.95V174.17C769 173.833 768.727 173.56 768.39 173.56Z" fill="white"/>
  <path d="M768.34 188.56H685.66C685.295 188.56 685 188.856 685 189.22V194.9C685 195.265 685.295 195.56 685.66 195.56H768.34C768.705 195.56 769 195.265 769 194.9V189.22C769 188.856 768.705 188.56 768.34 188.56Z" fill="white"/>
  <path d="M665.57 227.56H605.43C604.088 227.56 603 228.648 603 229.99V269.13C603 270.472 604.088 271.56 605.43 271.56H665.57C666.912 271.56 668 270.472 668 269.13V229.99C668 228.648 666.912 227.56 665.57 227.56Z" style="fill: rgb(238, 66, 102);"/>
  <path d="M768.34 227.56H685.66C685.295 227.56 685 227.856 685 228.22V233.9C685 234.265 685.295 234.56 685.66 234.56H768.34C768.705 234.56 769 234.265 769 233.9V228.22C769 227.856 768.705 227.56 768.34 227.56Z" fill="white"/>
  <path d="M768.34 242.56H685.66C685.295 242.56 685 242.856 685 243.22V248.9C685 249.265 685.295 249.56 685.66 249.56H768.34C768.705 249.56 769 249.265 769 248.9V243.22C769 242.856 768.705 242.56 768.34 242.56Z" fill="white"/>
  <path d="M768.34 257.56H685.66C685.295 257.56 685 257.856 685 258.22V263.9C685 264.265 685.295 264.56 685.66 264.56H768.34C768.705 264.56 769 264.265 769 263.9V258.22C769 257.856 768.705 257.56 768.34 257.56Z" fill="white"/>
  <path d="M665.57 296.56H605.43C604.088 296.56 603 297.648 603 298.99V338.13C603 339.472 604.088 340.56 605.43 340.56H665.57C666.912 340.56 668 339.472 668 338.13V298.99C668 297.648 666.912 296.56 665.57 296.56Z" style="fill: rgb(238, 66, 102);"/>
  <path d="M768.34 296.56H685.66C685.295 296.56 685 296.856 685 297.22V302.9C685 303.265 685.295 303.56 685.66 303.56H768.34C768.705 303.56 769 303.265 769 302.9V297.22C769 296.856 768.705 296.56 768.34 296.56Z" fill="white"/>
  <path d="M768.34 311H685.66C685.295 311 685 311.295 685 311.66V317.34C685 317.705 685.295 318 685.66 318H768.34C768.705 318 769 317.705 769 317.34V311.66C769 311.295 768.705 311 768.34 311Z" fill="white"/>
  <path d="M768.34 326.56H685.66C685.295 326.56 685 326.856 685 327.22V332.9C685 333.265 685.295 333.56 685.66 333.56H768.34C768.705 333.56 769 333.265 769 332.9V327.22C769 326.856 768.705 326.56 768.34 326.56Z" fill="white"/>
  <path d="M665.57 365.56H605.43C604.088 365.56 603 366.648 603 367.99V407.13C603 408.472 604.088 409.56 605.43 409.56H665.57C666.912 409.56 668 408.472 668 407.13V367.99C668 366.648 666.912 365.56 665.57 365.56Z" style="fill: rgb(238, 66, 102);"/>
  <path d="M768.34 365.56H685.66C685.295 365.56 685 365.856 685 366.22V371.9C685 372.265 685.295 372.56 685.66 372.56H768.34C768.705 372.56 769 372.265 769 371.9V366.22C769 365.856 768.705 365.56 768.34 365.56Z" fill="white"/>
  <path d="M768.34 380.56H685.66C685.295 380.56 685 380.856 685 381.22V386.9C685 387.265 685.295 387.56 685.66 387.56H768.34C768.705 387.56 769 387.265 769 386.9V381.22C769 380.856 768.705 380.56 768.34 380.56Z" fill="white"/>
  <path d="M768.34 395.56H685.66C685.295 395.56 685 395.856 685 396.22V401.9C685 402.265 685.295 402.56 685.66 402.56H768.34C768.705 402.56 769 402.265 769 401.9V396.22C769 395.856 768.705 395.56 768.34 395.56Z" fill="white"/>
  <path opacity="0.1" d="M281.75 185.17H178.92V190.5H281.75V185.17Z" fill="#6C63FF"/>
  <path opacity="0.1" d="M197.96 156.99H188.06V185.17H197.96V156.99Z" fill="#6C63FF"/>
  <path opacity="0.1" d="M212.43 156.99H202.53V185.17H212.43V156.99Z" fill="#6C63FF"/>
  <path opacity="0.1" d="M226.9 156.99H217V185.17H226.9V156.99Z" fill="#6C63FF"/>
  <path opacity="0.1" d="M241.37 156.99H231.47V185.17H241.37V156.99Z" fill="#6C63FF"/>
  <path opacity="0.1" d="M255.84 156.99H245.94V185.17H255.84V156.99Z" fill="#6C63FF"/>
  <path opacity="0.1" d="M270.32 156.99H260.42V185.17H270.32V156.99Z" fill="#6C63FF"/>
  <path opacity="0.1" d="M197.96 162.32H188.06V165.37H197.96V162.32Z" fill="#6C63FF"/>
  <path opacity="0.1" d="M212.43 162.32H202.53V165.37H212.43V162.32Z" fill="#6C63FF"/>
  <path opacity="0.1" d="M226.9 162.32H217V165.37H226.9V162.32Z" fill="#6C63FF"/>
  <path opacity="0.1" d="M241.37 162.32H231.47V165.37H241.37V162.32Z" fill="#6C63FF"/>
  <path opacity="0.1" d="M255.84 162.32H245.94V165.37H255.84V162.32Z" fill="#6C63FF"/>
  <path opacity="0.1" d="M270.32 162.32H260.42V165.37H270.32V162.32Z" fill="#6C63FF"/>
  <path opacity="0.1" d="M197.96 176.03H188.06V179.08H197.96V176.03Z" fill="#6C63FF"/>
  <path opacity="0.1" d="M212.43 176.03H202.53V179.08H212.43V176.03Z" fill="#6C63FF"/>
  <path opacity="0.1" d="M226.9 176.03H217V179.08H226.9V176.03Z" fill="#6C63FF"/>
  <path opacity="0.1" d="M241.37 176.03H231.47V179.08H241.37V176.03Z" fill="#6C63FF"/>
  <path opacity="0.1" d="M255.84 176.03H245.94V179.08H255.84V176.03Z" fill="#6C63FF"/>
  <path opacity="0.1" d="M270.32 176.03H260.42V179.08H270.32V176.03Z" fill="#6C63FF"/>
  <path opacity="0.1" d="M507.2 198.88H404.37V204.21H507.2V198.88Z" fill="#6C63FF"/>
  <path opacity="0.1" d="M423.41 170.7H413.51V198.88H423.41V170.7Z" fill="#6C63FF"/>
  <path opacity="0.1" d="M437.88 170.7H427.98V198.88H437.88V170.7Z" fill="#6C63FF"/>
  <path opacity="0.1" d="M452.35 170.7H442.45V198.88H452.35V170.7Z" fill="#6C63FF"/>
  <path opacity="0.1" d="M466.83 170.7H456.93V198.88H466.83V170.7Z" fill="#6C63FF"/>
  <path opacity="0.1" d="M481.3 170.7H471.4V198.88H481.3V170.7Z" fill="#6C63FF"/>
  <path opacity="0.1" d="M495.77 170.7H485.87V198.88H495.77V170.7Z" fill="#6C63FF"/>
  <path opacity="0.1" d="M423.41 176.03H413.51V179.08H423.41V176.03Z" fill="#6C63FF"/>
  <path opacity="0.1" d="M437.88 176.03H427.98V179.08H437.88V176.03Z" fill="#6C63FF"/>
  <path opacity="0.1" d="M452.35 176.03H442.45V179.08H452.35V176.03Z" fill="#6C63FF"/>
  <path opacity="0.1" d="M466.83 176.03H456.93V179.08H466.83V176.03Z" fill="#6C63FF"/>
  <path opacity="0.1" d="M481.3 176.03H471.4V179.08H481.3V176.03Z" fill="#6C63FF"/>
  <path opacity="0.1" d="M495.77 176.03H485.87V179.08H495.77V176.03Z" fill="#6C63FF"/>
  <path opacity="0.1" d="M423.41 189.74H413.51V192.79H423.41V189.74Z" fill="#6C63FF"/>
  <path opacity="0.1" d="M437.88 189.74H427.98V192.79H437.88V189.74Z" fill="#6C63FF"/>
  <path opacity="0.1" d="M452.35 189.74H442.45V192.79H452.35V189.74Z" fill="#6C63FF"/>
  <path opacity="0.1" d="M466.83 189.74H456.93V192.79H466.83V189.74Z" fill="#6C63FF"/>
  <path opacity="0.1" d="M481.3 189.74H471.4V192.79H481.3V189.74Z" fill="#6C63FF"/>
  <path opacity="0.1" d="M495.77 189.74H485.87V192.79H495.77V189.74Z" fill="#6C63FF"/>
  <path opacity="0.1" d="M507.2 237.72H404.37V243.05H507.2V237.72Z" fill="#6C63FF"/>
  <path opacity="0.1" d="M423.41 209.54H413.51V237.72H423.41V209.54Z" fill="#6C63FF"/>
  <path opacity="0.1" d="M437.88 209.54H427.98V237.72H437.88V209.54Z" fill="#6C63FF"/>
  <path opacity="0.1" d="M452.35 209.54H442.45V237.72H452.35V209.54Z" fill="#6C63FF"/>
  <path opacity="0.1" d="M466.83 209.54H456.93V237.72H466.83V209.54Z" fill="#6C63FF"/>
  <path opacity="0.1" d="M481.3 209.54H471.4V237.72H481.3V209.54Z" fill="#6C63FF"/>
  <path opacity="0.1" d="M495.77 209.54H485.87V237.72H495.77V209.54Z" fill="#6C63FF"/>
  <path opacity="0.1" d="M423.41 214.87H413.51V217.92H423.41V214.87Z" fill="#6C63FF"/>
  <path opacity="0.1" d="M437.88 214.87H427.98V217.92H437.88V214.87Z" fill="#6C63FF"/>
  <path opacity="0.1" d="M452.35 214.87H442.45V217.92H452.35V214.87Z" fill="#6C63FF"/>
  <path opacity="0.1" d="M466.83 214.87H456.93V217.92H466.83V214.87Z" fill="#6C63FF"/>
  <path opacity="0.1" d="M481.3 214.87H471.4V217.92H481.3V214.87Z" fill="#6C63FF"/>
  <path opacity="0.1" d="M495.77 214.87H485.87V217.92H495.77V214.87Z" fill="#6C63FF"/>
  <path opacity="0.1" d="M423.41 228.58H413.51V231.63H423.41V228.58Z" fill="#6C63FF"/>
  <path opacity="0.1" d="M437.88 228.58H427.98V231.63H437.88V228.58Z" fill="#6C63FF"/>
  <path opacity="0.1" d="M452.35 228.58H442.45V231.63H452.35V228.58Z" fill="#6C63FF"/>
  <path opacity="0.1" d="M466.83 228.58H456.93V231.63H466.83V228.58Z" fill="#6C63FF"/>
  <path opacity="0.1" d="M481.3 228.58H471.4V231.63H481.3V228.58Z" fill="#6C63FF"/>
  <path opacity="0.1" d="M495.77 228.58H485.87V231.63H495.77V228.58Z" fill="#6C63FF"/>
  <path opacity="0.1" d="M242 245.44C241.233 244.457 240.531 243.425 239.9 242.35L254.71 239.92L238.71 240.04C237.175 236.699 236.338 233.079 236.248 229.404C236.159 225.728 236.819 222.072 238.19 218.66L259.64 229.78L239.83 215.22C241.673 211.986 244.164 209.169 247.148 206.944C250.132 204.719 253.543 203.136 257.168 202.292C260.793 201.449 264.554 201.364 268.213 202.043C271.872 202.722 275.352 204.15 278.433 206.238C281.514 208.325 284.13 211.027 286.117 214.174C288.104 217.321 289.419 220.845 289.98 224.525C290.54 228.204 290.334 231.96 289.373 235.555C288.413 239.151 286.72 242.51 284.4 245.42C285.605 246.941 286.638 248.591 287.48 250.34L268.26 260.34L288.75 253.47C290.183 257.718 290.536 262.256 289.777 266.675C289.017 271.094 287.169 275.254 284.4 278.78C287.54 282.761 289.495 287.545 290.042 292.586C290.589 297.626 289.707 302.719 287.494 307.28C285.282 311.842 281.83 315.689 277.534 318.381C273.237 321.072 268.27 322.5 263.2 322.5C258.13 322.5 253.162 321.072 248.866 318.381C244.569 315.689 241.118 311.842 238.906 307.28C236.693 302.719 235.81 297.626 236.358 292.586C236.905 287.545 238.86 282.761 242 278.78C238.26 274.022 236.228 268.146 236.228 262.095C236.228 256.044 238.26 250.168 242 245.41V245.44Z" fill="#6C63FF"/>
  <path opacity="0.1" d="M290.18 262.12C290.181 268.165 288.145 274.034 284.4 278.78C287.54 282.761 289.495 287.545 290.042 292.586C290.589 297.626 289.707 302.719 287.494 307.281C285.282 311.842 281.83 315.689 277.534 318.381C273.237 321.073 268.27 322.5 263.2 322.5C258.13 322.5 253.162 321.073 248.866 318.381C244.569 315.689 241.118 311.842 238.906 307.281C236.693 302.719 235.81 297.626 236.358 292.586C236.905 287.545 238.86 282.761 242 278.78C238.37 274.21 290.18 259.09 290.18 262.12Z" fill="#6C63FF"/>
  <path opacity="0.2" d="M267.52 329.66C267.567 329.731 267.61 329.804 267.65 329.88H258.49C258.54 329.81 258.57 329.73 258.62 329.66C257.831 328.289 257.424 326.732 257.44 325.15C257.436 324.066 257.622 322.99 257.99 321.97V321.97C258.5 322.05 259.13 322.14 259.86 322.22C261.985 322.433 264.125 322.433 266.25 322.22C266.863 322.16 267.493 322.08 268.14 321.98C268.135 321.996 268.135 322.014 268.14 322.03C268.504 323.033 268.687 324.093 268.68 325.16C268.7 326.736 268.3 328.29 267.52 329.66Z" fill="#3F3D56"/>
  <path opacity="0.1" d="M234.6 329.88H183.6C183.49 329.59 183.39 329.28 183.3 328.98C181.503 323.202 181.711 316.986 183.89 311.34C178.911 307.898 175.233 302.883 173.447 297.099C171.661 291.316 171.87 285.1 174.04 279.45C173.015 278.744 172.042 277.966 171.13 277.12L184.55 270.43L169.29 275.27C166.836 272.532 164.967 269.322 163.798 265.837C162.629 262.351 162.184 258.664 162.49 255L186.3 259.3L163.08 251.23C163.881 247.591 165.426 244.158 167.619 241.145C169.812 238.133 172.604 235.607 175.821 233.726C179.037 231.846 182.608 230.651 186.309 230.218C190.009 229.785 193.759 230.122 197.323 231.209C200.887 232.295 204.188 234.108 207.017 236.532C209.846 238.957 212.143 241.94 213.763 245.295C215.383 248.651 216.291 252.305 216.43 256.028C216.569 259.752 215.935 263.463 214.57 266.93C216.18 268.051 217.666 269.342 219 270.78L203.58 285.99L221.13 273.37C223.76 277.009 225.441 281.247 226.021 285.699C226.6 290.152 226.06 294.679 224.45 298.87C229.293 302.224 232.906 307.07 234.739 312.668C236.572 318.267 236.523 324.312 234.6 329.88V329.88Z" fill="#6C63FF"/>
  <path opacity="0.1" d="M234.6 329.88H183.6C183.49 329.59 183.39 329.28 183.3 328.98C181.503 323.202 181.711 316.986 183.89 311.34C179.09 308.02 224.12 278.27 225.01 281.17C226.807 286.952 226.599 293.171 224.42 298.82C229.279 302.172 232.905 307.025 234.744 312.635C236.582 318.244 236.532 324.302 234.6 329.88V329.88Z" fill="#6C63FF"/>
  <path opacity="0.1" d="M465.35 293.34C462.252 298.538 457.493 302.541 451.84 304.7C452.082 306.624 452.119 308.568 451.95 310.5L430.34 309.2L451.45 313.78C450.829 316.657 449.741 319.414 448.23 321.94C446.39 325.034 443.94 327.722 441.03 329.84H411.61V330.61H381.61C381.67 330.35 381.73 330.1 381.8 329.84C382.894 325.703 384.957 321.885 387.817 318.701C390.677 315.518 394.253 313.06 398.25 311.53C397.482 305.527 398.754 299.44 401.86 294.247C404.967 289.053 409.728 285.053 415.38 282.89C415.222 281.653 415.148 280.407 415.16 279.16L429.11 284.67L415.31 276.56C415.717 272.905 416.866 269.372 418.687 266.177C420.508 262.982 422.962 260.193 425.9 257.98L438.61 278.56L429.08 255.9C434.271 253.028 440.264 251.945 446.132 252.819C452 253.694 457.417 256.477 461.545 260.738C465.673 264.999 468.282 270.502 468.97 276.394C469.658 282.287 468.386 288.243 465.35 293.34V293.34Z" fill="#6C63FF"/>
  <path opacity="0.1" d="M448.23 321.98C446.39 325.074 443.94 327.762 441.03 329.88H411.61V330.65H381.61C381.67 330.39 381.73 330.14 381.8 329.88C382.894 325.743 384.957 321.925 387.817 318.741C390.677 315.558 394.253 313.1 398.25 311.57C398 309.57 403.81 309.87 411.56 311.17C426.75 313.72 449.26 320.26 448.23 321.98Z" fill="#6C63FF"/>
  <path d="M320.71 249.97C320.71 249.97 324.41 269.97 316.15 276.5C307.89 283.03 323.15 322.17 348.33 317.6C373.51 313.03 383.77 280.2 383.77 280.2C383.77 280.2 358.55 274.98 367.9 248.45L320.71 249.97Z" fill="#EE8E9E"/>
  <path opacity="0.1" d="M320.71 249.97C320.71 249.97 324.41 269.97 316.15 276.5C307.89 283.03 323.15 322.17 348.33 317.6C373.51 313.03 383.77 280.2 383.77 280.2C383.77 280.2 358.55 274.98 367.9 248.45L320.71 249.97Z" fill="black"/>
  <path d="M343 264.65C366.058 264.65 384.75 245.958 384.75 222.9C384.75 199.842 366.058 181.15 343 181.15C319.942 181.15 301.25 199.842 301.25 222.9C301.25 245.958 319.942 264.65 343 264.65Z" fill="#EE8E9E"/>
  <path d="M411.61 302.27V330.65H273.75V303.56C273.75 300.125 274.762 296.766 276.659 293.902C278.557 291.039 281.256 288.798 284.42 287.46L288.37 285.78C298.37 281.52 310.52 276.23 314.49 274.03C314.925 273.813 315.334 273.548 315.71 273.24C317.88 271.07 317.45 273.89 317.45 273.89C317.45 273.89 317.39 274.43 317.35 275.36C317.11 281.75 318.03 306.86 347.46 304.77C376.17 302.77 377.46 283.35 377.17 277.64C377.154 277.111 377.11 276.584 377.04 276.06C379.026 276.532 380.969 277.168 382.85 277.96C388.85 280.18 397.71 283.74 400.08 285.42C400.82 285.94 401.72 286.48 402.7 287.03C403.812 287.65 404.851 288.391 405.8 289.24C407.629 290.882 409.091 292.891 410.092 295.136C411.093 297.381 411.61 299.812 411.61 302.27Z" fill="#012369"/>
  <path opacity="0.1" d="M382.85 277.96C380.42 289.22 372.79 310.31 345.29 310.86C315.99 311.44 314.29 282.3 314.48 274.03C314.921 273.819 315.334 273.553 315.71 273.24C317.89 271.07 317.45 273.89 317.45 273.89C317.45 273.89 313.76 307.16 347.45 304.77C381.14 302.38 377 276.07 377 276.07C377 275.91 379.51 276.78 382.85 277.96Z" fill="black"/>
  <path d="M293.58 224.99C294.966 224.643 296.424 224.72 297.767 225.21C299.109 225.701 300.273 226.582 301.11 227.74C302.63 229.87 302.86 232.44 303.05 234.9C304.86 235.28 305.88 233.23 306.05 231.68C306.72 225.37 306.77 218.94 308.89 212.84C311.01 206.74 315.64 200.84 322.75 198.51C325.179 197.668 327.775 197.421 330.32 197.79C331.83 198.04 333.25 198.57 334.75 198.79C339.95 199.65 345.6 197.19 350.47 198.9C353.53 199.98 355.47 202.47 356.9 204.96C357.522 206.303 358.367 207.53 359.4 208.59C361.47 210.45 364.71 210.93 367.68 211.51C370.65 212.09 373.89 213.1 375.16 215.39C376.3 217.46 375.46 219.85 375.08 222.09C374.492 225.638 375.086 229.282 376.77 232.46C377.32 233.46 378.44 234.67 379.77 234.34C380.365 234.139 380.869 233.731 381.19 233.19C384.6 228.41 384.51 222.19 388.79 217.88C390.22 216.44 392.07 215.32 393.46 213.88C394.512 212.813 395.283 211.502 395.706 210.064C396.128 208.626 396.188 207.106 395.88 205.64C395.11 202.34 392.47 199.64 390.34 196.74C387.574 193.066 385.559 188.883 384.41 184.43C384.209 183.912 384.209 183.338 384.41 182.82C384.814 182.295 385.334 181.87 385.93 181.58C387.089 180.803 387.925 179.63 388.283 178.281C388.64 176.932 388.493 175.499 387.87 174.25C386.66 171.78 384 169.9 381 168.78C377.957 167.78 374.816 167.11 371.63 166.78C369.53 167.08 367.07 165.89 366.42 164.21C366.13 163.46 366.13 162.65 365.84 161.9C365.446 161.147 364.878 160.499 364.182 160.012C363.485 159.525 362.682 159.212 361.84 159.1C360.051 158.811 358.22 158.941 356.49 159.48C354.49 160.04 352.22 160.88 350.49 159.9C349.58 159.39 349.08 158.46 348.1 158.04C346.1 157.2 344.04 158.9 342.61 160.3C341.232 161.769 339.54 162.907 337.66 163.63C336.667 164.008 335.605 164.167 334.545 164.096C333.485 164.026 332.453 163.727 331.52 163.22C330.15 162.35 329.46 160.95 328.37 159.84C326.311 158.004 323.677 156.943 320.92 156.84C318.085 156.69 315.245 157 312.51 157.76C307.29 159.032 302.304 161.125 297.74 163.96C295.444 165.222 293.496 167.032 292.07 169.23C291.226 170.915 290.791 172.775 290.8 174.66C290.58 180.57 292.54 186.79 297.65 190.93C294.53 192.23 293.48 195.42 292.75 198.25C291.58 202.77 290.41 207.36 290.85 211.96C291.07 214.34 291.72 216.72 291.37 219.09C291.089 220.206 290.935 221.35 290.91 222.5C291.057 223.133 291.389 223.709 291.865 224.152C292.341 224.596 292.938 224.887 293.58 224.99V224.99Z" fill="#454B69"/>
  <g opacity="0.1">
    <path opacity="0.1" d="M395.23 203.78C394.781 204.76 394.173 205.659 393.43 206.44C392.04 207.9 390.19 209.03 388.76 210.44C384.48 214.72 384.57 220.98 381.16 225.76C380.842 226.301 380.337 226.706 379.74 226.9C378.44 227.24 377.32 226.06 376.74 225.02C376.079 223.754 375.579 222.41 375.25 221.02C375.18 221.37 375.11 221.72 375.05 222.02C374.462 225.568 375.056 229.212 376.74 232.39C377.29 233.39 378.41 234.6 379.74 234.27C380.336 234.069 380.839 233.661 381.16 233.12C384.57 228.34 384.48 222.12 388.76 217.81C390.19 216.37 392.04 215.25 393.43 213.81C394.482 212.743 395.254 211.432 395.676 209.994C396.098 208.556 396.158 207.037 395.85 205.57C395.696 204.956 395.489 204.357 395.23 203.78V203.78Z" fill="black"/>
    <path opacity="0.1" d="M385.91 174.18C385.312 174.467 384.791 174.892 384.39 175.42C384.19 175.935 384.19 176.505 384.39 177.02C384.784 178.574 385.289 180.098 385.9 181.58V181.58C387.059 180.803 387.895 179.63 388.252 178.281C388.609 176.932 388.463 175.499 387.84 174.25C387.645 173.838 387.411 173.446 387.14 173.08C386.785 173.504 386.37 173.874 385.91 174.18Z" fill="black"/>
    <path opacity="0.1" d="M297.71 183.45C294.167 180.531 291.833 176.401 291.16 171.86C290.98 172.756 290.88 173.666 290.86 174.58C290.63 178.946 291.781 183.274 294.15 186.95C294.866 185.385 296.133 184.139 297.71 183.45V183.45Z" fill="black"/>
    <path opacity="0.1" d="M375.08 214.72C375.46 212.47 376.3 210.08 375.16 208.02C373.89 205.72 370.65 204.72 367.68 204.14C364.71 203.56 361.47 203.07 359.4 201.22C358.367 200.16 357.522 198.933 356.9 197.59C355.49 195.1 353.53 192.59 350.47 191.53C345.6 189.82 339.95 192.27 334.75 191.42C333.25 191.17 331.83 190.65 330.32 190.42C327.775 190.048 325.179 190.295 322.75 191.14C315.64 193.48 311.01 199.38 308.89 205.47C306.77 211.56 306.72 217.99 306.05 224.31C305.88 225.85 304.86 227.91 303.05 227.53C302.86 225.06 302.63 222.53 301.11 220.36C300.272 219.203 299.107 218.324 297.765 217.836C296.423 217.348 294.965 217.272 293.58 217.62C292.74 217.432 291.993 216.954 291.47 216.27C291.58 217.187 291.58 218.113 291.47 219.03C291.189 220.146 291.035 221.29 291.01 222.44C291.139 223.08 291.456 223.667 291.921 224.125C292.387 224.583 292.978 224.891 293.62 225.01C295.006 224.663 296.464 224.74 297.807 225.23C299.149 225.721 300.313 226.602 301.15 227.76C302.67 229.89 302.9 232.46 303.09 234.92C304.9 235.3 305.92 233.25 306.09 231.7C306.76 225.39 306.81 218.96 308.93 212.86C311.05 206.76 315.68 200.86 322.79 198.53C325.219 197.688 327.815 197.441 330.36 197.81C331.87 198.06 333.29 198.59 334.79 198.81C339.99 199.67 345.64 197.21 350.51 198.92C353.57 200 355.51 202.49 356.94 204.98C357.562 206.323 358.407 207.55 359.44 208.61C361.51 210.47 364.75 210.95 367.72 211.53C370.69 212.11 373.72 213.05 375.05 215.17C375 215.02 375.05 214.87 375.08 214.72Z" fill="black"/>
    <path opacity="0.1" d="M291.43 211.61C291.595 209.747 291.483 207.87 291.1 206.04C290.807 207.972 290.743 209.933 290.91 211.88C290.91 212.38 291.02 212.88 291.09 213.37C291.2 212.78 291.35 212.2 291.43 211.61Z" fill="black"/>
  </g>
  <path d="M242.49 371V352.95C242.49 352.815 242.544 352.685 242.639 352.589C242.735 352.494 242.865 352.44 243 352.44H245.05C245.185 352.44 245.315 352.494 245.411 352.589C245.506 352.685 245.56 352.815 245.56 352.95V360.46L253.88 352.75C254.076 352.587 254.313 352.482 254.565 352.447C254.818 352.413 255.075 352.45 255.307 352.554C255.54 352.658 255.738 352.825 255.88 353.037C256.022 353.248 256.102 353.495 256.11 353.75V370.1C256.102 370.355 256.022 370.602 255.88 370.813C255.738 371.025 255.54 371.192 255.307 371.296C255.075 371.4 254.818 371.437 254.565 371.403C254.313 371.368 254.076 371.263 253.88 371.1L245.56 363.44V370.91C245.56 371.045 245.506 371.175 245.411 371.271C245.315 371.366 245.185 371.42 245.05 371.42H243C242.879 371.422 242.761 371.381 242.668 371.304C242.574 371.227 242.511 371.119 242.49 371Z" fill="#444053"/>
  <path d="M443.52 352.95V371C443.52 371.068 443.506 371.135 443.48 371.197C443.454 371.26 443.415 371.317 443.367 371.364C443.319 371.412 443.261 371.449 443.198 371.474C443.135 371.499 443.068 371.511 443 371.51H441C440.865 371.51 440.735 371.456 440.639 371.361C440.544 371.265 440.49 371.135 440.49 371V363.49L432.17 371.19C431.973 371.352 431.735 371.456 431.483 371.49C431.23 371.524 430.973 371.488 430.74 371.384C430.508 371.28 430.308 371.113 430.165 370.902C430.022 370.691 429.941 370.445 429.93 370.19V353.78C429.941 353.525 430.022 353.279 430.165 353.068C430.308 352.857 430.508 352.69 430.74 352.586C430.973 352.482 431.23 352.445 431.483 352.48C431.735 352.514 431.973 352.618 432.17 352.78L440.49 360.44V352.98C440.49 352.845 440.544 352.715 440.639 352.619C440.735 352.524 440.865 352.47 441 352.47H443C443.132 352.467 443.26 352.516 443.357 352.605C443.454 352.695 443.512 352.818 443.52 352.95V352.95Z" fill="#444053"/>
  <path d="M339.61 371.78H335.54C335.01 371.78 334.501 371.569 334.126 371.194C333.751 370.819 333.54 370.31 333.54 369.78V354.84C333.54 354.31 333.751 353.801 334.126 353.426C334.501 353.051 335.01 352.84 335.54 352.84H339.61C340.14 352.84 340.649 353.051 341.024 353.426C341.399 353.801 341.61 354.31 341.61 354.84V369.78C341.61 370.31 341.399 370.819 341.024 371.194C340.649 371.569 340.14 371.78 339.61 371.78ZM352.51 369.78V354.84C352.51 354.31 352.299 353.801 351.924 353.426C351.549 353.051 351.04 352.84 350.51 352.84H346.4C345.87 352.84 345.361 353.051 344.986 353.426C344.611 353.801 344.4 354.31 344.4 354.84V369.78C344.4 370.31 344.611 370.819 344.986 371.194C345.361 371.569 345.87 371.78 346.4 371.78H350.47C350.736 371.785 351 371.737 351.248 371.639C351.495 371.541 351.72 371.395 351.91 371.208C352.1 371.022 352.251 370.8 352.354 370.555C352.457 370.309 352.51 370.046 352.51 369.78V369.78Z" fill="#444053"/>
  <path opacity="0.6" d="M463 328.62H223V331.29H463V328.62Z" fill="#444053"/>
  <path d="M297.11 336.28C300.606 336.28 303.44 333.446 303.44 329.95C303.44 326.454 300.606 323.62 297.11 323.62C293.614 323.62 290.78 326.454 290.78 329.95C290.78 333.446 293.614 336.28 297.11 336.28Z" fill="#444053"/>
  <path d="M297.11 328.62H223V331.29H297.11V328.62Z" fill="#444053"/>
  <path d="M831.08 629.98C863.924 629.98 890.55 624.858 890.55 618.54C890.55 612.222 863.924 607.1 831.08 607.1C798.236 607.1 771.61 612.222 771.61 618.54C771.61 624.858 798.236 629.98 831.08 629.98Z" fill="#11941E"/>
  <path d="M830.09 622.74C833.912 622.74 837.01 618.684 837.01 613.68C837.01 608.676 833.912 604.62 830.09 604.62C826.268 604.62 823.17 608.676 823.17 613.68C823.17 618.684 826.268 622.74 830.09 622.74Z" fill="#3F3D56"/>
  <path d="M830.09 611.66C833.912 611.66 837.01 607.604 837.01 602.6C837.01 597.596 833.912 593.54 830.09 593.54C826.268 593.54 823.17 597.596 823.17 602.6C823.17 607.604 826.268 611.66 830.09 611.66Z" fill="#3F3D56"/>
  <path d="M830.09 600.59C833.912 600.59 837.01 596.534 837.01 591.53C837.01 586.526 833.912 582.47 830.09 582.47C826.268 582.47 823.17 586.526 823.17 591.53C823.17 596.534 826.268 600.59 830.09 600.59Z" fill="#3F3D56"/>
  <path d="M830.09 589.51C833.912 589.51 837.01 585.454 837.01 580.45C837.01 575.446 833.912 571.39 830.09 571.39C826.268 571.39 823.17 575.446 823.17 580.45C823.17 585.454 826.268 589.51 830.09 589.51Z" fill="#3F3D56"/>
  <path d="M830.09 578.43C833.912 578.43 837.01 574.374 837.01 569.37C837.01 564.366 833.912 560.31 830.09 560.31C826.268 560.31 823.17 564.366 823.17 569.37C823.17 574.374 826.268 578.43 830.09 578.43Z" fill="#3F3D56"/>
  <path d="M830.09 567.35C833.912 567.35 837.01 563.294 837.01 558.29C837.01 553.286 833.912 549.23 830.09 549.23C826.268 549.23 823.17 553.286 823.17 558.29C823.17 563.294 826.268 567.35 830.09 567.35Z" fill="#3F3D56"/>
  <path d="M830.09 556.27C833.912 556.27 837.01 552.214 837.01 547.21C837.01 542.206 833.912 538.15 830.09 538.15C826.268 538.15 823.17 542.206 823.17 547.21C823.17 552.214 826.268 556.27 830.09 556.27Z" fill="#3F3D56"/>
  <path d="M856 471.41C856.944 470.202 857.806 468.933 858.58 467.61L840.38 464.61L860.06 464.76C861.944 460.652 862.972 456.203 863.08 451.685C863.189 447.167 862.375 442.674 860.69 438.48L834.31 452.18L858.65 434.29C856.37 430.347 853.302 426.917 849.637 424.211C845.973 421.506 841.791 419.585 837.351 418.567C832.912 417.549 828.31 417.456 823.833 418.294C819.357 419.132 815.1 420.883 811.33 423.438C807.559 425.993 804.355 429.297 801.918 433.144C799.48 436.992 797.861 441.3 797.161 445.801C796.461 450.301 796.695 454.898 797.85 459.304C799.004 463.71 801.053 467.831 803.87 471.41C802.403 473.272 801.136 475.283 800.09 477.41L823.71 489.68L798.53 481.23C796.762 486.455 796.325 492.039 797.257 497.476C798.189 502.913 800.462 508.032 803.87 512.37C800.025 517.262 797.633 523.137 796.969 529.323C796.305 535.51 797.395 541.758 800.114 547.355C802.834 552.951 807.073 557.67 812.347 560.971C817.621 564.272 823.718 566.022 829.94 566.022C836.162 566.022 842.259 564.272 847.533 560.971C852.807 557.67 857.046 552.951 859.765 547.355C862.485 541.758 863.575 535.51 862.911 529.323C862.246 523.137 859.855 517.262 856.01 512.37C860.603 506.524 863.1 499.305 863.1 491.87C863.1 484.435 860.603 477.216 856.01 471.37L856 471.41Z" fill="#11941E"/>
  <path opacity="0.1" d="M796.78 491.91C796.766 499.347 799.264 506.571 803.87 512.41C800.025 517.302 797.634 523.177 796.969 529.363C796.305 535.55 797.395 541.798 800.115 547.395C802.834 552.991 807.073 557.71 812.347 561.011C817.621 564.312 823.718 566.063 829.94 566.063C836.162 566.063 842.259 564.312 847.533 561.011C852.807 557.71 857.046 552.991 859.766 547.395C862.485 541.798 863.575 535.55 862.911 529.363C862.247 523.177 859.855 517.302 856.01 512.41C860.45 506.78 796.78 488.19 796.78 491.91Z" fill="black"/>
  <path opacity="0.1" d="M99 658.56C153.676 658.56 198 649.158 198 637.56C198 625.962 153.676 616.56 99 616.56C44.3238 616.56 0 625.962 0 637.56C0 649.158 44.3238 658.56 99 658.56Z" fill="#6C63FF"/>
  <path d="M132.15 635.12C130.15 634.39 128.01 634.51 125.92 634.28C121.58 633.778 117.54 631.818 114.46 628.72C112.479 626.717 110.922 624.337 109.88 621.72C110.54 621.96 111.2 622.21 111.88 622.48C109.88 617.81 111.98 612.57 113.82 607.85C116.94 599.85 119.89 591.807 122.67 583.72C129.67 563.23 135.67 541.92 135.54 520.12C135.54 512.24 134.09 504.79 133.81 496.92C133.6 491.08 134.5 485.25 134.46 479.4C134.46 478.58 134.46 477.77 134.4 476.95C136.189 475.384 137.594 473.428 138.508 471.233C139.422 469.038 139.819 466.663 139.67 464.29C139.568 463.054 139.391 461.825 139.14 460.61C138.786 458.5 138.319 456.41 137.74 454.35C137.08 452.18 136.18 450.1 135.41 447.98C133.92 443.87 132.91 439.59 131.64 435.41C132.111 435.458 132.57 435.583 133 435.78C132.68 435.404 132.46 434.954 132.36 434.47C131.613 431.809 131.21 429.063 131.16 426.3L132.01 425.92C132.393 423.222 132.254 420.475 131.6 417.83C132.08 413.54 132.83 409.22 133.29 404.95C133.46 403.35 133.39 401.34 131.92 400.95C131.62 398.66 131.5 396.34 131.38 394.03C130.96 385.97 130.543 377.913 130.13 369.86C129.71 361.77 129.29 353.69 129.13 345.59C129.02 340.45 128.96 335.13 127.74 330.21C127.951 327.853 127.71 325.477 127.03 323.21C125.17 317.32 119.39 312.65 113.53 312.98C111.782 310.479 109.621 308.295 107.14 306.52C108.31 303.9 109.71 301.2 110.86 299.08C120.24 296.03 127.1 286.78 127.1 275.78C127.114 271.753 126.171 267.781 124.35 264.19C124.522 263.749 124.669 263.298 124.79 262.84C125.292 260.68 125.135 258.42 124.34 256.35C124.059 255.555 123.724 254.78 123.34 254.03C123.08 253.53 122.8 253.03 122.51 252.55L122 251.78C121.69 251.31 121.37 250.86 121 250.42C120.29 249.466 119.529 248.552 118.72 247.68C117.724 246.602 116.626 245.624 115.44 244.76C113.832 243.565 111.993 242.717 110.04 242.27C108.911 242.047 107.761 241.943 106.61 241.96C105.92 241.96 105.22 241.96 104.53 242.02C103.13 242.1 101.74 242.2 100.35 242.19C99.89 242.19 99.42 242.19 98.96 242.12C96.5131 241.794 94.0933 241.289 91.72 240.61L90.52 240.36C90.11 240.28 89.71 240.21 89.3 240.16C88.203 240.013 87.0967 239.946 85.99 239.96H84.88C83.7714 240.013 82.6664 240.127 81.57 240.3L80.47 240.47C77.6923 240.905 74.9851 241.709 72.42 242.86C72.09 243.01 71.75 243.18 71.42 243.36L71.22 243.47C70.95 243.61 70.68 243.76 70.42 243.92L70.27 244.01L69.42 244.55L69.35 244.6C61.41 249.94 56.72 260.06 55.53 270.1C54.2 281.37 56.53 292.73 58.86 303.82L60.96 313.82C61.05 314.27 61.15 314.71 61.24 315.16C58.2871 317.583 56.016 320.733 54.65 324.3C52.65 329.3 52.6 334.71 52.76 340.13C52.76 341.23 52.82 342.33 52.93 343.43C52.68 345.51 52.46 347.6 52.32 349.7C51.69 359.4 52.87 369.15 52.56 378.87C52.32 386.36 51.19 393.87 51.74 401.31C52.22 407.91 53.99 414.31 55.74 420.68L58.26 429.76C58.3417 430.23 58.561 430.665 58.89 431.01C59.3038 431.288 59.8102 431.392 60.3 431.3C58.6607 435.024 57.2906 438.86 56.2 442.78C55.4466 445.181 54.9504 447.654 54.72 450.16C54.39 454.74 55.45 459.29 56.51 463.74C58.11 470.407 59.7034 477.1 61.29 483.82C62.41 488.52 63.5267 493.217 64.64 497.91C66.84 507.17 69.05 516.49 69.46 526.02C69.6886 530.806 69.353 535.602 68.46 540.31C65.575 554.408 65.1555 568.899 67.22 583.14C68.8889 595.155 71.5957 607.002 75.31 618.55C76.12 618.12 76.94 617.72 77.78 617.35L77.43 618C76.2767 620 75.21 622.05 74.23 624.15C73.5694 625.515 72.9982 626.921 72.52 628.36C71.24 632.36 71.04 636.62 70.86 640.83C70.7684 641.639 70.8398 642.459 71.07 643.24C71.62 644.75 73.2 645.52 74.67 645.94C78.99 647.17 83.48 646.73 87.97 646.15C87.9908 646.249 88.021 646.346 88.06 646.44C88.61 647.95 90.18 648.72 91.66 649.14C97.84 650.9 104.36 649.24 110.73 648.64C117.1 648.04 123.36 648.48 129.49 647.01C130.404 646.815 131.281 646.477 132.09 646.01C133.666 644.907 134.822 643.304 135.37 641.46C135.562 640.982 135.69 640.481 135.75 639.97C136 637.78 134.13 635.85 132.15 635.12ZM111 542.51C110.655 544.853 109.982 547.135 109 549.29C104.19 559.519 100.74 570.334 98.74 581.46C97.4276 588.809 96.6688 596.247 96.47 603.71C96.37 609.21 96.58 614.97 94.29 619.91L95.12 619.78C94.86 620.26 94.61 620.78 94.37 621.16L94.25 621.38C92.865 619.022 91.9387 616.423 91.52 613.72C91.52 613.63 91.07 613.56 90.38 613.52C87.5531 597.724 86.5732 581.652 87.46 565.63C87.4735 563.686 87.7425 561.753 88.26 559.88C88.77 558.27 89.63 556.8 90.26 555.24C91.259 552.619 91.9308 549.885 92.26 547.1C93.3492 539.981 93.771 532.777 93.52 525.58C93.28 518.79 94.85 512.04 96.19 505.28C96.83 502.07 97.42 498.85 97.74 495.63L97.8 494.98C103.75 504.795 107.908 515.59 110.08 526.86C111.288 531.984 111.599 537.279 111 542.51V542.51ZM68.2 397.99L68.52 398.27C69.4866 399.12 70.3767 400.054 71.18 401.06C71.5797 401.498 71.8679 402.027 72.02 402.6C72.32 404.06 71.11 405.3 70.12 406.37C69.6898 406.834 69.2859 407.321 68.91 407.83C68.6967 404.55 68.47 401.27 68.23 397.99H68.2Z" fill="url(#paint0_linear)"/>
  <path d="M54.36 335.31L53.2601 343.8C52.8901 346.68 52.5201 349.55 52.3201 352.44C51.6501 362.06 52.8901 371.72 52.5701 381.36C52.3101 388.78 51.1301 396.19 51.7001 403.6C52.2101 410.14 54.0701 416.5 55.9301 422.8L58.5701 431.8C58.6603 432.27 58.8903 432.703 59.2301 433.04C59.7388 433.341 60.3429 433.438 60.9201 433.31L72.6401 432.25C71.8901 428.81 71.0601 425.25 70.6401 421.72C70.3201 418.96 70.1301 416.18 69.9301 413.4C69.3101 404.74 68.6001 396.08 67.9301 387.4L66.6801 372.2C66.1501 365.6 65.6001 358.97 63.9401 352.56C62.2744 346.085 58.9759 340.146 54.36 335.31Z" fill="#012369"/>
  <path opacity="0.1" d="M55.8137 338L54.7137 346.49C54.3437 349.37 53.9737 352.24 53.7737 355.13C53.1037 364.75 54.3437 374.41 54.0237 384.05C53.7637 391.47 52.5837 398.88 53.1537 406.29C53.6637 412.83 55.5237 419.19 57.3837 425.49L60.0237 434.49C60.1139 434.96 60.3439 435.392 60.6837 435.73C61.1924 436.031 61.7965 436.128 62.3737 436L74.0937 434.94C73.3437 431.5 72.5137 427.94 72.0937 424.41C71.7737 421.65 71.5837 418.87 71.3837 416.09C70.7637 407.43 70.0537 398.77 69.3837 390.09L68.1337 374.89C67.6037 368.29 67.0537 361.66 65.3937 355.25C63.728 348.775 60.4296 342.836 55.8137 338Z" fill="#012369"/>
  <path d="M75.24 624.33C74.552 625.684 73.9508 627.08 73.44 628.51C72.1 632.46 71.9 636.7 71.7 640.87C71.6117 641.673 71.6865 642.486 71.92 643.26C72.5 644.76 74.16 645.52 75.71 645.93C82.2 647.68 89.04 646.04 95.71 645.44C102.38 644.84 108.97 645.28 115.41 643.83C116.361 643.646 117.281 643.326 118.14 642.88C119.771 641.819 120.988 640.23 121.59 638.38C121.784 637.906 121.915 637.408 121.98 636.9C122.19 634.7 120.28 632.8 118.2 632.08C116.12 631.36 113.85 631.47 111.66 631.25C107.15 630.789 102.917 628.852 99.6195 625.74C96.3217 622.629 94.1426 618.516 93.42 614.04C93.34 613.56 82.58 613.85 81.42 614.47C80.1 615.2 79.3 617.01 78.55 618.24C77.37 620.22 76.2667 622.25 75.24 624.33Z" fill="#A26565"/>
  <path opacity="0.1" d="M75.24 624.33C74.552 625.684 73.9508 627.08 73.44 628.51C72.1 632.46 71.9 636.7 71.7 640.87C71.6117 641.673 71.6865 642.486 71.92 643.26C72.5 644.76 74.16 645.52 75.71 645.93C82.2 647.68 89.04 646.04 95.71 645.44C102.38 644.84 108.97 645.28 115.41 643.83C116.361 643.646 117.281 643.326 118.14 642.88C119.771 641.819 120.988 640.23 121.59 638.38C121.784 637.906 121.915 637.408 121.98 636.9C122.19 634.7 120.28 632.8 118.2 632.08C116.12 631.36 113.85 631.47 111.66 631.25C107.15 630.789 102.917 628.852 99.6195 625.74C96.3217 622.629 94.1426 618.516 93.42 614.04C93.34 613.56 82.58 613.85 81.42 614.47C80.1 615.2 79.3 617.01 78.55 618.24C77.37 620.22 76.2667 622.25 75.24 624.33Z" fill="black"/>
  <path d="M93.0901 627.51C92.3978 628.858 91.7965 630.251 91.2901 631.68C89.9401 635.68 89.7401 639.87 89.5501 644.04C89.4569 644.843 89.5318 645.657 89.7701 646.43C90.3401 647.93 92.0001 648.69 93.5501 649.11C100.04 650.85 106.89 649.21 113.55 648.61C120.21 648.01 126.82 648.45 133.25 647C134.206 646.807 135.126 646.47 135.98 646C137.613 644.941 138.831 643.352 139.43 641.5C139.624 641.026 139.755 640.528 139.82 640.02C140.03 637.83 138.12 635.92 136.04 635.2C133.96 634.48 131.69 634.6 129.5 634.37C124.992 633.907 120.761 631.972 117.464 628.862C114.167 625.753 111.986 621.644 111.26 617.17C111.18 616.69 100.42 616.97 99.2601 617.59C97.9301 618.32 97.1301 620.13 96.3801 621.36C95.2401 623.39 94.1201 625.43 93.0901 627.51Z" fill="#A26565"/>
  <path d="M139.62 521.28C139.76 542.89 133.48 564.01 126.11 584.28C123.19 592.32 120.093 600.29 116.82 608.19C114.88 612.87 112.69 618.07 114.77 622.69C108.77 620.41 102.67 619.07 96.3601 620.12C98.7601 615.22 98.5301 609.52 98.6401 604.12C98.8437 596.719 99.6329 589.346 101 582.07C103.118 570.996 106.749 560.265 111.79 550.18C112.809 548.053 113.513 545.79 113.88 543.46C114.7 538.32 114.06 533.04 112.99 527.95C110.688 516.708 106.314 505.992 100.09 496.35L100.03 496.99C99.6565 500.206 99.1158 503.4 98.4101 506.56C97.0001 513.25 95.3501 519.95 95.6001 526.68C95.8609 533.816 95.4188 540.961 94.2801 548.01C93.9134 550.778 93.1907 553.487 92.1301 556.07C91.4401 557.62 90.5401 559.07 90.0001 560.68C89.4595 562.533 89.1769 564.451 89.1601 566.38C88.3601 582.65 89.1601 599.17 92.4801 615.12C86.9101 614.68 81.3401 616.29 76.3601 618.79C72.4663 607.373 69.6212 595.624 67.8601 583.69C65.6903 569.577 66.1309 555.185 69.1601 541.23C70.1041 536.576 70.4569 531.822 70.2101 527.08C69.7801 517.63 67.4601 508.39 65.1501 499.21L61.6301 485.21C59.9634 478.543 58.2967 471.907 56.6301 465.3C55.5201 460.89 54.4001 456.38 54.7501 451.84C54.9942 449.349 55.5175 446.894 56.3101 444.52C58.8068 436.446 62.5412 428.809 67.3801 421.88C86.6501 422.96 106.15 421.16 125.38 419.68C126.312 419.496 127.28 419.66 128.1 420.14C128.756 420.806 129.146 421.687 129.2 422.62L136.43 463.62C137.601 469.319 138.287 475.106 138.48 480.92C138.48 486.72 137.58 492.5 137.8 498.29C138.1 506.09 139.58 513.47 139.62 521.28Z" fill="#454B69"/>
  <path opacity="0.1" d="M100.05 496.99C99.6765 500.206 99.1358 503.4 98.43 506.56C94.24 499.31 89.72 492.24 85.86 484.81C84.86 482.9 83.92 480.96 82.97 479.02L80.12 473.22C79.59 472.13 79.06 471.04 78.58 469.93C77.7985 468.335 77.1981 466.658 76.79 464.93C78.19 464.67 81.65 468.45 82.69 469.44C84.8114 471.541 86.8145 473.757 88.69 476.08C90.968 478.662 93.0599 481.402 94.95 484.28C97.3702 488.191 99.0956 492.491 100.05 496.99V496.99Z" fill="black"/>
  <path d="M116.1 286.08C116.1 286.08 105.4 303.13 107.38 306.7C109.36 310.27 73.6799 303.53 73.6799 303.53C73.6799 303.53 93.1099 286.48 91.1199 279.34C89.1299 272.2 116.1 286.08 116.1 286.08Z" fill="#EFB7B9"/>
  <path d="M116.46 315.96C113.87 312.366 110.356 309.539 106.29 307.78C103.947 306.941 101.524 306.344 99.0599 306L89.4099 304.3C87.0499 303.88 84.5199 303.49 82.3199 304.46C81.2075 305.03 80.1945 305.777 79.3199 306.67C75.9699 309.78 72.7199 313.19 68.5099 314.99C67.3599 315.48 66.1599 315.84 65.0099 316.33C60.2999 318.33 56.7799 322.59 54.7899 327.33C52.6899 332.27 52.6299 337.64 52.7899 343.01C52.7871 344.864 52.9714 346.713 53.3399 348.53C53.8213 350.26 54.433 351.952 55.1699 353.59C56.4995 357.096 57.6149 360.679 58.5099 364.32C61.0099 373.887 63.0899 383.553 64.7499 393.32C64.8907 394.719 65.3016 396.077 65.9599 397.32C66.8922 398.564 68.0202 399.648 69.2999 400.53C70.315 401.363 71.2492 402.291 72.0899 403.3C72.5089 403.712 72.8212 404.22 72.9999 404.78C73.3099 406.22 71.9999 407.46 70.9999 408.51C68.8479 410.706 67.2921 413.415 66.4799 416.38C65.9783 416.989 65.7216 417.762 65.7599 418.55C65.9682 419.098 66.0469 419.687 65.9899 420.27C65.793 420.801 65.4824 421.282 65.0799 421.68C64.6185 422.281 64.2906 422.974 64.1182 423.712C63.9457 424.45 63.9327 425.216 64.0799 425.96C71.5754 429.217 79.5975 431.094 87.7599 431.5C89.7599 431.6 91.7599 431.6 93.7599 431.84C95.1799 432.02 96.5799 432.31 97.9999 432.48C100.061 432.673 102.132 432.727 104.2 432.64C114.97 432.42 126.05 432.15 135.94 427.88C136.87 422.81 134.86 417.64 133.6 412.64C131.6 404.64 131.1 396.45 129.6 388.38C128.6 382.87 127.1 377.44 126.25 371.89C125.4 366.34 125.25 360.59 126.73 355.19C128.08 350.41 128.49 345.53 129.89 340.76C131.29 335.99 132.27 330.82 130.69 326.1C128.69 320.26 122.62 315.63 116.46 315.96Z" fill="#012369"/>
  <path d="M128.34 266.22C129.52 261.93 127.2 257.46 124.44 253.97C121.44 250.22 117.62 246.84 112.93 245.9C109.12 245.13 105.17 246.06 101.29 245.75C97.8599 245.48 94.5599 244.24 91.1499 243.75C88.056 243.417 84.93 243.534 81.8699 244.1C78.966 244.532 76.1273 245.325 73.4199 246.46C63.1199 251.03 57.0899 262.29 55.6899 273.46C54.2899 284.63 56.7399 295.89 59.1799 306.88L61.3899 316.82C63.6899 327.17 65.9899 337.56 66.5999 348.14C67.2099 358.72 66.0699 369.58 61.7199 379.24C75.7876 371.683 86.6878 359.343 92.4499 344.45C94.0099 340.36 95.1699 336.11 96.9099 332.09C98.3999 328.63 100.31 325.35 101.63 321.82C103.122 317.836 103.838 313.603 103.74 309.35C103.66 306.15 103.13 302.97 103.22 299.77C103.31 296.57 104.13 293.24 106.34 290.92C108.34 288.87 111.09 287.92 113.62 286.59C117.603 284.544 121.083 281.641 123.81 278.09C125.4 276.01 125.49 275.09 125.89 272.73C126.29 270.37 127.72 268.49 128.34 266.22Z" fill="#A26565"/>
  <path d="M128.37 448.93C128.62 451.42 128.17 453.93 128.71 456.4C129.12 458.24 130.07 459.9 130.63 461.7C131.184 463.778 131.47 465.919 131.48 468.07C131.56 469.87 131.42 472.07 129.82 472.91C129.12 473.28 128.28 473.28 127.55 473.6C126.82 473.92 126.2 474.79 126.62 475.47C127.04 476.15 127.76 476.04 128.42 476.17C129.08 476.3 129.79 476.98 129.42 477.53C129.269 477.71 129.067 477.839 128.84 477.9C128.172 478.106 127.539 478.409 126.96 478.8C126.677 479.006 126.456 479.285 126.32 479.608C126.184 479.93 126.139 480.284 126.19 480.63C126.23 480.796 126.308 480.95 126.416 481.081C126.524 481.213 126.661 481.318 126.816 481.389C126.971 481.461 127.14 481.496 127.31 481.492C127.481 481.489 127.648 481.447 127.8 481.37C127.507 481.997 127.347 482.678 127.33 483.37C129.89 484.47 132.76 483.03 135.16 481.64C136.198 481.061 137.2 480.42 138.16 479.72C140.101 478.229 141.649 476.286 142.667 474.061C143.685 471.835 144.142 469.393 144 466.95C143.886 465.723 143.695 464.504 143.43 463.3C143.061 461.203 142.57 459.13 141.96 457.09C141.27 454.94 140.33 452.89 139.52 450.78C137.8 446.29 136.69 441.59 135.13 437.04C135.026 436.568 134.761 436.148 134.38 435.85C134.036 435.68 133.652 435.608 133.27 435.64C131.519 435.548 129.764 435.71 128.06 436.12C127.06 436.42 125.35 437.12 124.88 438.12C124.41 439.12 125.16 439.96 125.61 440.79C127.047 443.3 127.985 446.064 128.37 448.93Z" fill="#EFB7B9"/>
  <path opacity="0.1" d="M126.74 359.42C127.253 359.946 127.685 360.546 128.02 361.2C131.46 367.45 131.5 374.92 131.66 382.05C131.84 390.05 132.28 398.05 132.72 406.1L134.03 430.1C134.16 432.39 134.28 434.68 134.61 436.95C136.15 437.34 136.21 439.34 136.04 440.95C134.93 450.73 132.18 460.8 135.04 470.21C135.15 470.693 135.381 471.14 135.71 471.51C134.258 471.055 132.704 471.034 131.24 471.45C129.81 471.75 128.43 472.28 126.99 472.61C125.17 473.02 123.11 473.2 121.87 474.61C120.465 470.383 119.345 466.067 118.52 461.69C117.84 457.69 117.65 453.57 116.03 449.87C115.38 448.38 114.5 447 113.7 445.57C109.51 438.09 107.45 429.64 105.44 421.3C104.538 417.346 104.322 413.267 104.8 409.24C105.091 407.403 105.258 405.549 105.3 403.69C105.178 401.728 104.921 399.777 104.53 397.85C103.68 392.196 104.08 386.424 105.7 380.94C107.2 375.85 108.52 370.49 111.7 366.21C114.88 361.93 121.43 359.49 126.74 359.42Z" fill="black"/>
  <path d="M127.93 326.62C128.444 327.149 128.875 327.753 129.21 328.41C132.65 334.65 132.69 342.13 132.85 349.26C133.03 357.26 133.47 365.26 133.91 373.26L135.22 397.26C135.35 399.55 135.47 401.84 135.8 404.11C137.34 404.5 137.4 406.5 137.22 408.11C136.12 417.89 133.37 427.95 136.22 437.37C136.33 437.853 136.561 438.3 136.89 438.67C135.438 438.215 133.884 438.194 132.42 438.61C130.99 438.91 129.61 439.44 128.17 439.76C126.35 440.18 124.29 440.35 123.05 441.76C121.649 437.514 120.54 433.177 119.73 428.78C119.05 424.78 118.86 420.67 117.24 416.97C116.537 415.498 115.759 414.063 114.91 412.67C110.71 405.19 108.66 396.73 106.65 388.39C105.748 384.436 105.531 380.357 106.01 376.33C106.763 372.56 106.671 368.67 105.74 364.94C104.89 359.289 105.29 353.52 106.91 348.04C108.41 342.95 109.73 337.59 112.91 333.31C116.09 329.03 122.62 326.7 127.93 326.62Z" fill="#012369"/>
  <g opacity="0.1">
    <path opacity="0.1" d="M124.44 253.97C121.44 250.22 117.62 246.84 112.93 245.9C109.12 245.13 105.17 246.06 101.29 245.75C97.86 245.48 94.56 244.24 91.15 243.75C88.056 243.417 84.93 243.534 81.87 244.1C78.966 244.532 76.1274 245.325 73.42 246.46C71.9575 247.115 70.5611 247.909 69.25 248.83C71.6599 247.894 74.1647 247.223 76.72 246.83C79.7766 246.264 82.8994 246.146 85.99 246.48C89.41 246.92 92.7 248.15 96.14 248.42C100.01 248.73 103.96 247.81 107.78 248.57C112.47 249.51 116.31 252.9 119.28 256.65C122.05 260.13 124.36 264.6 123.19 268.9C122.57 271.16 121.13 273.14 120.74 275.47C120.35 277.8 120.25 278.75 118.65 280.83C116.598 283.497 114.118 285.806 111.31 287.66C112.08 287.3 112.87 286.94 113.62 286.55C117.603 284.504 121.083 281.601 123.81 278.05C125.4 275.97 125.49 275.05 125.89 272.69C126.29 270.33 127.72 268.39 128.34 266.12C129.52 261.93 127.2 257.46 124.44 253.97Z" fill="black"/>
    <path opacity="0.1" d="M106.34 290.98C106.754 290.551 107.206 290.159 107.69 289.81C105.38 290.93 102.95 291.91 101.18 293.81C98.97 296.12 98.18 299.46 98.06 302.66C97.94 305.86 98.51 309.04 98.58 312.23C98.6782 316.487 97.9621 320.722 96.47 324.71C95.15 328.24 93.24 331.51 91.75 334.98C90.02 338.98 88.86 343.24 87.3 347.33C82.3008 360.242 73.4238 371.289 61.89 378.95C61.83 379.08 61.78 379.22 61.72 379.35C75.7877 371.793 86.6878 359.453 92.45 344.56C94.01 340.47 95.17 336.22 96.91 332.2C98.4 328.74 100.31 325.46 101.63 321.93C103.122 317.946 103.838 313.713 103.74 309.46C103.66 306.26 103.13 303.08 103.22 299.88C103.31 296.68 104.13 293.3 106.34 290.98Z" fill="black"/>
  </g>
  <defs>
    <linearGradient id="paint0_linear" x1="95.68" y1="649.89" x2="95.68" y2="239.99" gradientUnits="userSpaceOnUse">
      <stop stop-color="#808080" stop-opacity="0.25"/>
      <stop offset="0.54" stop-color="#808080" stop-opacity="0.12"/>
      <stop offset="1" stop-color="#808080" stop-opacity="0.1"/>
    </linearGradient>
  </defs>
</svg>