<?xml version="1.0" encoding="utf-8"?>
<svg width="816" height="506" viewBox="0 0 816 506" fill="none" xmlns="http://www.w3.org/2000/svg">
  <path d="M79.3709 505.737C123.206 505.737 158.742 498.309 158.742 489.145C158.742 479.982 123.206 472.554 79.3709 472.554C35.5356 472.554 0 479.982 0 489.145C0 498.309 35.5356 505.737 79.3709 505.737Z" fill="#E6E6E6"/>
  <path d="M119.772 473.147L129.261 482.636C129.261 482.636 151.403 486.854 146.131 494.234C140.859 501.615 86.032 492.126 86.032 492.126L87.0864 475.256L119.772 473.147Z" fill="#2F2E41"/>
  <path d="M51.238 473.147L60.7272 482.636C60.7272 482.636 82.8689 486.854 77.5971 494.234C72.3252 501.615 17.4983 492.126 17.4983 492.126L18.5527 475.256L51.238 473.147Z" fill="#2F2E41"/>
  <path d="M735 497C779.735 497 816 488.941 816 479C816 469.059 779.735 461 735 461C690.265 461 654 469.059 654 479C654 488.941 690.265 497 735 497Z" fill="#E6E6E6"/>
  <path d="M145.348 242.503L148.453 248.92C148.453 248.92 166.079 272.444 155.191 276.129C144.302 279.814 138.524 253.819 138.524 253.819L135.645 250.18L145.348 242.503Z" fill="#A0616A"/>
  <path d="M125.043 120.989L127.941 119.763C127.941 119.763 131.37 120.989 131.37 126.261C131.37 131.533 127.152 208.501 127.152 208.501L135.587 250.676L123.989 252.785L106.065 213.773L125.043 120.989Z" fill="#575A89"/>
  <path d="M125.043 120.989L127.941 119.763C127.941 119.763 131.37 120.989 131.37 126.261C131.37 131.533 127.152 208.501 127.152 208.501L149.821 244.877L135.06 255.421L106.065 213.773L125.043 120.989Z" fill="#012369"/>
  <path d="M122.935 243.296C122.935 243.296 136.642 248.567 135.587 258.057C134.533 267.546 120.826 456.277 120.826 456.277L125.044 477.365L84.9777 478.419L83.9234 342.406L55.4555 478.419H15.3896L43.8575 239.078L122.935 243.296Z" fill="#2F2E41"/>
  <path d="M89.1951 83.0321C103.171 83.0321 114.5 71.7028 114.5 57.7274C114.5 43.7519 103.171 32.4226 89.1951 32.4226C75.2197 32.4226 63.8904 43.7519 63.8904 57.7274C63.8904 71.7028 75.2197 83.0321 89.1951 83.0321Z" fill="#A0616A"/>
  <path d="M105.011 72.489L102.902 115.717L70.2161 96.739L74.4341 72.489H105.011Z" fill="#A0616A"/>
  <path d="M69.1621 86.1951L99.7391 108.337L105.011 92.5211L114.5 117.826L109.228 163.164L69.1621 86.1951Z" fill="white"/>
  <path d="M72.4398 83.0703L102.902 129.424L104.124 90.6695L107.875 93.6264C109.94 95.2537 111.609 97.3281 112.756 99.6935C113.904 102.059 114.5 104.654 114.5 107.283L129.261 120.989L123.989 173.708L122.935 235.915C122.935 235.915 129.261 241.187 127.152 244.35C125.043 247.513 116.608 254.894 107.119 254.894C97.6299 254.894 38.5854 247.513 38.5854 243.296C38.5854 239.078 40.6942 184.251 40.6942 184.251V110.446L65.9989 91.4671L72.4398 83.0703Z" fill="#012369"/>
  <path d="M36.4771 258.057L50.184 278.09L55.4551 254.894L49.1291 250.676L36.4771 258.057Z" fill="#A0616A"/>
  <path opacity="0.2" d="M102.967 288.268L82.6973 343.171L84.676 343.902L104.945 288.998L102.967 288.268Z" fill="black"/>
  <path d="M73.9068 32.9498C73.9068 32.9498 77.0699 17.1343 94.994 20.2974L92.8853 21.3518C92.8853 21.3518 109.755 19.243 107.646 28.7323C107.646 28.7323 121.353 37.1672 118.19 46.6565C116.33 52.1564 114.92 57.7982 113.973 63.5264L110.81 60.3633C110.81 60.3633 107.646 39.276 88.6679 41.3847C74.434 42.9662 68.6349 49.6878 67.1522 54.5313C66.4696 56.8087 65.5983 59.0252 64.5474 61.1579L63.3631 61.4176C63.3631 61.4176 57.0369 38.2216 73.9068 32.9498Z" fill="#2F2E41"/>
  <path d="M52.2923 109.391L42.6941 108.946L40.6943 110.446C38.399 112.74 36.284 115.207 34.3681 117.826C32.2594 120.989 4.84592 197.958 4.84592 197.958C4.33721 202.633 5.06435 207.359 6.95466 211.665C10.1177 219.045 35.4225 263.328 35.4225 263.328L54.4011 251.73L29.0963 200.067L47.0205 174.762L52.2923 109.391Z" fill="#012369"/>
  <path d="M525 112.402H522.311V41.2064C522.311 35.7951 521.209 30.4368 519.066 25.4374C516.924 20.438 513.784 15.8954 509.825 12.069C505.867 8.24267 501.167 5.20743 495.995 3.13662C490.823 1.06581 485.279 -1.554e-05 479.681 1.90532e-10H323.63C318.032 -1.64541e-05 312.489 1.06581 307.316 3.13662C302.144 5.20743 297.445 8.24266 293.486 12.069C289.528 15.8954 286.387 20.438 284.245 25.4374C282.103 30.4368 281 35.7951 281 41.2064V431.794C281 437.205 282.103 442.563 284.245 447.563C286.387 452.562 289.528 457.105 293.486 460.931C297.445 464.757 302.144 467.793 307.316 469.863C312.489 471.934 318.032 473 323.63 473H479.681C485.279 473 490.823 471.934 495.995 469.863C501.167 467.793 505.867 464.757 509.825 460.931C513.784 457.105 516.924 452.562 519.066 447.563C521.209 442.563 522.311 437.205 522.311 431.794V163.081H525V112.402Z" fill="#3F3D56"/>
  <path d="M514 38.2066V433.793C513.998 442.069 510.575 450.006 504.484 455.858C498.392 461.71 490.131 464.998 481.517 465H321.497C312.88 465.001 304.616 461.714 298.522 455.862C292.428 450.009 289.002 442.071 289 433.793V38.2066C289.003 29.9285 292.428 21.9905 298.522 16.1382C304.616 10.286 312.88 6.99896 321.497 7H340.908C339.955 9.25186 339.593 11.6942 339.852 14.1122C340.112 16.5303 340.985 18.8502 342.397 20.8678C343.808 22.8855 345.714 24.5393 347.946 25.6837C350.178 26.8282 352.669 27.4283 355.2 27.4313H446.432C448.963 27.4283 451.453 26.8282 453.686 25.6838C455.918 24.5393 457.824 22.8856 459.235 20.8679C460.647 18.8502 461.52 16.5304 461.78 14.1123C462.039 11.6942 461.676 9.25185 460.723 7H481.517C490.131 7.00167 498.392 10.29 504.484 16.142C510.575 21.994 513.998 29.9306 514 38.2066V38.2066Z" style="fill: rgb(238, 66, 102);"/>
  <path d="M482 244H321V400H482V244Z" fill="white"/>
  <path d="M447 175H357V181H447V175Z" fill="white"/>
  <path d="M459 192H344V198H459V192Z" fill="white"/>
  <path d="M430 259H367V264H430V259Z" fill="#E6E6E6"/>
  <path d="M464 273H367V277H464V273Z" style="fill: rgb(238, 66, 102);"/>
  <path d="M447 285H368V290H447V285Z" fill="#E6E6E6"/>
  <path d="M413 299H367V304H413V299Z" fill="#E6E6E6"/>
  <path d="M437 313H367V318H437V313Z" style="fill: rgb(238, 66, 102);"/>
  <path d="M346 258H339V265H346V258Z" fill="#E6E6E6"/>
  <path d="M346 271H339V279H346V271Z" style="fill: rgb(238, 66, 102);"/>
  <path d="M346 284H339V291H346V284Z" fill="#E6E6E6"/>
  <path d="M346 298H339V305H346V298Z" fill="#E6E6E6"/>
  <path d="M346 312H339V319H346V312Z" style="fill: rgb(238, 66, 102);"/>
  <path d="M430 327H367V331H430V327Z" fill="#E6E6E6"/>
  <path d="M464 340H367V345H464V340Z" style="fill: rgb(238, 66, 102);"/>
  <path d="M447 353H368V357H447V353Z" fill="#E6E6E6"/>
  <path d="M413 367H367V371H413V367Z" fill="#E6E6E6"/>
  <path d="M437 380H367V385H437V380Z" fill="#E6E6E6"/>
  <path d="M346 325H339V333H346V325Z" fill="#E6E6E6"/>
  <path d="M346 339H339V346H346V339Z" style="fill: rgb(238, 66, 102);"/>
  <path d="M346 351H339V359H346V351Z" fill="#E6E6E6"/>
  <path d="M346 365H339V373H346V365Z" fill="#E6E6E6"/>
  <path d="M346 379H339V386H346V379Z" fill="#E6E6E6"/>
  <path d="M401.5 155C430.495 155 454 132.39 454 104.5C454 76.6096 430.495 54 401.5 54C372.505 54 349 76.6096 349 104.5C349 132.39 372.505 155 401.5 155Z" fill="white"/>
  <path d="M401 79C395.858 79 390.831 80.4662 386.555 83.2133C382.28 85.9603 378.947 89.8648 376.979 94.4329C375.011 99.0011 374.496 104.028 375.5 108.877C376.503 113.727 378.979 118.181 382.615 121.678C386.251 125.174 390.884 127.555 395.928 128.52C400.971 129.484 406.199 128.989 410.95 127.097C415.701 125.205 419.761 122 422.618 117.889C425.475 113.778 427 108.945 427 104C426.98 97.3755 424.234 91.028 419.363 86.3437C414.491 81.6595 407.889 79.0194 401 79V79ZM401 86.5C402.543 86.5 404.051 86.9399 405.333 87.764C406.616 88.5881 407.616 89.7594 408.206 91.1299C408.797 92.5003 408.951 94.0083 408.65 95.4632C408.349 96.918 407.606 98.2544 406.515 99.3033C405.425 100.352 404.035 101.066 402.522 101.356C401.009 101.645 399.44 101.497 398.015 100.929C396.59 100.361 395.372 99.4001 394.515 98.1667C393.657 96.9334 393.2 95.4833 393.2 94C393.207 92.0129 394.031 90.1091 395.492 88.704C396.953 87.2989 398.933 86.5066 401 86.5V86.5ZM401 122.606C397.919 122.592 394.887 121.856 392.169 120.461C389.45 119.066 387.127 117.055 385.4 114.601C385.525 109.601 395.8 106.849 401 106.849C406.2 106.849 416.475 109.601 416.6 114.601C414.871 117.053 412.547 119.063 409.829 120.458C407.111 121.852 404.081 122.59 401 122.606Z" fill="#012369"/>
  <path d="M649.902 210.882L639.218 208.84C639.218 208.84 617.384 197.739 616.06 206.147C614.737 214.554 635.574 222 635.574 222L658 219.357L649.902 210.882Z" fill="#FFB8B8"/>
  <path d="M711.392 128L696.527 201.516L646.903 209.127L645 230.816L708.995 231L741 167.496L711.392 128Z" fill="#575A89"/>
  <path d="M711.392 128L696.527 201.516L646.903 209.127L645 230.816L708.995 231L741 167.496L711.392 128Z" fill="#012369"/>
  <path d="M631.837 149.1L624.093 140.732C624.093 140.732 611.972 118.073 606.378 123.983C600.783 129.893 614.035 148.993 614.035 148.993L634 161L631.837 149.1Z" fill="#FFB8B8"/>
  <path d="M739.744 104.225L749.039 101.742C752.586 101.747 756.09 100.887 759.297 99.2261C762.504 97.5647 765.333 95.1429 767.581 92.1358C769.829 89.1287 771.439 85.6116 772.294 81.8389C773.149 78.0663 773.228 74.1325 772.526 70.3222V70.3222C772.536 61.2308 769.251 52.5073 763.392 46.0706C757.534 39.6339 749.582 36.0114 741.286 36H741.286C732.99 35.9886 725.03 39.5892 719.156 46.0097C713.283 52.4302 709.977 61.1447 709.967 70.2361V70.2361C708.764 74.8214 708.682 79.6724 709.728 84.3036C710.774 88.9348 712.911 93.1837 715.926 96.6252C718.941 100.067 722.728 102.58 726.908 103.914C731.088 105.248 735.514 105.355 739.744 104.225V104.225Z" fill="#2F2E41"/>
  <path d="M685 273.385L692.689 364.012L706.615 452.968L730 453L726.984 365.736L714.636 260L685 273.385Z" fill="#2F2E41"/>
  <path d="M709.962 448L694.575 457.899C694.575 457.899 669.971 461.172 674.574 469.445C679.177 477.718 732.996 472.831 733 469.524C733.004 466.217 731.488 448.029 728.413 448.025L709.962 448Z" fill="#2F2E41"/>
  <path d="M753.211 265.286C753.211 265.286 752.776 278.232 741.924 298.338L743.399 360.378L799 437.583L778.868 456L710.9 372.071L694 271.445L715.684 248L753.211 265.286Z" fill="#2F2E41"/>
  <path d="M794.257 438C794.257 438 812.743 441.373 809.651 449.739C806.56 458.104 798.812 496.594 778.787 491.545C778.787 491.545 769.542 491.533 772.632 484.841C774.489 480.816 776.551 476.907 778.808 473.132L778.834 451.371L794.257 438Z" fill="#2F2E41"/>
  <path d="M730 106C742.703 106 753 94.8071 753 81C753 67.1929 742.703 56 730 56C717.297 56 707 67.1929 707 81C707 94.8071 717.297 106 730 106Z" fill="#FFB8B8"/>
  <path d="M741 98.0288L740.967 126L716 125.967L719.154 98L741 98.0288Z" fill="#FFB8B8"/>
  <path d="M756 277L740.696 274.216C721.173 270.647 701.179 271.562 682 276.902L688.922 201.972L689.822 192.204L691.753 171.288C691.753 171.288 685.081 143.726 694.874 134.416C706.827 123.05 717.41 114 717.41 114L740.776 116.034C753.84 144.357 751.009 179.957 742.196 218.309L756 277Z" fill="#012369"/>
  <path d="M730.978 120L679.207 170.384L634.406 145.354L625 157.739L664.574 195.253C667.293 197.35 670.488 198.619 673.821 198.927C677.155 199.234 680.503 198.569 683.515 197.001L734 170.716L730.978 120Z" fill="#012369"/>
  <path d="M775 62C783.284 62 790 54.8366 790 46C790 37.1634 783.284 30 775 30C766.716 30 760 37.1634 760 46C760 54.8366 766.716 62 775 62Z" fill="#2F2E41"/>
  <path d="M760.544 37.3758C760.546 34.9847 761.054 32.6238 762.031 30.4634C763.009 28.303 764.432 26.397 766.198 24.883C767.963 23.3689 770.028 22.2844 772.241 21.7079C774.455 21.1314 776.764 21.0771 779 21.549C777.027 20.5716 774.878 20.0445 772.696 20.0027C770.514 19.9609 768.348 20.4052 766.343 21.3063C764.337 22.2074 762.536 23.5447 761.06 25.2298C759.584 26.9149 758.466 28.9093 757.781 31.081C757.095 33.2528 756.857 35.5524 757.083 37.8278C757.308 40.1032 757.992 42.3023 759.089 44.2799C760.186 46.2574 761.672 47.9682 763.447 49.2991C765.222 50.63 767.246 51.5506 769.386 52C766.74 50.6934 764.503 48.6244 762.938 46.0347C761.372 43.4451 760.542 40.4418 760.544 37.3758V37.3758Z" fill="#2F2E41"/>
  <path d="M748.015 47.0309L728.148 43L712.869 53.552C709.112 56.1461 706.11 59.8729 704.218 64.2905C702.325 68.708 701.622 73.6309 702.192 78.4753L717.495 74.2014L720.921 64.7338C723.122 68.6955 726.194 71.9816 729.853 74.2882C738.523 79.7722 740.533 91.4296 741.558 104L758.32 93.9557L769 75.5133L748.015 47.0309Z" fill="#2F2E41"/>
  <path opacity="0.2" d="M729 156L689 202L689.895 192.292L729 156Z" fill="black"/>
</svg>