<?xml version="1.0" encoding="utf-8"?>
<svg width="910" height="551" viewBox="0 0 910 551" fill="none" xmlns="http://www.w3.org/2000/svg">
  <ellipse cx="479" cy="317.5" rx="35" ry="36.5" fill="white"/>
  <path d="M281.494 67.9999H279.494V175H281.494V67.9999Z" fill="#3F3D56"/>
  <path d="M281.494 206.85H279.494V301H281.494V206.85Z" fill="#3F3D56"/>
  <path d="M431.494 316H276.494V318H431.494V316Z" fill="#3F3D56"/>
  <path d="M212.494 343H210.494V428H212.494V343Z" fill="#3F3D56"/>
  <path d="M463.494 443H228.494V445H463.494V443Z" fill="#3F3D56"/>
  <path d="M659.494 -0.00012207H657.494V101H659.494V-0.00012207Z" fill="#3F3D56"/>
  <path d="M642.494 117H495.46V119H642.494V117Z" fill="#3F3D56"/>
  <path d="M480.494 133H478.494V268H480.494V133Z" fill="#3F3D56"/>
  <path d="M280.494 208C277.132 208 273.845 207.003 271.049 205.135C268.254 203.267 266.075 200.612 264.788 197.506C263.502 194.399 263.165 190.981 263.821 187.683C264.477 184.386 266.096 181.357 268.473 178.979C270.851 176.602 273.88 174.982 277.178 174.327C280.475 173.671 283.893 174.007 287 175.294C290.106 176.581 292.761 178.76 294.629 181.555C296.497 184.351 297.494 187.638 297.494 191C297.489 195.507 295.696 199.828 292.509 203.015C289.322 206.202 285.001 207.995 280.494 208V208ZM280.494 176C277.527 176 274.627 176.88 272.161 178.528C269.694 180.176 267.771 182.519 266.636 185.26C265.501 188.001 265.204 191.017 265.782 193.926C266.361 196.836 267.79 199.509 269.888 201.607C271.985 203.704 274.658 205.133 277.568 205.712C280.478 206.29 283.494 205.993 286.234 204.858C288.975 203.723 291.318 201.8 292.966 199.333C294.614 196.867 295.494 193.967 295.494 191C295.49 187.023 293.908 183.21 291.096 180.398C288.284 177.586 284.471 176.004 280.494 176V176Z" fill="#012369"/>
  <path d="M212.494 461C209.132 461 205.845 460.003 203.049 458.135C200.254 456.267 198.075 453.612 196.788 450.505C195.502 447.399 195.165 443.981 195.821 440.683C196.477 437.386 198.096 434.357 200.473 431.979C202.851 429.602 205.88 427.982 209.178 427.327C212.475 426.671 215.893 427.007 219 428.294C222.106 429.581 224.761 431.76 226.629 434.555C228.497 437.351 229.494 440.638 229.494 444C229.489 448.507 227.696 452.828 224.509 456.015C221.322 459.202 217.001 460.995 212.494 461V461ZM212.494 429C209.527 429 206.627 429.88 204.161 431.528C201.694 433.176 199.771 435.519 198.636 438.26C197.501 441.001 197.204 444.017 197.782 446.926C198.361 449.836 199.79 452.509 201.888 454.607C203.985 456.704 206.658 458.133 209.568 458.712C212.478 459.29 215.494 458.993 218.234 457.858C220.975 456.723 223.318 454.8 224.966 452.333C226.614 449.867 227.494 446.967 227.494 444C227.49 440.023 225.908 436.21 223.096 433.398C220.284 430.586 216.471 429.004 212.494 429V429Z" fill="#012369"/>
  <path d="M281.494 333C290.33 333 297.494 325.837 297.494 317C297.494 308.163 290.33 301 281.494 301C272.657 301 265.494 308.163 265.494 317C265.494 325.837 272.657 333 281.494 333Z" style="fill: rgb(238, 66, 102);"/>
  <path d="M860.494 190H694.494V192H860.494V190Z" fill="#3F3D56"/>
  <path d="M679.494 206.85H677.494V301H679.494V206.85Z" fill="#3F3D56"/>
  <path d="M661.494 316H528.494V318H661.494V316Z" fill="#3F3D56"/>
  <path d="M900.494 325H762.494V327H900.494V325Z" fill="#3F3D56"/>
  <path d="M748.494 343H746.494V428H748.494V343Z" fill="#3F3D56"/>
  <path d="M730.494 443H495.494V445H730.494V443Z" fill="#3F3D56"/>
  <path d="M480.494 366H478.494V428H480.494V366Z" fill="#3F3D56"/>
  <path d="M678.494 207C687.33 207 694.494 199.837 694.494 191C694.494 182.163 687.33 175 678.494 175C669.657 175 662.494 182.163 662.494 191C662.494 199.837 669.657 207 678.494 207Z" style="fill: rgb(238, 66, 102);"/>
  <path d="M658.494 134C655.132 134 651.845 133.003 649.049 131.135C646.254 129.267 644.075 126.612 642.788 123.506C641.502 120.399 641.165 116.981 641.821 113.683C642.477 110.386 644.096 107.357 646.473 104.979C648.851 102.602 651.88 100.982 655.178 100.327C658.475 99.6706 661.893 100.007 665 101.294C668.106 102.581 670.761 104.76 672.629 107.555C674.497 110.351 675.494 113.638 675.494 117C675.489 121.507 673.696 125.828 670.509 129.015C667.322 132.202 663.001 133.995 658.494 134V134ZM658.494 102C655.527 102 652.627 102.88 650.161 104.528C647.694 106.176 645.771 108.519 644.636 111.26C643.501 114.001 643.204 117.017 643.782 119.926C644.361 122.836 645.79 125.509 647.888 127.606C649.985 129.704 652.658 131.133 655.568 131.712C658.478 132.29 661.494 131.993 664.234 130.858C666.975 129.723 669.318 127.8 670.966 125.333C672.614 122.867 673.494 119.967 673.494 117C673.49 113.023 671.908 109.21 669.096 106.398C666.284 103.586 662.471 102.004 658.494 102V102Z" fill="#11941E"/>
  <path d="M479.494 134C476.132 134 472.845 133.003 470.049 131.135C467.254 129.267 465.075 126.612 463.788 123.506C462.502 120.399 462.165 116.981 462.821 113.683C463.477 110.386 465.096 107.357 467.473 104.979C469.851 102.602 472.88 100.982 476.178 100.327C479.475 99.6706 482.893 100.007 486 101.294C489.106 102.581 491.761 104.76 493.629 107.555C495.497 110.351 496.494 113.638 496.494 117C496.489 121.507 494.696 125.828 491.509 129.015C488.322 132.202 484.001 133.995 479.494 134V134ZM479.494 102C476.527 102 473.627 102.88 471.161 104.528C468.694 106.176 466.771 108.519 465.636 111.26C464.501 114.001 464.204 117.017 464.782 119.926C465.361 122.836 466.79 125.509 468.888 127.606C470.985 129.704 473.658 131.133 476.568 131.712C479.478 132.29 482.494 131.993 485.234 130.858C487.975 129.723 490.318 127.8 491.966 125.333C493.614 122.867 494.494 119.967 494.494 117C494.49 113.023 492.908 109.21 490.096 106.398C487.284 103.586 483.471 102.004 479.494 102V102Z" fill="#012369"/>
  <path d="M746.494 344C743.132 344 739.845 343.003 737.049 341.135C734.254 339.267 732.075 336.612 730.788 333.506C729.502 330.399 729.165 326.981 729.821 323.683C730.477 320.386 732.096 317.357 734.473 314.979C736.851 312.602 739.88 310.982 743.178 310.327C746.475 309.671 749.893 310.007 753 311.294C756.106 312.581 758.761 314.76 760.629 317.555C762.497 320.351 763.494 323.638 763.494 327C763.489 331.507 761.696 335.828 758.509 339.015C755.322 342.202 751.001 343.995 746.494 344V344ZM746.494 312C743.527 312 740.627 312.88 738.161 314.528C735.694 316.176 733.771 318.519 732.636 321.26C731.501 324.001 731.204 327.017 731.782 329.926C732.361 332.836 733.79 335.509 735.888 337.607C737.985 339.704 740.658 341.133 743.568 341.712C746.478 342.29 749.494 341.993 752.234 340.858C754.975 339.723 757.318 337.8 758.966 335.333C760.614 332.867 761.494 329.967 761.494 327C761.49 323.023 759.908 319.21 757.096 316.398C754.284 313.586 750.471 312.004 746.494 312V312Z" fill="#012369"/>
  <path d="M746.494 460C755.33 460 762.494 452.837 762.494 444C762.494 435.163 755.33 428 746.494 428C737.657 428 730.494 435.163 730.494 444C730.494 452.837 737.657 460 746.494 460Z" style="fill: rgb(238, 66, 102);"/>
  <path d="M479.494 461C476.132 461 472.845 460.003 470.049 458.135C467.254 456.267 465.075 453.612 463.788 450.505C462.502 447.399 462.165 443.981 462.821 440.683C463.477 437.386 465.096 434.357 467.473 431.979C469.851 429.602 472.88 427.982 476.178 427.327C479.475 426.671 482.893 427.007 486 428.294C489.106 429.581 491.761 431.76 493.629 434.555C495.497 437.351 496.494 440.638 496.494 444C496.489 448.507 494.696 452.828 491.509 456.015C488.322 459.202 484.001 460.995 479.494 461V461ZM479.494 429C476.527 429 473.627 429.88 471.161 431.528C468.694 433.176 466.771 435.519 465.636 438.26C464.501 441.001 464.204 444.017 464.782 446.926C465.361 449.836 466.79 452.509 468.888 454.607C470.985 456.704 473.658 458.133 476.568 458.712C479.478 459.29 482.494 458.993 485.234 457.858C487.975 456.723 490.318 454.8 491.966 452.333C493.614 449.867 494.494 446.967 494.494 444C494.49 440.023 492.908 436.21 490.096 433.398C487.284 430.586 483.471 429.004 479.494 429V429Z" fill="#11941E"/>
  <path d="M677.494 334C674.132 334 670.845 333.003 668.049 331.135C665.254 329.267 663.075 326.612 661.788 323.506C660.502 320.399 660.165 316.981 660.821 313.683C661.477 310.386 663.096 307.357 665.473 304.979C667.851 302.602 670.88 300.982 674.178 300.327C677.475 299.671 680.893 300.007 684 301.294C687.106 302.581 689.761 304.76 691.629 307.555C693.497 310.351 694.494 313.638 694.494 317C694.489 321.507 692.696 325.828 689.509 329.015C686.322 332.202 682.001 333.995 677.494 334V334ZM677.494 302C674.527 302 671.627 302.88 669.161 304.528C666.694 306.176 664.771 308.519 663.636 311.26C662.501 314.001 662.204 317.017 662.782 319.926C663.361 322.836 664.79 325.509 666.888 327.607C668.985 329.704 671.658 331.133 674.568 331.712C677.478 332.29 680.494 331.993 683.234 330.858C685.975 329.723 688.318 327.8 689.966 325.333C691.614 322.867 692.494 319.967 692.494 317C692.49 313.023 690.908 309.21 688.096 306.398C685.284 303.586 681.471 302.004 677.494 302V302Z" fill="#11941E"/>
  <path d="M480.772 304.667L478.723 312.882C481.046 313.461 488.206 315.822 489.366 311.173C490.575 306.326 483.095 305.246 480.772 304.667Z" style="fill: rgb(238, 66, 102);"/>
  <path d="M477.69 317.028L475.43 326.086C478.219 326.779 486.822 329.541 488.094 324.431C489.423 319.103 480.479 317.724 477.69 317.028Z" style="fill: rgb(238, 66, 102);"/>
  <path d="M490.034 280.212C482.839 278.418 475.273 278.797 468.294 281.303C461.315 283.809 455.236 288.328 450.825 294.288C446.414 300.249 443.87 307.384 443.514 314.791C443.158 322.198 445.006 329.544 448.825 335.9C452.644 342.256 458.262 347.337 464.969 350.5C471.676 353.664 479.17 354.767 486.504 353.672C493.838 352.576 500.682 349.33 506.171 344.344C511.66 339.359 515.548 332.858 517.342 325.663C518.534 320.885 518.773 315.92 518.046 311.05C517.319 306.18 515.639 301.501 513.103 297.28C510.567 293.059 507.225 289.38 503.266 286.451C499.308 283.522 494.812 281.402 490.034 280.212V280.212ZM497.496 311.249C496.955 314.902 494.931 316.671 492.242 317.29C495.933 319.211 497.812 322.159 496.022 327.269C493.802 333.614 488.525 334.15 481.51 332.822L479.807 339.646L475.692 338.621L477.372 331.888C476.276 331.616 475.183 331.333 474.093 331.038L472.407 337.802L468.297 336.776L470 329.94C469.039 329.694 468.063 329.432 467.067 329.183L461.713 327.847L463.755 323.138C463.755 323.138 466.787 323.945 466.746 323.885C466.934 323.945 467.132 323.967 467.329 323.951C467.525 323.934 467.717 323.879 467.892 323.788C468.067 323.697 468.223 323.572 468.349 323.421C468.476 323.27 468.572 323.095 468.631 322.907L471.322 312.12C471.473 312.157 471.62 312.193 471.756 312.228C471.617 312.173 471.474 312.127 471.329 312.091L473.248 304.39C473.305 303.819 473.136 303.249 472.778 302.802C472.419 302.355 471.9 302.066 471.331 301.998C471.396 301.954 468.343 301.255 468.343 301.255L469.438 296.86L475.113 298.277L475.108 298.298C475.961 298.51 476.84 298.711 477.736 298.915L479.422 292.158L483.534 293.183L481.882 299.808C482.986 300.06 484.097 300.314 485.179 300.583L486.82 294.002L490.934 295.027L489.249 301.787C494.443 303.576 498.242 306.258 497.496 311.249V311.249Z" style="fill: rgb(238, 66, 102);"/>
  <path d="M152 531.96C149.154 557.837 -0.226103 555.664 0.000256996 531.959C2.84564 506.084 152.226 508.256 152 531.96Z" fill="#E6E6E6"/>
  <path d="M103.754 466.822L109.81 479.942L120.911 478.933L127.976 455.72L116.874 449.665L103.754 466.822Z" fill="#FFB8B8"/>
  <path d="M65.6421 497.039L65.4031 506.182L82.5601 507.191V496.09L65.6421 497.039Z" fill="#FFB8B8"/>
  <path d="M71.4581 330.574L75.4951 411.313L65.4031 499.117L95.6801 503.154L114.856 392.138L120.911 316.444L71.4581 330.574Z" fill="#012369"/>
  <path d="M24.0238 301.306C24.0238 301.306 11.9129 381.036 37.144 407.277C62.3751 433.517 96.6894 479.942 96.6894 479.942L120.911 449.665L59.3474 384.064L71.4583 339.657L120.911 316.445L112.837 260.936L40.1717 259.927L24.0238 301.306Z" fill="#012369"/>
  <path d="M83.5693 116.614C95.8319 116.614 105.773 106.673 105.773 94.4108C105.773 82.1482 95.8319 72.2074 83.5693 72.2074C71.3068 72.2074 61.366 82.1482 61.366 94.4108C61.366 106.673 71.3068 116.614 83.5693 116.614Z" fill="#FFB8B8"/>
  <path d="M64.3937 99.457C64.3937 99.457 63.3844 130.744 58.3382 134.781C53.292 138.818 76.5046 155.975 76.5046 155.975L91.6433 131.753V109.549L64.3937 99.457Z" fill="#FFB8B8"/>
  <path d="M74.486 141.845L62.233 123.343L55.31 132.762L45.218 161.021L53.292 271.028L100.726 272.037L106.782 145.882L91.643 127.716L74.486 141.845Z" fill="#D0CDE1"/>
  <path d="M125.958 148.91L134.032 147.901C134.032 147.901 136.05 148.91 137.059 155.975C138.069 163.039 150.18 225.612 150.18 225.612L134.032 302.315L115.865 278.093L126.967 235.705L115.865 193.317L125.958 148.91Z" fill="#012369"/>
  <path d="M23.015 147.9H16.959L1.82104 229.649L15.95 293.232L30.079 270.019L26.042 244.788L28.061 222.585L35.126 209.464L23.015 147.9Z" fill="#012369"/>
  <path d="M112.837 475.905C112.837 475.905 106.782 473.887 106.782 477.924C106.782 481.961 110.819 494.071 110.819 494.071C110.819 494.071 104.764 531.413 113.847 529.395C122.93 527.377 129.995 510.219 131.004 505.173C132.013 500.127 137.059 473.887 137.059 473.887C137.059 473.887 145.133 454.711 140.087 453.702C135.041 452.692 120.911 448.656 120.911 448.656C120.911 448.656 128.985 473.887 112.837 475.905Z" fill="#2F2E41"/>
  <path d="M83.5694 507.192C83.5694 507.192 67.4215 497.099 64.3938 505.173C62.3857 511.062 61.0319 517.154 60.3568 523.34C60.3568 523.34 56.3198 536.46 72.4677 534.441C88.6156 532.423 86.5971 532.423 87.6064 526.367C88.6156 520.312 83.5694 507.192 83.5694 507.192Z" fill="#2F2E41"/>
  <path d="M70.4491 94.4107L74.4861 93.4015C74.4861 93.4015 77.5138 76.2443 84.5785 78.2628C91.6433 80.2813 109.81 82.2998 109.81 74.2258C109.81 66.1518 92.6525 59.0872 82.5601 60.0964C72.4676 61.1057 55.3105 64.1334 56.3197 79.272C57.3289 94.4107 63.8414 109.137 63.8414 109.137L64.3674 100.162L70.4491 94.4107Z" fill="#2F2E41"/>
  <path d="M91.6431 153.956L74.4861 141.845L91.6431 127.716L97.6001 134.863L91.6431 153.956Z" fill="#D0CDE1"/>
  <path d="M59.3471 152.947L74.4861 141.845L62.3751 123.679L55.3101 132.762L59.3471 152.947Z" fill="#D0CDE1"/>
  <path d="M133.022 147.901L100.727 134.78L93.1572 129.23L70.4492 229.649L55.3105 184.233L59.8521 126.202L17.9685 147.901L32.0979 216.529L34.1164 242.77L28.0609 263.964C28.0609 263.964 6.86681 279.102 13.9315 295.25C20.9962 311.398 29.0702 312.408 29.0702 312.408C29.0702 312.408 63.3845 280.112 65.403 272.038C67.4215 263.964 70.4492 249.834 70.4492 249.834C70.4492 249.834 87.6064 314.426 107.791 313.417C127.976 312.407 127.976 291.213 127.976 291.213L122.93 269.01L114.856 245.797L118.893 207.446L133.022 147.901Z" fill="#012369"/>
  <circle cx="280.5" cy="191.5" r="16.5" fill="#012369"/>
  <circle cx="480.5" cy="444.5" r="16.5" fill="#11941E"/>
  <circle cx="210.5" cy="329.5" r="16.5" fill="#2F2E41"/>
  <circle cx="893.5" cy="325.5" r="16.5" fill="#2F2E41"/>
  <circle cx="860.5" cy="191.5" r="16.5" fill="#2F2E41"/>
  <circle cx="658.5" cy="16.5" r="16.5" fill="#2F2E41"/>
  <circle cx="281.5" cy="51.5" r="16.5" fill="#2F2E41"/>
  <circle cx="658.5" cy="116.5" r="16.5" fill="#11941E"/>
  <circle cx="676.5" cy="318.5" r="16.5" fill="#11941E"/>
  <circle cx="212.5" cy="443.5" r="16.5" fill="#012369"/>
  <circle cx="746.5" cy="326.5" r="16.5" fill="#012369"/>
  <circle cx="479.5" cy="117.5" r="16.5" fill="#012369"/>
</svg>