<?xml version="1.0" encoding="utf-8"?>
<svg width="1080" height="634" viewBox="0 0 1080 634" fill="none" xmlns="http://www.w3.org/2000/svg">
  <path opacity="0.35" d="M247.698 77.7555C233.7 83.3242 219.679 90.3358 212.553 101.095C207.316 109.013 206.36 118.092 205.497 126.924L195.137 232.37C192.834 255.868 190.313 280.017 176.891 301.236C153.765 337.789 103.414 358.648 65.6111 387.169C3.66853 433.91 -22.9227 512.7 23.5947 568.933C44.1163 593.513 75.8183 611.417 112.589 619.192C134.161 623.679 156.7 624.471 179.032 625.236C366.092 631.436 553.278 633.922 740.59 632.696C762.83 632.547 785.68 632.257 806.205 625.799C834.557 616.888 854.932 597.269 868.965 576.437C882.997 555.605 891.988 532.987 905.26 511.873C932.427 468.765 976.63 433.629 1015.15 395.949C1036.39 375.187 1056.27 353.185 1068.19 328.464C1087.15 289.175 1083.84 242.962 1054.21 207.728C1041.4 192.5 1023.98 179.313 1015.26 162.483C1003.09 138.95 1009.89 112.593 1012.79 87.3886C1015.69 62.184 1012.51 33.4077 987.129 17.1588C973.12 8.19427 954.563 4.65772 936.479 2.63431C849.902 -7.04285 762.945 12.1091 677.094 25.0237C601.338 36.4604 524.534 43.0057 447.684 48.2225C379.468 52.8676 309.951 52.9907 247.698 77.7555Z" fill="#666666"/>
  <ellipse cx="553" cy="197.5" rx="59" ry="55.5" fill="white"/>
  <path d="M273.92 598.2C273.92 598.2 244.81 499.37 279.38 426.63C293.89 396.1 298.71 361.83 292 328.7C288.796 312.975 284.156 297.577 278.14 282.7" stroke="#11941E" stroke-width="2" stroke-miterlimit="10"/>
  <path d="M299.64 236.78C299.64 248.89 277.71 284.01 277.71 284.01C277.71 284.01 255.78 248.89 255.78 236.78C255.78 230.964 258.091 225.386 262.203 221.273C266.316 217.161 271.894 214.85 277.71 214.85C283.526 214.85 289.104 217.161 293.217 221.273C297.33 225.386 299.64 230.964 299.64 236.78V236.78Z" fill="#6C63FF"/>
  <path d="M335.89 303.83C329.31 314 291.81 331.56 291.81 331.56C291.81 331.56 292.49 290.16 299.07 279.99C300.635 277.572 302.662 275.487 305.033 273.852C307.404 272.218 310.075 271.066 312.891 270.464C315.707 269.861 318.615 269.819 321.448 270.34C324.28 270.861 326.982 271.935 329.4 273.5C331.818 275.065 333.903 277.092 335.538 279.463C337.173 281.834 338.324 284.505 338.927 287.321C339.529 290.137 339.571 293.045 339.05 295.878C338.529 298.71 337.455 301.412 335.89 303.83Z" fill="#6C63FF"/>
  <path d="M334.31 418.51C323.5 423.96 282.31 420.2 282.31 420.2C282.31 420.2 303.73 384.83 314.56 379.35C319.746 376.788 325.735 376.379 331.222 378.212C336.709 380.045 341.249 383.971 343.854 389.136C346.459 394.301 346.917 400.286 345.13 405.788C343.342 411.29 339.453 415.862 334.31 418.51V418.51Z" fill="#6C63FF"/>
  <path d="M313.58 504.98C303.84 512.18 262.58 515.44 262.58 515.44C262.58 515.44 277.78 476.92 287.51 469.72C289.822 467.967 292.46 466.691 295.269 465.965C298.078 465.239 301.004 465.077 303.876 465.49C306.748 465.902 309.509 466.881 312.001 468.368C314.492 469.856 316.663 471.823 318.388 474.156C320.114 476.489 321.359 479.141 322.052 481.958C322.745 484.776 322.873 487.703 322.426 490.57C321.98 493.437 320.969 496.187 319.452 498.661C317.936 501.134 315.943 503.282 313.59 504.98H313.58Z" fill="#6C63FF"/>
  <path d="M245.73 333.94C254.42 342.38 294.89 351.12 294.89 351.12C294.89 351.12 284.98 310.92 276.29 302.48C272.111 298.464 266.512 296.265 260.717 296.365C254.922 296.464 249.402 298.854 245.363 303.011C241.325 307.169 239.096 312.756 239.165 318.551C239.234 324.347 241.594 329.88 245.73 333.94V333.94Z" fill="#6C63FF"/>
  <path d="M222.8 435.38C233.61 440.83 274.8 437.07 274.8 437.07C274.8 437.07 253.31 401.67 242.5 396.22C239.926 394.895 237.115 394.093 234.229 393.86C231.343 393.626 228.44 393.967 225.687 394.862C222.933 395.756 220.384 397.187 218.187 399.072C215.989 400.957 214.186 403.258 212.883 405.843C211.579 408.428 210.8 411.246 210.591 414.133C210.381 417.021 210.746 419.921 211.663 422.667C212.581 425.413 214.033 427.95 215.935 430.132C217.838 432.314 220.154 434.098 222.75 435.38H222.8Z" fill="#6C63FF"/>
  <path d="M214.01 537.04C223.75 544.24 265.01 547.5 265.01 547.5C265.01 547.5 249.81 508.98 240.08 501.78C235.4 498.403 229.577 497.007 223.874 497.894C218.171 498.782 213.048 501.882 209.616 506.522C206.184 511.163 204.719 516.969 205.54 522.682C206.361 528.395 209.401 533.554 214 537.04H214.01Z" fill="#6C63FF"/>
  <path d="M299.64 236.78C299.64 248.89 277.71 284.01 277.71 284.01C277.71 284.01 255.78 248.89 255.78 236.78C255.78 230.964 258.091 225.386 262.203 221.273C266.316 217.161 271.894 214.85 277.71 214.85C283.526 214.85 289.104 217.161 293.217 221.273C297.33 225.386 299.64 230.964 299.64 236.78V236.78Z" fill="#11941E"/>
  <path d="M335.89 303.83C329.31 314 291.81 331.56 291.81 331.56C291.81 331.56 292.49 290.16 299.07 279.99C300.635 277.572 302.662 275.487 305.033 273.852C307.404 272.218 310.075 271.066 312.891 270.464C315.707 269.861 318.615 269.819 321.448 270.34C324.28 270.861 326.982 271.935 329.4 273.5C331.818 275.065 333.903 277.092 335.538 279.463C337.173 281.834 338.324 284.505 338.927 287.321C339.529 290.137 339.571 293.045 339.05 295.878C338.529 298.71 337.455 301.412 335.89 303.83Z" fill="#11941E"/>
  <path d="M334.31 418.51C323.5 423.96 282.31 420.2 282.31 420.2C282.31 420.2 303.73 384.83 314.56 379.35C319.746 376.788 325.735 376.379 331.222 378.212C336.709 380.045 341.249 383.971 343.854 389.136C346.459 394.301 346.917 400.286 345.13 405.788C343.342 411.29 339.453 415.862 334.31 418.51V418.51Z" fill="#11941E"/>
  <path d="M313.58 504.98C303.84 512.18 262.58 515.44 262.58 515.44C262.58 515.44 277.78 476.92 287.51 469.72C289.822 467.967 292.46 466.691 295.269 465.965C298.078 465.239 301.004 465.077 303.876 465.49C306.748 465.902 309.509 466.881 312.001 468.368C314.492 469.856 316.663 471.823 318.388 474.156C320.114 476.489 321.359 479.141 322.052 481.958C322.745 484.776 322.873 487.703 322.426 490.57C321.98 493.437 320.969 496.187 319.452 498.661C317.936 501.134 315.943 503.282 313.59 504.98H313.58Z" fill="#11941E"/>
  <path d="M245.73 333.94C254.42 342.38 294.89 351.12 294.89 351.12C294.89 351.12 284.98 310.92 276.29 302.48C272.111 298.464 266.512 296.265 260.717 296.365C254.922 296.464 249.402 298.854 245.363 303.011C241.325 307.169 239.096 312.756 239.165 318.551C239.234 324.347 241.594 329.88 245.73 333.94V333.94Z" fill="#11941E"/>
  <path d="M222.8 435.38C233.61 440.83 274.8 437.07 274.8 437.07C274.8 437.07 253.31 401.67 242.5 396.22C239.926 394.895 237.115 394.093 234.229 393.86C231.343 393.626 228.44 393.967 225.687 394.862C222.933 395.756 220.384 397.187 218.187 399.072C215.989 400.957 214.186 403.258 212.883 405.843C211.579 408.428 210.8 411.246 210.591 414.133C210.381 417.021 210.746 419.921 211.663 422.667C212.581 425.413 214.033 427.95 215.935 430.132C217.838 432.314 220.154 434.098 222.75 435.38H222.8Z" fill="#11941E"/>
  <path d="M214.01 537.04C223.75 544.24 265.01 547.5 265.01 547.5C265.01 547.5 249.81 508.98 240.08 501.78C235.4 498.403 229.577 497.007 223.874 497.894C218.171 498.782 213.048 501.882 209.616 506.522C206.184 511.163 204.719 516.969 205.54 522.682C206.361 528.395 209.401 533.554 214 537.04H214.01Z" fill="#11941E"/>
  <path d="M832.3 545.06C832.3 545.06 803.19 446.24 837.73 373.5C852.24 342.97 857.06 308.7 850.35 275.57C847.146 259.845 842.506 244.448 836.49 229.57" stroke="#11941E" stroke-width="2" stroke-miterlimit="10"/>
  <path d="M858.02 183.64C858.02 195.75 836.09 230.87 836.09 230.87C836.09 230.87 814.16 195.75 814.16 183.64C814.16 177.824 816.47 172.246 820.583 168.133C824.696 164.02 830.274 161.71 836.09 161.71C841.906 161.71 847.484 164.02 851.597 168.133C855.709 172.246 858.02 177.824 858.02 183.64V183.64Z" fill="#6C63FF"/>
  <path d="M894.27 250.73C887.69 260.9 850.19 278.46 850.19 278.46C850.19 278.46 850.87 237.06 857.45 226.89C859.015 224.472 861.042 222.387 863.413 220.752C865.784 219.118 868.454 217.966 871.271 217.363C874.087 216.761 876.995 216.719 879.827 217.24C882.66 217.761 885.362 218.835 887.78 220.4C890.198 221.965 892.283 223.992 893.918 226.363C895.552 228.734 896.704 231.404 897.306 234.221C897.909 237.037 897.951 239.945 897.43 242.777C896.909 245.61 895.835 248.312 894.27 250.73V250.73Z" fill="#6C63FF"/>
  <path d="M892.73 365.37C881.92 370.82 840.73 367.06 840.73 367.06C840.73 367.06 862.22 331.66 873.03 326.21C875.612 324.802 878.451 323.928 881.378 323.64C884.304 323.351 887.259 323.655 890.067 324.532C892.874 325.409 895.476 326.841 897.718 328.744C899.96 330.647 901.797 332.982 903.119 335.609C904.44 338.236 905.22 341.102 905.411 344.037C905.603 346.972 905.202 349.915 904.233 352.692C903.264 355.468 901.746 358.021 899.77 360.2C897.793 362.378 895.399 364.136 892.73 365.37Z" fill="#6C63FF"/>
  <path d="M871.96 451.83C862.22 459.03 820.96 462.29 820.96 462.29C820.96 462.29 836.16 423.77 845.89 416.57C848.2 414.789 850.842 413.486 853.662 412.739C856.482 411.991 859.423 411.814 862.312 412.217C865.201 412.62 867.981 413.595 870.489 415.086C872.996 416.577 875.181 418.553 876.915 420.899C878.65 423.244 879.898 425.913 880.589 428.747C881.279 431.581 881.397 434.525 880.936 437.405C880.474 440.286 879.443 443.045 877.901 445.522C876.36 447.999 874.34 450.144 871.96 451.83V451.83Z" fill="#6C63FF"/>
  <path d="M804.14 280.83C812.83 289.27 853.3 298.01 853.3 298.01C853.3 298.01 843.39 257.83 834.73 249.34C832.662 247.331 830.219 245.75 827.54 244.685C824.861 243.621 821.999 243.095 819.117 243.136C816.234 243.178 813.389 243.787 810.742 244.929C808.095 246.07 805.699 247.722 803.69 249.79C801.681 251.858 800.1 254.301 799.035 256.98C797.971 259.658 797.445 262.521 797.486 265.403C797.528 268.285 798.137 271.131 799.279 273.778C800.421 276.425 802.072 278.821 804.14 280.83V280.83Z" fill="#6C63FF"/>
  <path d="M781.18 382.24C791.99 387.69 833.18 383.93 833.18 383.93C833.18 383.93 811.73 348.53 800.93 343.08C798.356 341.755 795.545 340.953 792.659 340.72C789.773 340.487 786.87 340.827 784.117 341.722C781.363 342.616 778.814 344.047 776.616 345.932C774.419 347.817 772.616 350.118 771.312 352.703C770.009 355.288 769.23 358.106 769.021 360.993C768.811 363.881 769.176 366.781 770.093 369.527C771.01 372.273 772.463 374.81 774.365 376.992C776.268 379.174 778.584 380.958 781.18 382.24V382.24Z" fill="#6C63FF"/>
  <path d="M772.39 483.9C782.13 491.1 823.39 494.36 823.39 494.36C823.39 494.36 808.19 455.84 798.46 448.64C793.78 445.263 787.957 443.866 782.254 444.754C776.551 445.642 771.428 448.742 767.996 453.382C764.564 458.023 763.099 463.829 763.92 469.542C764.741 475.255 767.78 480.414 772.38 483.9H772.39Z" fill="#6C63FF"/>
  <path d="M858.02 183.64C858.02 195.75 836.09 230.87 836.09 230.87C836.09 230.87 814.16 195.75 814.16 183.64C814.16 177.824 816.47 172.246 820.583 168.133C824.696 164.02 830.274 161.71 836.09 161.71C841.906 161.71 847.484 164.02 851.597 168.133C855.709 172.246 858.02 177.824 858.02 183.64V183.64Z" fill="#11941E"/>
  <path d="M894.27 250.73C887.69 260.9 850.19 278.46 850.19 278.46C850.19 278.46 850.87 237.06 857.45 226.89C859.015 224.472 861.042 222.387 863.413 220.752C865.784 219.118 868.454 217.966 871.271 217.363C874.087 216.761 876.995 216.719 879.827 217.24C882.66 217.761 885.362 218.835 887.78 220.4C890.198 221.965 892.283 223.992 893.918 226.363C895.552 228.734 896.704 231.404 897.306 234.221C897.909 237.037 897.951 239.945 897.43 242.777C896.909 245.61 895.835 248.312 894.27 250.73V250.73Z" fill="#11941E"/>
  <path d="M892.73 365.37C881.92 370.82 840.73 367.06 840.73 367.06C840.73 367.06 862.22 331.66 873.03 326.21C875.612 324.802 878.451 323.928 881.378 323.64C884.304 323.351 887.259 323.655 890.067 324.532C892.874 325.409 895.476 326.841 897.718 328.744C899.96 330.647 901.797 332.982 903.119 335.609C904.44 338.236 905.22 341.102 905.411 344.037C905.603 346.972 905.202 349.915 904.233 352.692C903.264 355.468 901.746 358.021 899.77 360.2C897.793 362.378 895.399 364.136 892.73 365.37Z" fill="#11941E"/>
  <path d="M871.96 451.83C862.22 459.03 820.96 462.29 820.96 462.29C820.96 462.29 836.16 423.77 845.89 416.57C848.2 414.789 850.842 413.486 853.662 412.739C856.482 411.991 859.423 411.814 862.312 412.217C865.201 412.62 867.981 413.595 870.489 415.086C872.996 416.577 875.181 418.553 876.915 420.899C878.65 423.244 879.898 425.913 880.589 428.747C881.279 431.581 881.397 434.525 880.936 437.405C880.474 440.286 879.443 443.045 877.901 445.522C876.36 447.999 874.34 450.144 871.96 451.83V451.83Z" fill="#11941E"/>
  <path d="M804.14 280.83C812.83 289.27 853.3 298.01 853.3 298.01C853.3 298.01 843.39 257.83 834.73 249.34C832.662 247.331 830.219 245.75 827.54 244.685C824.861 243.621 821.999 243.095 819.117 243.136C816.234 243.178 813.389 243.787 810.742 244.929C808.095 246.07 805.699 247.722 803.69 249.79C801.681 251.858 800.1 254.301 799.035 256.98C797.971 259.658 797.445 262.521 797.486 265.403C797.528 268.285 798.137 271.131 799.279 273.778C800.421 276.425 802.072 278.821 804.14 280.83V280.83Z" fill="#11941E"/>
  <path d="M781.18 382.24C791.99 387.69 833.18 383.93 833.18 383.93C833.18 383.93 811.73 348.53 800.93 343.08C798.356 341.755 795.545 340.953 792.659 340.72C789.773 340.487 786.87 340.827 784.117 341.722C781.363 342.616 778.814 344.047 776.616 345.932C774.419 347.817 772.616 350.118 771.312 352.703C770.009 355.288 769.23 358.106 769.021 360.993C768.811 363.881 769.176 366.781 770.093 369.527C771.01 372.273 772.463 374.81 774.365 376.992C776.268 379.174 778.584 380.958 781.18 382.24V382.24Z" fill="#11941E"/>
  <path d="M772.39 483.9C782.13 491.1 823.39 494.36 823.39 494.36C823.39 494.36 808.19 455.84 798.46 448.64C793.78 445.263 787.957 443.866 782.254 444.754C776.551 445.642 771.428 448.742 767.996 453.382C764.564 458.023 763.099 463.829 763.92 469.542C764.741 475.255 767.78 480.414 772.38 483.9H772.39Z" fill="#11941E"/>
  <path d="M821.01 591.51C821.01 591.39 821.01 591.26 821.08 591.13C821.15 591 821.08 591.06 821.08 591.03C821.1 590.781 821.1 590.53 821.08 590.28C821.08 590.28 819.74 587.71 818.18 584.18C816.05 579.33 813.52 572.66 813.52 568.29C813.52 568.29 790.15 486.51 774.35 477.58C774.35 477.58 761.35 454.43 761.49 441.4C761.508 437.236 761.174 433.078 760.49 428.97C758.18 414.6 754.33 387.09 757.85 382.06C762.32 375.67 769.77 347.87 751.98 326.88L755.1 326.4C755.1 326.4 754.93 326.19 754.65 325.78L755.1 325.71C755.1 325.71 748.22 317.45 748.22 299.2C748.32 288.69 750.69 274.96 757.85 257.67C758.797 255.377 759.663 253.107 760.45 250.86C763.782 249.204 766.822 247.015 769.45 244.38L769.77 244.05L770.14 243.7C776.71 237.1 780.69 228.34 783.46 219.45C786.003 211.279 787.63 202.851 788.31 194.32C789.05 185.05 788.66 175.74 788.31 166.45C787.86 155.61 787.31 144.45 782.97 134.56C781.26 130.69 778.97 127.03 777.92 122.93C777.337 120.115 776.933 117.266 776.71 114.4C775.28 103.17 769.96 92.2801 761.24 85.0701C752.52 77.8601 740.33 74.6501 729.42 77.6701C723.18 79.4001 717.61 82.9801 712.42 86.9001C710.196 88.5756 708.098 90.4104 706.14 92.3901C699.87 98.5401 695.14 106.6 699.68 115.07C700.013 115.683 700.37 116.283 700.75 116.87C698.353 120.695 696.822 124.999 696.265 129.479C695.709 133.959 696.14 138.506 697.529 142.802C698.917 147.097 701.23 151.036 704.303 154.343C707.377 157.649 711.137 160.242 715.32 161.94L716.13 163.36H716.22C718.59 167.74 721.17 173.21 721.85 177.36C718.881 179.475 716.193 181.958 713.85 184.75C705.76 194.4 701.33 200.95 698.91 205.22C696.621 209.177 693.966 212.91 690.98 216.37C687.31 220.71 682.98 229.18 682.98 244.94C682.98 246.093 682.98 247.29 682.98 248.53C663.61 269.62 588.07 254.16 588.07 254.16C578.97 250.62 568.38 254.89 563.42 257.4C563.015 257.599 562.66 257.887 562.381 258.243C562.103 258.599 561.908 259.012 561.812 259.454C561.716 259.895 561.721 260.352 561.826 260.791C561.931 261.231 562.134 261.64 562.42 261.99C570.42 271.63 590.1 265.85 590.1 265.85C590.1 265.85 660.88 278.22 666.38 282.34C670.12 285.15 676.73 282.86 680.57 281.11L679.78 282L680.78 281.51L675.34 330.44H675.42L675.34 331.13C675.34 331.13 676.6 331.02 678.61 330.88L680.29 335.23H680.15L681.89 339.35L683.32 342.74C679.05 358.18 661.84 421.74 663.65 436.25C663.65 436.25 652.65 462.36 656.78 476.8C656.78 476.8 641.66 585.38 632.04 590.88L633.39 591.49C623.12 597.36 600.75 608.4 585.31 603.25C585.31 603.25 575.69 606 590.81 615.62C590.81 615.62 652.66 632.11 660.91 626.62L659.54 602.85L660.24 603.1C660.34 601.76 661.24 591.93 665.04 587.45C665.04 587.45 689.78 520.1 688.41 485.74L711.5 429.94C714 436.34 716.65 441.77 719.33 445.2L728.95 469.94L744.76 490.56C744.76 490.56 794.24 568.9 790.76 592.27L791.92 592.56C787.29 600.8 775.77 617.69 759.14 617.69C759.14 617.69 744.71 632.81 771.51 630.75C771.51 630.75 805.18 628.69 829.92 614.94L821.01 591.51Z" fill="url(#paint0_linear)"/>
  <path d="M789.43 585.16C789.43 585.16 776.84 613.66 755.63 613.66C755.63 613.66 741.71 628.24 767.56 626.25C767.56 626.25 800.03 624.25 823.89 611.01L812.48 581.27L789.43 585.16Z" fill="#333333"/>
  <path d="M676.1 332.32L681.1 345.25L713.55 342.93L710.23 321.06L676.1 332.32Z" fill="#FDB797"/>
  <path d="M683.39 345.25C683.39 345.25 661.52 422.83 663.51 438.7C663.51 438.7 652.91 463.88 656.88 477.8C656.88 477.8 642.3 582.51 633.02 587.8C633.02 587.8 660.02 600.02 660.85 599.73C670.13 596.42 660.19 599.73 660.19 599.73C660.19 599.73 660.85 589.13 664.83 584.49C664.83 584.49 688.69 519.54 687.36 486.41L719.17 409.53L683.39 345.25Z" fill="#252A62"/>
  <path d="M683.39 345.25C683.39 345.25 661.52 422.83 663.51 438.7C663.51 438.7 652.91 463.88 656.88 477.8C656.88 477.8 642.3 582.51 633.02 587.8C633.02 587.8 660.02 600.02 660.85 599.73C670.13 596.42 660.19 599.73 660.19 599.73C660.19 599.73 660.85 589.13 664.83 584.49C664.83 584.49 688.69 519.54 687.36 486.41L719.17 409.53L683.39 345.25Z" fill="#012369"/>
  <path d="M679.42 341.27L694 375.73C694 375.73 705.27 432.06 717.2 447.3L726.48 471.16L741.73 491.05C741.73 491.05 789.45 566.6 786.13 589.13C786.13 589.13 815.95 597.13 815.29 587.13C815.29 587.13 808 573.21 808 565.92C808 565.92 785.47 487.06 770.22 478.44C770.22 478.44 757.7 456.11 757.82 443.55C757.827 439.529 757.492 435.514 756.82 431.55C754.59 417.69 750.88 391.17 754.28 386.32C758.92 379.69 766.87 349.21 744.34 328.66L679.42 341.27Z" fill="#012369"/>
  <path opacity="0.1" d="M815.27 587.15C815.27 587.15 807.98 573.23 807.98 565.94C807.98 565.94 785.45 487.08 770.2 478.46C770.2 478.46 757.68 456.13 757.8 443.57C757.807 439.549 757.472 435.534 756.8 431.57C754.57 417.71 750.86 391.19 754.26 386.34C758.9 379.71 766.85 349.23 744.32 328.68L740.48 329.43C762.02 349.96 754.21 379.79 749.63 386.34C745.05 392.89 753.63 440.02 753.63 440.02C750.32 451.29 765.56 478.46 765.56 478.46C780.8 487.08 803.34 565.94 803.34 565.94C803.34 573.23 810.63 587.15 810.63 587.15C810.85 590.43 807.74 591.76 803.48 592.07C809.9 592.44 815.57 591.54 815.27 587.15Z" fill="black"/>
  <path d="M709.9 168.3C709.9 168.3 722.49 187.52 719.18 193.48L751.65 185.48C751.65 185.48 743.03 176.2 745.02 153.67L709.9 168.3Z" fill="#FDB797"/>
  <path opacity="0.1" d="M756.29 182.22C756.29 182.22 729.12 176.22 711.89 196.8C704.09 206.1 699.82 212.42 697.48 216.54C695.275 220.354 692.717 223.954 689.84 227.29C685.53 232.38 680.25 243.35 682.73 265.72L674.73 337.29C674.73 337.29 697.93 335.29 703.89 337.29C709.85 339.29 751.61 332.65 751.61 332.65C751.61 332.65 735.04 312.77 754.26 266.38C773.48 219.99 756.29 182.22 756.29 182.22Z" fill="black"/>
  <path d="M756.29 181.56C756.29 181.56 729.12 175.56 711.89 196.14C704.09 205.44 699.82 211.76 697.48 215.88C695.275 219.695 692.717 223.294 689.84 226.63C685.53 231.72 680.25 242.69 682.73 265.06L674.73 336.63C674.73 336.63 697.93 334.63 703.89 336.63C709.85 338.63 751.61 331.99 751.61 331.99C751.61 331.99 735.04 312.11 754.26 265.72C773.48 219.33 756.29 181.56 756.29 181.56Z" fill="#2F2E41"/>
  <path opacity="0.1" d="M723.49 242.83C723.49 242.83 697.64 279.97 685.73 286.6L679.1 289.91C679.1 289.91 720.84 242.83 723.49 242.83Z" fill="black"/>
  <path d="M699.3 223.97C699.3 223.97 716.3 217.28 723.59 239.46C723.887 240.36 723.937 241.324 723.737 242.25C723.537 243.177 723.092 244.033 722.45 244.73L682.73 287.59C682.73 287.59 671.46 294.22 666.16 290.24C660.86 286.26 592.6 274.33 592.6 274.33C592.6 274.33 573.65 279.9 565.91 270.61C565.63 270.277 565.43 269.884 565.324 269.462C565.218 269.04 565.21 268.6 565.3 268.174C565.389 267.748 565.574 267.348 565.841 267.004C566.108 266.661 566.45 266.382 566.84 266.19C570.54 264.32 576.71 265.4 583.99 264.5C589.579 263.833 595.234 263.951 600.79 264.85C623.52 268.41 677.07 274.29 685.38 252.46C695.98 224.64 699.3 223.97 699.3 223.97Z" fill="#FDB797"/>
  <path opacity="0.1" d="M698.97 224.3C698.97 224.3 719.51 220.99 724.15 241.53V240.2C724.15 240.2 718.19 217.68 698.97 224.3Z" fill="black"/>
  <path opacity="0.1" d="M745.73 155.05L710.56 169.63C710.56 169.63 712.15 172.05 714.04 175.44C717.47 176.82 722.21 175.93 726.13 175.93C734.13 175.93 739.98 173.82 745.35 168.64C744.86 164.66 745.2 160.54 745.73 155.05Z" fill="black"/>
  <path d="M724.48 176.25C740.949 176.25 754.3 162.899 754.3 146.43C754.3 129.961 740.949 116.61 724.48 116.61C708.011 116.61 694.66 129.961 694.66 146.43C694.66 162.899 708.011 176.25 724.48 176.25Z" fill="#FDB797"/>
  <path opacity="0.1" d="M724.53 142.4C725.18 144.7 723.27 146.83 721.89 148.78C717.06 155.61 717.95 164.91 720.16 172.97C721.24 176.92 722.86 181.12 726.39 183.19C729.21 184.84 732.68 184.77 735.84 185.6C741.53 187.09 746.13 191.6 748.84 196.79C751.55 201.98 752.52 207.97 752.84 213.85C753.806 230.858 749.718 247.771 741.09 262.46C749.94 263.97 759.09 259.94 765.44 253.57C771.79 247.2 775.61 238.76 778.28 230.19C780.733 222.312 782.303 214.185 782.96 205.96C783.67 197.02 783.3 188.04 782.96 179.08C782.53 168.63 782.03 157.9 777.81 148.33C776.16 144.59 773.96 141.07 772.94 137.11C772.377 134.397 771.986 131.652 771.77 128.89C770.39 118.06 765.26 107.56 756.85 100.6C748.44 93.64 736.69 90.6 726.17 93.47C720.17 95.14 714.79 98.59 709.81 102.37C701.75 108.5 692.5 118.37 698.19 128.87C703.14 138.06 714.08 144.04 724.53 142.4Z" fill="black"/>
  <path d="M725.19 141.74C725.84 144.04 723.93 146.17 722.55 148.12C717.72 154.95 718.61 164.25 720.82 172.31C721.9 176.26 723.52 180.46 727.05 182.53C729.87 184.18 733.34 184.11 736.5 184.94C742.19 186.43 746.79 190.94 749.5 196.13C752.21 201.32 753.18 207.31 753.5 213.19C754.466 230.21 750.371 247.135 741.73 261.83C750.58 263.34 759.73 259.31 766.08 252.94C772.43 246.57 776.25 238.13 778.92 229.56C781.373 221.682 782.943 213.555 783.6 205.33C784.31 196.39 783.94 187.41 783.6 178.45C783.17 168 782.67 157.27 778.45 147.7C776.8 143.96 774.6 140.44 773.58 136.48C773.017 133.768 772.626 131.022 772.41 128.26C771.03 117.43 765.9 106.93 757.49 99.9701C749.08 93.0101 737.33 89.9701 726.81 92.8401C720.81 94.5101 715.43 97.9601 710.45 101.74C702.39 107.87 693.14 117.74 698.83 128.24C703.81 137.4 714.73 143.38 725.19 141.74Z" fill="#72351C"/>
  <path opacity="0.1" d="M728.13 289.91C728.13 289.91 740.72 289.91 745.36 283.91Z" fill="black"/>
  <path opacity="0.1" d="M728.13 294.55C728.13 294.55 740.72 294.55 745.36 288.55Z" fill="black"/>
  <path opacity="0.1" d="M740.06 218.34C740.06 218.34 738.06 234.25 730.78 241.54Z" fill="black"/>
  <path d="M374.23 170.62C393.996 170.62 410.02 154.596 410.02 134.83C410.02 115.064 393.996 99.04 374.23 99.04C354.464 99.04 338.44 115.064 338.44 134.83C338.44 154.596 354.464 170.62 374.23 170.62Z" fill="#FFC533"/>
  <path d="M401.07 170.29C401.07 170.29 388.48 189.51 391.79 195.47L359.32 187.47C359.32 187.47 367.94 178.19 365.95 155.66L401.07 170.29Z" fill="#FDB797"/>
  <path opacity="0.1" d="M365.28 157.04L400.4 171.62C400.4 171.62 398.81 174.04 396.92 177.43C393.49 178.81 388.75 177.92 384.83 177.92C376.83 177.92 370.98 175.81 365.61 170.63C366.11 166.65 365.73 162.53 365.28 157.04Z" fill="black"/>
  <path d="M386.49 178.24C402.959 178.24 416.31 164.889 416.31 148.42C416.31 131.951 402.959 118.6 386.49 118.6C370.021 118.6 356.67 131.951 356.67 148.42C356.67 164.889 370.021 178.24 386.49 178.24Z" fill="#FDB797"/>
  <path d="M338.44 126.88C347.591 126.88 355.01 119.461 355.01 110.31C355.01 101.159 347.591 93.74 338.44 93.74C329.289 93.74 321.87 101.159 321.87 110.31C321.87 119.461 329.289 126.88 338.44 126.88Z" fill="#FFC533"/>
  <path opacity="0.1" d="M407.67 132.43C400.21 132.3 391.73 130.8 386.14 135.73C382.14 139.27 381.06 144.99 379.7 150.17C377.7 157.95 373.12 166.5 365.16 167.66C360.3 168.37 355.41 165.95 351.96 162.45C348.51 158.95 346.28 154.45 344.17 150.04C342.06 145.63 340 141.04 340.17 136.15C340.38 130.34 343.77 125.15 347.23 120.5C349.317 117.58 351.642 114.837 354.18 112.3C358.099 108.524 362.765 105.609 367.878 103.745C372.99 101.88 378.437 101.106 383.867 101.472C389.297 101.838 394.59 103.337 399.406 105.872C404.222 108.407 408.454 111.921 411.83 116.19C418.04 123.72 421.13 132.66 407.67 132.43Z" fill="black"/>
  <path d="M407.01 131.77C399.55 131.64 391.07 130.14 385.48 135.07C381.48 138.61 380.4 144.33 379.04 149.51C377.04 157.29 372.46 165.84 364.5 167C359.64 167.71 354.75 165.29 351.3 161.79C347.85 158.29 345.62 153.79 343.51 149.38C341.4 144.97 339.34 140.38 339.51 135.49C339.72 129.68 343.11 124.49 346.57 119.84C348.657 116.92 350.982 114.177 353.52 111.64C357.439 107.864 362.105 104.95 367.218 103.085C372.331 101.22 377.777 100.446 383.207 100.812C388.637 101.179 393.93 102.677 398.746 105.212C403.562 107.747 407.794 111.262 411.17 115.53C417.37 123.06 420.47 132 407.01 131.77Z" fill="#FFC533"/>
  <path d="M427.58 347.24C427.58 347.24 449.45 424.78 447.46 440.68C447.46 440.68 458.06 465.86 454.09 479.78C454.09 479.78 468.67 584.49 477.95 589.78C477.95 589.78 450.95 602 450.12 601.71C440.84 598.4 450.78 601.71 450.78 601.71C450.78 601.71 450.12 591.11 446.14 586.47C446.14 586.47 422.28 521.52 423.61 488.39L391.8 411.51L427.58 347.24Z" fill="#3AD29F"/>
  <path d="M427.58 347.24C427.58 347.24 449.45 424.78 447.46 440.68C447.46 440.68 458.06 465.86 454.09 479.78C454.09 479.78 468.67 584.49 477.95 589.78C477.95 589.78 450.95 602 450.12 601.71C440.84 598.4 450.78 601.71 450.78 601.71C450.78 601.71 450.12 591.11 446.14 586.47C446.14 586.47 422.28 521.52 423.61 488.39L391.8 411.51L427.58 347.24Z" fill="#2F2E41"/>
  <path d="M431.56 343.26L416.98 377.72C416.98 377.72 405.71 434.05 393.78 449.29L384.5 473.15L369.26 493.03C369.26 493.03 321.54 568.58 324.86 591.11C324.86 591.11 295.04 599.11 295.7 589.11C295.7 589.11 302.99 575.19 302.99 567.9C302.99 567.9 325.52 489.04 340.77 480.42C340.77 480.42 353.29 458.09 353.17 445.53C353.163 441.509 353.498 437.494 354.17 433.53C356.4 419.67 360.11 393.15 356.71 388.3C352.07 381.67 344.12 351.19 366.65 330.64L431.56 343.26Z" fill="#2F2E41"/>
  <path opacity="0.1" d="M295.73 589.13C295.73 589.13 303.02 575.21 303.02 567.92C303.02 567.92 325.55 489.06 340.8 480.44C340.8 480.44 353.32 458.11 353.2 445.55C353.193 441.529 353.528 437.514 354.2 433.55C356.43 419.69 360.14 393.17 356.74 388.32C352.1 381.69 344.15 351.21 366.68 330.66L370.52 331.41C348.91 351.95 356.73 381.83 361.31 388.33C365.89 394.83 357.31 442.01 357.31 442.01C360.62 453.28 345.38 480.45 345.38 480.45C330.14 489.07 307.6 567.93 307.6 567.93C307.6 575.22 300.31 589.14 300.31 589.14C300.09 592.42 303.2 593.75 307.46 594.06C301.07 594.43 295.4 593.53 295.73 589.13Z" fill="black"/>
  <path opacity="0.1" d="M360.67 185.83L385.3 191.89C392.175 193.59 398.518 196.976 403.756 201.742C408.994 206.509 412.961 212.505 415.3 219.19C416.594 223.17 418.3 227.004 420.39 230.63C422.191 233.397 423.402 236.505 423.95 239.76C424.95 246.25 424.87 256.76 418.07 268.68C418.07 268.68 429.28 352.85 458.39 372.07C458.39 372.07 429.98 378.61 405.08 370.52C388.39 365.1 370.08 367.38 355.78 377.62L355.16 378.07C351.849 380.544 348.021 382.235 343.963 383.016C339.905 383.797 335.722 383.648 331.73 382.58C326.51 381.13 320.36 380.37 314.63 382.03C314.63 382.03 340.82 316.64 342.63 312.44C348.73 298.25 358.73 270.57 351.73 254.83C342 232.92 338.44 200.45 360.67 185.83Z" fill="black"/>
  <path d="M360.67 184.54L385.3 190.6C392.175 192.3 398.518 195.686 403.756 200.452C408.994 205.219 412.961 211.215 415.3 217.9C416.594 221.88 418.3 225.714 420.39 229.34C422.191 232.107 423.402 235.215 423.95 238.47C424.95 244.96 424.87 255.47 418.07 267.39C418.07 267.39 429.28 351.56 458.39 370.78C458.39 370.78 429.98 377.32 405.08 369.23C388.39 363.81 370.08 366.09 355.78 376.33L355.16 376.78C351.847 379.249 348.017 380.934 343.959 381.71C339.901 382.486 335.72 382.332 331.73 381.26C326.51 379.81 320.36 379.05 314.63 380.71C314.63 380.71 340.82 315.32 342.63 311.12C348.73 296.92 358.73 269.24 351.73 253.46C342 231.59 338.44 200.45 360.67 184.54Z" fill="#012369"/>
  <path opacity="0.1" d="M387.49 244.83C387.49 244.83 413.34 281.94 425.27 288.57L431.9 291.88C431.9 291.88 390.14 244.83 387.49 244.83Z" fill="black"/>
  <path d="M411.67 225.96C411.67 225.96 394.67 219.27 387.38 241.45C387.083 242.35 387.032 243.314 387.233 244.24C387.433 245.167 387.878 246.023 388.52 246.72L428.24 289.59C428.24 289.59 439.51 296.22 444.81 292.24C450.11 288.26 518.37 276.33 518.37 276.33C518.37 276.33 537.19 281.86 544.98 272.7C545.269 272.366 545.478 271.97 545.593 271.544C545.708 271.117 545.726 270.67 545.644 270.235C545.562 269.801 545.384 269.391 545.122 269.035C544.86 268.679 544.521 268.387 544.13 268.18C540.02 266.11 532.5 266.18 524.41 265.49C521.612 265.248 518.794 265.376 516.03 265.87C498.73 268.94 434.73 278.48 425.59 254.46C414.99 226.62 411.67 225.96 411.67 225.96Z" fill="#FDB797"/>
  <path opacity="0.1" d="M412.01 226.29C412.01 226.29 391.47 222.98 386.83 243.52V242.19C386.83 242.19 392.79 219.66 412.01 226.29Z" fill="black"/>
  <path d="M626.73 195.14C626.73 209.689 622.416 223.911 614.333 236.008C606.25 248.105 594.762 257.533 581.32 263.101C567.879 268.668 553.089 270.125 538.819 267.287C524.55 264.448 511.443 257.442 501.155 247.155C490.868 236.867 483.862 223.76 481.024 209.491C478.185 195.222 479.642 180.431 485.21 166.99C490.777 153.549 500.206 142.06 512.302 133.977C524.399 125.894 538.621 121.58 553.17 121.58C572.679 121.58 591.39 129.33 605.185 143.125C618.98 156.92 626.73 175.631 626.73 195.14V195.14ZM584.73 184.66C586.19 174.87 578.73 169.61 568.55 166.1L571.84 152.83L563.73 150.83L560.51 163.74C558.39 163.21 556.21 162.74 554.04 162.22L557.28 149.22L549.21 147.22L545.9 160.47C544.14 160.07 542.42 159.67 540.75 159.26L529.62 156.48L527.47 165.1C527.47 165.1 533.47 166.47 533.33 166.56C536.6 167.38 537.19 169.56 537.09 171.25L533.32 186.36C533.606 186.431 533.886 186.522 534.16 186.63L533.31 186.42L528.03 207.58C527.914 207.95 527.726 208.293 527.477 208.589C527.228 208.886 526.923 209.131 526.579 209.309C526.235 209.488 525.86 209.596 525.474 209.629C525.088 209.662 524.699 209.618 524.33 209.5C524.41 209.62 518.46 208.04 518.46 208.04L514.46 217.28L524.96 219.9C526.96 220.39 528.83 220.9 530.71 221.38L527.37 234.79L535.43 236.79L538.74 223.52C540.88 224.1 543.023 224.657 545.17 225.19L541.87 238.4L549.94 240.4L553.28 227.01C567.04 229.61 577.4 228.56 581.75 216.12C585.26 206.12 581.58 200.32 574.33 196.55C579.6 195.33 583.58 191.87 584.64 184.7L584.73 184.66ZM566.29 210.52C563.8 220.52 546.92 215.12 541.45 213.77L545.88 196C551.33 197.37 568.88 200.07 566.27 210.52H566.29ZM568.79 184.52C566.51 193.64 552.47 189 547.91 187.87L551.91 171.76C556.46 172.89 571.14 175.01 568.73 184.52H568.79Z" style="fill: rgb(238, 66, 102);"/>
  <path d="M544.67 582.83C544.67 582.83 528.91 529.33 547.67 489.95C555.619 473.487 558.016 454.89 554.5 436.95C552.762 428.445 550.248 420.117 546.99 412.07" stroke="#11941E" stroke-width="2" stroke-miterlimit="10"/>
  <path d="M558.6 387.16C558.6 393.72 546.73 412.73 546.73 412.73C546.73 412.73 534.86 393.73 534.86 387.16C534.86 385.6 535.167 384.056 535.764 382.616C536.361 381.175 537.236 379.866 538.338 378.763C539.441 377.66 540.75 376.786 542.191 376.189C543.631 375.592 545.176 375.285 546.735 375.285C548.295 375.285 549.839 375.592 551.279 376.189C552.72 376.786 554.029 377.66 555.132 378.763C556.235 379.866 557.109 381.175 557.706 382.616C558.303 384.056 558.61 385.6 558.61 387.16H558.6Z" fill="#6C63FF"/>
  <path d="M578.22 423.48C574.66 428.98 554.36 438.48 554.36 438.48C554.36 438.48 554.73 416.07 558.29 410.56C559.138 409.251 560.235 408.122 561.519 407.238C562.803 406.353 564.248 405.73 565.773 405.404C567.298 405.078 568.872 405.056 570.405 405.338C571.939 405.621 573.401 406.202 574.71 407.05C576.019 407.898 577.148 408.995 578.032 410.279C578.917 411.563 579.54 413.008 579.866 414.533C580.192 416.058 580.214 417.632 579.932 419.165C579.649 420.698 579.068 422.161 578.22 423.47V423.48Z" fill="#6C63FF"/>
  <path d="M577.36 485.55C571.51 488.55 549.18 486.46 549.18 486.46C549.18 486.46 560.81 467.3 566.67 464.34C568.062 463.638 569.579 463.217 571.133 463.101C572.688 462.986 574.25 463.177 575.731 463.665C577.211 464.153 578.581 464.928 579.763 465.945C580.944 466.963 581.913 468.203 582.615 469.595C583.317 470.987 583.738 472.504 583.854 474.058C583.969 475.613 583.778 477.175 583.29 478.656C582.802 480.136 582.027 481.506 581.01 482.688C579.992 483.869 578.752 484.838 577.36 485.54V485.55Z" fill="#6C63FF"/>
  <path d="M566.14 532.37C560.87 536.27 538.52 538.03 538.52 538.03C538.52 538.03 546.75 517.18 552.02 513.28C553.273 512.353 554.697 511.682 556.21 511.305C557.723 510.928 559.295 510.853 560.837 511.083C562.379 511.314 563.86 511.846 565.197 512.65C566.533 513.453 567.698 514.511 568.625 515.765C569.552 517.018 570.223 518.442 570.6 519.955C570.977 521.468 571.052 523.04 570.822 524.582C570.591 526.124 570.059 527.605 569.255 528.942C568.452 530.278 567.393 531.443 566.14 532.37V532.37Z" fill="#6C63FF"/>
  <path d="M529.43 439.77C534.13 444.34 556.05 449.07 556.05 449.07C556.05 449.07 550.68 427.3 545.98 422.74C544.877 421.589 543.555 420.672 542.09 420.044C540.626 419.415 539.05 419.088 537.456 419.081C535.863 419.075 534.284 419.39 532.814 420.006C531.345 420.623 530.015 421.529 528.903 422.671C527.792 423.813 526.921 425.167 526.344 426.653C525.767 428.138 525.495 429.725 525.544 431.317C525.593 432.91 525.963 434.477 526.63 435.924C527.298 437.371 528.25 438.669 529.43 439.74V439.77Z" fill="#6C63FF"/>
  <path d="M517 494.68C522.85 497.68 545.18 495.59 545.18 495.59C545.18 495.59 533.54 476.43 527.73 473.48C526.338 472.778 524.821 472.357 523.267 472.242C521.712 472.126 520.15 472.317 518.669 472.805C517.189 473.293 515.819 474.068 514.637 475.086C513.456 476.103 512.487 477.343 511.785 478.735C511.083 480.127 510.662 481.644 510.546 483.198C510.431 484.753 510.622 486.315 511.11 487.796C511.598 489.277 512.373 490.647 513.39 491.828C514.408 493.009 515.648 493.978 517.04 494.68H517Z" fill="#6C63FF"/>
  <path d="M512.24 549.72C517.51 553.62 539.86 555.38 539.86 555.38C539.86 555.38 531.63 534.53 526.36 530.63C523.829 528.758 520.657 527.968 517.543 528.434C514.429 528.9 511.627 530.584 509.755 533.115C507.883 535.646 507.093 538.818 507.559 541.932C508.025 545.046 509.709 547.848 512.24 549.72V549.72Z" fill="#6C63FF"/>
  <path d="M558.6 387.16C558.6 393.72 546.73 412.73 546.73 412.73C546.73 412.73 534.86 393.73 534.86 387.16C534.86 385.6 535.167 384.056 535.764 382.616C536.361 381.175 537.236 379.866 538.338 378.763C539.441 377.66 540.75 376.786 542.191 376.189C543.631 375.592 545.176 375.285 546.735 375.285C548.295 375.285 549.839 375.592 551.279 376.189C552.72 376.786 554.029 377.66 555.132 378.763C556.235 379.866 557.109 381.175 557.706 382.616C558.303 384.056 558.61 385.6 558.61 387.16H558.6Z" fill="#11941E"/>
  <path d="M578.22 423.48C574.66 428.98 554.36 438.48 554.36 438.48C554.36 438.48 554.73 416.07 558.29 410.56C559.138 409.251 560.235 408.122 561.519 407.238C562.803 406.353 564.248 405.73 565.773 405.404C567.298 405.078 568.872 405.056 570.405 405.338C571.939 405.621 573.401 406.202 574.71 407.05C576.019 407.898 577.148 408.995 578.032 410.279C578.917 411.563 579.54 413.008 579.866 414.533C580.192 416.058 580.214 417.632 579.932 419.165C579.649 420.698 579.068 422.161 578.22 423.47V423.48Z" fill="#11941E"/>
  <path d="M577.36 485.55C571.51 488.55 549.18 486.46 549.18 486.46C549.18 486.46 560.81 467.3 566.67 464.34C568.062 463.638 569.579 463.217 571.133 463.101C572.688 462.986 574.25 463.177 575.731 463.665C577.211 464.153 578.581 464.928 579.763 465.945C580.944 466.963 581.913 468.203 582.615 469.595C583.317 470.987 583.738 472.504 583.854 474.058C583.969 475.613 583.778 477.175 583.29 478.656C582.802 480.136 582.027 481.506 581.01 482.688C579.992 483.869 578.752 484.838 577.36 485.54V485.55Z" fill="#11941E"/>
  <path d="M566.14 532.37C560.87 536.27 538.52 538.03 538.52 538.03C538.52 538.03 546.75 517.18 552.02 513.28C553.273 512.353 554.697 511.682 556.21 511.305C557.723 510.928 559.295 510.853 560.837 511.083C562.379 511.314 563.86 511.846 565.197 512.65C566.533 513.453 567.698 514.511 568.625 515.765C569.552 517.018 570.223 518.442 570.6 519.955C570.977 521.468 571.052 523.04 570.822 524.582C570.591 526.124 570.059 527.605 569.255 528.942C568.452 530.278 567.393 531.443 566.14 532.37V532.37Z" fill="#11941E"/>
  <path d="M529.43 439.77C534.13 444.34 556.05 449.07 556.05 449.07C556.05 449.07 550.68 427.3 545.98 422.74C544.877 421.589 543.555 420.672 542.09 420.044C540.626 419.415 539.05 419.088 537.456 419.081C535.863 419.075 534.284 419.39 532.814 420.006C531.345 420.623 530.015 421.529 528.903 422.671C527.792 423.813 526.921 425.167 526.344 426.653C525.767 428.138 525.495 429.725 525.544 431.317C525.593 432.91 525.963 434.477 526.63 435.924C527.298 437.371 528.25 438.669 529.43 439.74V439.77Z" fill="#11941E"/>
  <path d="M517 494.68C522.85 497.68 545.18 495.59 545.18 495.59C545.18 495.59 533.54 476.43 527.73 473.48C526.338 472.778 524.821 472.357 523.267 472.242C521.712 472.126 520.15 472.317 518.669 472.805C517.189 473.293 515.819 474.068 514.637 475.086C513.456 476.103 512.487 477.343 511.785 478.735C511.083 480.127 510.662 481.644 510.546 483.198C510.431 484.753 510.622 486.315 511.11 487.796C511.598 489.277 512.373 490.647 513.39 491.828C514.408 493.009 515.648 493.978 517.04 494.68H517Z" fill="#11941E"/>
  <path d="M512.24 549.72C517.51 553.62 539.86 555.38 539.86 555.38C539.86 555.38 531.63 534.53 526.36 530.63C523.829 528.758 520.657 527.968 517.543 528.434C514.429 528.9 511.627 530.584 509.755 533.115C507.883 535.646 507.093 538.818 507.559 541.932C508.025 545.046 509.709 547.848 512.24 549.72V549.72Z" fill="#11941E"/>
  <path d="M551.48 264.39C546.42 261.92 535.62 257.7 526.34 261.19C526.34 261.19 437.34 278.83 426.12 250.33C425.593 248.997 425.083 247.713 424.59 246.48C424.815 244.612 424.911 242.731 424.88 240.85C424.919 238.537 424.755 236.225 424.39 233.94C423.803 230.596 422.519 227.414 420.62 224.6C418.412 220.899 416.606 216.974 415.23 212.89C413.071 207.004 409.688 201.644 405.304 197.162C400.921 192.68 395.636 189.179 389.8 186.89C389.97 182.63 392.98 176.34 395.71 171.45H395.8L396.63 170.05C402.375 167.861 407.327 163.991 410.838 158.944C414.349 153.897 416.256 147.908 416.31 141.76C416.309 135.836 414.537 130.048 411.22 125.14C420.63 123.63 417.41 115.63 411.59 108.77C410.461 107.441 409.256 106.179 407.98 104.99C402.297 99.3935 395.144 95.5237 387.35 93.83C386.42 93.63 385.48 93.48 384.54 93.35C378.942 91.4215 372.978 90.7929 367.101 91.512C361.224 92.231 355.588 94.2788 350.62 97.5C349.408 94.0597 347.15 91.0849 344.162 88.9922C341.175 86.8995 337.607 85.7938 333.96 85.83C324.28 85.83 316.44 93.42 316.44 102.83C316.44 112.24 324.28 119.83 333.96 119.83H334.96C334.312 122.505 333.977 125.247 333.96 128C333.96 145.12 346.09 159.5 362.49 163.52L362.78 163.79C362.78 164.07 362.73 164.36 362.69 164.64L362.76 164.7C362.135 169.736 360.546 174.605 358.08 179.04L357.46 178.89C344.53 187.89 339.85 201.54 339.96 215.76C339.89 227.84 343.23 240.48 347.96 250.76C349.697 254.87 350.556 259.298 350.48 263.76C350.23 279.16 343.14 297.64 338.32 308.46C336.41 312.75 308.72 379.71 308.72 379.71L309.35 379.55L308.72 381.07C314.78 379.37 321.28 380.15 326.8 381.64C330.6 382.638 334.561 382.869 338.452 382.319C342.343 381.77 346.085 380.451 349.46 378.44C350.201 381.656 351.476 384.725 353.23 387.52C356.82 392.52 352.9 419.64 350.54 433.83C349.849 437.886 349.514 441.995 349.54 446.11C349.67 458.98 336.43 481.84 336.43 481.84C320.31 490.66 296.48 571.4 296.48 571.4C296.48 575.72 293.9 582.3 291.73 587.09C290.15 590.58 288.73 593.09 288.73 593.09C288.709 593.336 288.709 593.584 288.73 593.83C288.73 593.83 288.73 593.9 288.73 593.93C288.747 594.058 288.77 594.185 288.8 594.31L279.6 617.52C304.83 631.09 339.17 633.13 339.17 633.13C366.5 635.13 351.79 620.24 351.79 620.24C334.79 620.24 323.09 603.56 318.36 595.43L319.55 595.14C316.05 572.07 366.55 494.72 366.55 494.72L382.67 474.36L392.48 449.83C395.21 446.45 397.92 441.09 400.48 434.77L424.02 489.83C422.62 523.76 447.85 590.25 447.85 590.25C451.76 594.67 452.64 604.38 452.74 605.7L453.45 605.46L452.05 628.93C460.46 634.36 523.54 618.07 523.54 618.07C538.96 608.57 529.15 605.86 529.15 605.86C513.41 610.94 490.59 600.04 480.15 594.25L481.52 593.65C471.71 588.22 456.29 481.02 456.29 481.02C460.5 466.77 449.29 441.02 449.29 441.02C450.57 431.12 442.51 397.87 436.01 373.34C444.354 373.269 452.674 372.419 460.86 370.8C460.34 370.47 459.86 370.12 459.33 369.8C460.33 369.61 460.86 369.49 460.86 369.49C439.2 355.64 426.86 308.86 421.53 282.36C422.863 283.492 424.3 284.496 425.82 285.36L432.82 288.75L432.02 287.88C435.93 289.61 442.67 291.88 446.49 289.09C452.1 285.02 524.28 272.81 524.28 272.81C524.28 272.81 544.28 278.52 552.51 269C552.817 268.655 553.037 268.243 553.153 267.796C553.269 267.349 553.277 266.881 553.176 266.431C553.075 265.981 552.869 265.561 552.574 265.206C552.279 264.851 551.904 264.571 551.48 264.39V264.39Z" fill="url(#paint1_linear)"/>
  <defs>
    <linearGradient id="paint0_linear" x1="695.93" y1="631.02" x2="695.93" y2="76.5201" gradientUnits="userSpaceOnUse">
      <stop stop-color="#808080" stop-opacity="0.25"/>
      <stop offset="0.54" stop-color="#808080" stop-opacity="0.12"/>
      <stop offset="1" stop-color="#808080" stop-opacity="0.1"/>
    </linearGradient>
    <linearGradient id="paint1_linear" x1="131266" y1="410361" x2="131266" y2="110656" gradientUnits="userSpaceOnUse">
      <stop stop-color="#808080" stop-opacity="0.25"/>
      <stop offset="0.54" stop-color="#808080" stop-opacity="0.12"/>
      <stop offset="1" stop-color="#808080" stop-opacity="0.1"/>
    </linearGradient>
  </defs>
</svg>