<?xml version="1.0" encoding="UTF-8"?> <!-- Generator: Adobe Illustrator 24.3.0, SVG Export Plug-In . SVG Version: 6.00 Build 0) --> <svg xmlns="http://www.w3.org/2000/svg" xmlns:xlink="http://www.w3.org/1999/xlink" id="Layer_1" x="0px" y="0px" viewBox="0 0 296 31.2" style="enable-background:new 0 0 296 31.2;" xml:space="preserve"> <style type="text/css"> .st0{fill:#FFFFFF;} .st1{fill:#808285;} .st2{fill:#CD2332;} </style> <g> <g> <path class="st1" d="M94.3,1.9H83.4v27.5h10.9c4.1,0,7.5-1.3,10-3.8c2.5-2.5,3.8-6.2,3.8-10.2C107.9,9.2,104.3,1.9,94.3,1.9z M89,7.3h5.3c5.9,0,8.1,4.2,8.2,8.1c0.1,2.6-0.7,4.8-2.2,6.4c-1.4,1.5-3.4,2.2-5.9,2.2H89V7.3z"></path> <path class="st1" d="M152.6,18.3h6.9v4.4c-1.8,1.4-3.5,2-5.8,2c-6.6,0-9-4.5-9-8.7c0-5.7,3.7-9.7,9-9.7c2.4,0,5,1,6.7,2.6l0.2,0.2 l3.5-3.6l-0.2-0.2c-2.7-2.7-6.4-4.2-10.2-4.2c-10,0-14.5,7.5-14.5,14.9c0,6.8,3.8,14,14.5,14c4.5,0,8-1.6,10.9-4.9l0.1-0.1V13.3 h-12.1V18.3z"></path> <rect x="120.8" y="1.9" class="st1" width="5.6" height="27.5"></rect> <rect x="178.9" y="1.9" class="st1" width="5.6" height="27.5"></rect> <polygon class="st1" points="216.8,18.1 204,2 204,1.9 199.4,1.9 199.4,29.4 205.1,29.4 205.1,11.7 218.8,29.3 218.8,29.4 219.2,29.4 222.4,29.4 222.4,1.9 216.8,1.9 "></polygon> <polygon class="st1" points="237.4,29.4 258.1,29.4 258.1,23.9 243,23.9 243,18.3 257.6,18.3 257.6,13 243,13 243,7.4 258.1,7.4 258.1,1.9 237.4,1.9 "></polygon> <polygon class="st1" points="286.7,15.5 295.7,2.5 295.7,1.9 289.7,1.9 283.1,11.7 276.5,1.9 270.6,1.9 270.6,2.5 279.6,15.5 270.3,28.9 270.3,29.4 276.4,29.4 283.1,19.5 289.9,29.4 296,29.4 296,28.9 "></polygon> </g> <g> <path class="st1" d="M18.9,22.6C18.9,22.6,18.9,22.6,18.9,22.6L18.9,22.6c0-0.3-0.2-0.4-0.4-0.4h-0.6c0,0,0,0,0,0h-7.3 c-1.8,0-3.3-1.5-3.3-3.3v-8c0-1.8,1.5-3.3,3.3-3.3h22.7c1.8,0,3.3,1.5,3.3,3.3v7.5h7.3v-7.5c0-5.8-4.8-10.6-10.6-10.6H10.5 C4.7,0.2-0.1,4.9-0.1,10.7v8.3c0,5.8,4.8,10.6,10.6,10.6h11.7C22.2,29.6,19.6,27.8,18.9,22.6"></path> <path class="st1" d="M48.8,8.8C48.8,8.8,48.8,8.8,48.8,8.8L48.8,8.8c0,0.3,0.2,0.4,0.4,0.4h0.6c0,0,0,0,0,0h7.3 c1.8,0,3.3,1.5,3.3,3.3v8c0,1.8-1.5,3.3-3.3,3.3H34.4c-1.8,0-3.3-1.5-3.3-3.3V13h-7.3v7.5c0,5.8,4.8,10.6,10.6,10.6h22.8 c5.8,0,10.6-4.8,10.6-10.6v-8.3c0-5.8-4.8-10.6-10.6-10.6H45.4C45.4,1.7,48,3.6,48.8,8.8"></path> </g> </g> </svg> 